<?xml version="1.0" encoding="UTF-8" standalone="no"?>
<!-- Created with Inkscape (http://www.inkscape.org/) -->

<svg
   xmlns:dc="http://purl.org/dc/elements/1.1/"
   xmlns:cc="http://creativecommons.org/ns#"
   xmlns:rdf="http://www.w3.org/1999/02/22-rdf-syntax-ns#"
   xmlns:svg="http://www.w3.org/2000/svg"
   xmlns="http://www.w3.org/2000/svg"
   xmlns:sodipodi="http://sodipodi.sourceforge.net/DTD/sodipodi-0.dtd"
   xmlns:inkscape="http://www.inkscape.org/namespaces/inkscape"
   width="1080"
   height="810"
   viewBox="0 0 1080 810"
   id="svg2"
   version="1.1"
   inkscape:version="0.91 r13725"
   sodipodi:docname="arctext2.svg">
  <defs
     id="defs4">
    <inkscape:path-effect
       effect="bend_path"
       id="path-effect4454"
       is_visible="true"
       bendpath="#path4418"
       prop_scale="1"
       scale_y_rel="false"
       vertical="false" />
    <inkscape:path-effect
       effect="bend_path"
       id="path-effect3465"
       is_visible="true"
       bendpath="#path3475"
       prop_scale="1"
       scale_y_rel="false"
       vertical="false" />
  </defs>
  <sodipodi:namedview
     id="base"
     pagecolor="#ffffff"
     bordercolor="#666666"
     borderopacity="1.0"
     inkscape:pageopacity="0.0"
     inkscape:pageshadow="2"
     inkscape:zoom="0.35"
     inkscape:cx="375"
     inkscape:cy="520"
     inkscape:document-units="px"
     inkscape:current-layer="layer5"
     showgrid="true"
     showguides="true"
     inkscape:guide-bbox="true"
     units="px"
     borderlayer="true"
     inkscape:snap-grids="false">
    <inkscape:grid
       type="xygrid"
       id="grid4133"
       dotted="true" />
    <sodipodi:guide
       position="1080,0"
       orientation="0,1"
       id="guide4168"
       inkscape:label=""
       inkscape:color="rgb(0,0,255)" />
    <sodipodi:guide
       position="1080,810"
       orientation="1,0"
       id="guide4170"
       inkscape:label=""
       inkscape:color="rgb(0,0,255)" />
    <sodipodi:guide
       position="0,810"
       orientation="0,1"
       id="guide4172"
       inkscape:label=""
       inkscape:color="rgb(0,0,255)" />
    <sodipodi:guide
       position="540,405"
       orientation="1,0"
       id="guide4176"
       inkscape:label=""
       inkscape:color="rgb(0,0,255)" />
    <sodipodi:guide
       position="540,405"
       orientation="0,1"
       id="guide4178"
       inkscape:label=""
       inkscape:color="rgb(0,0,255)" />
  </sodipodi:namedview>
  <metadata
     id="metadata7">
    <rdf:RDF>
      <cc:Work
         rdf:about="">
        <dc:format>image/svg+xml</dc:format>
        <dc:type
           rdf:resource="http://purl.org/dc/dcmitype/StillImage" />
        <dc:title></dc:title>
      </cc:Work>
    </rdf:RDF>
  </metadata>
  <g
     inkscape:groupmode="layer"
     id="layer3"
     inkscape:label="bottom"
     transform="translate(0,65.905518)">
    <g
       style="color:#000000;font-size:354.33071899px;letter-spacing:0px;word-spacing:0px;text-anchor:middle;solid-opacity:1;fill:#000000;stroke:#ffffff;stroke-width:1.00275588;stroke-miterlimit:0"
       id="text4141"
       inkscape:path-effect="#path-effect3465"
       transform="translate(0,300)">
      <path
         d="m 123.94903,39.630942 c 0.16554,0.170089 0.33106,0.340158 0.49657,0.510206 6.94445,14.263975 13.82868,28.45342 20.70787,42.565814 22.8798,10.149763 46.43413,27.607548 71.45529,51.900218 0.83579,0.81146 1.67167,1.62182 2.50765,2.43107 9.00975,8.72164 14.54199,18.28748 16.67574,28.86713 -0.78345,2.99833 1.02426,8.86044 5.50452,17.48487 1.13771,2.17033 2.44386,4.51728 3.91551,7.03148 1.50504,2.09789 3.00893,4.18903 4.51234,6.27305 l -0.771,0.85052 c -4.43714,-3.26085 -8.61292,-6.21062 -12.55676,-8.85046 -9.88715,-6.67091 -18.06499,-11.22916 -24.66491,-13.5796 -4.83915,-2.05134 -9.68181,-4.13042 -14.52783,-6.235 2.83031,6.56491 5.68645,13.11507 8.57409,19.65081 3.69307,11.60192 4.14009,22.23379 1.26248,31.94444 -0.52246,1.76598 -1.15571,3.50178 -1.89999,5.20689 -1.5503,3.09686 -3.0969,6.1968 -4.6395,9.29995 -4.50325,4.90238 -9.69975,8.07632 -15.62004,9.48281 0,0 0,0 0,0 -9.7208,2.30706 -21.39414,-0.16209 -34.90486,-7.57293 -26.39843,-16.12445 -49.46629,-34.39785 -69.038208,-54.14264 -7.140557,4.30158 -14.03406,9.39471 -20.673101,15.2886 -2.027124,0.0625 -6.700814,2.95249 -14.024952,8.66459 l -6.289871,6.21485 c -8.151901,11.5342 -13.146894,21.6779 -14.971438,30.4424 -4.400093,8.65971 -7.789546,16.99112 -10.159983,24.9971 -1.51338,2.94201 -3.024461,5.88573 -4.53316,8.83121 -0.3486532,-0.34856 -0.6971649,-0.69712 -1.0455357,-1.04567 8.3158637,-34.66833 15.3734357,-54.45534 20.0813097,-59.0987 1.630731,-2.2876 3.262102,-4.57466 4.894094,-6.8612 l 8.268145,-8.15032 c 13.7759,-13.57959 24.48802,-22.40871 32.095214,-26.47953 -8.586416,-9.40234 -17.132932,-18.83386 -25.657316,-28.27937 -0.0379,-0.2966 -0.07579,-0.59319 -0.113657,-0.88977 l 0.386529,-0.37708 c 0.311653,0.0295 0.623302,0.0589 0.934949,0.0884 0.520958,0.53393 1.041986,1.06781 1.563085,1.60162 9.547879,9.78089 16.979015,14.44892 22.248785,14.03277 l 6.689873,-6.57854 c -2.900876,-2.95006 -5.79913,-5.90384 -8.695311,-8.86076 -2.391455,0.96688 -4.783504,1.93286 -7.176095,2.898 -0.333589,-0.34087 -0.667148,-0.68177 -1.000677,-1.0227 l 21.327155,-20.86382 c 0.33221,0.33958 0.66443,0.67911 0.996662,1.01858 -2.443751,2.39158 -2.02305,5.7199 1.270865,9.97771 1.705119,1.73826 3.410764,3.4751 5.117047,5.21039 L 127.9414,108.62781 c 0.67506,-0.66382 3.53729,0.93859 8.58963,4.77796 3.06691,0.35381 5.22362,-0.0898 6.47152,-1.32316 2.433,-2.4047 1.67067,-6.05297 -2.27973,-10.96372 -9.39133,-7.938116 -23.19151,-14.670133 -41.434042,-20.24712 -13.443337,-1.990482 -22.905197,-1.967651 -28.405362,0.132524 -0.0045,-0.0047 -0.493785,-0.507878 -0.49831,-0.512532 0.437651,-1.131257 0.87529,-2.262523 1.312907,-3.393802 l 0.387256,-0.37624 c 5.619908,-5.460037 26.695523,-3.040832 63.348491,6.38686 -3.81835,-14.447409 -7.63007,-28.936426 -11.48473,-43.477638 z m 18.604,100.266768 -9.41366,9.39038 c 0.16615,0.16662 0.33231,0.33322 0.49848,0.4998 10.49882,-3.49496 16.3571,-4.95582 17.63116,-4.3226 0.66249,0.66077 1.32508,1.3211 1.98777,1.98098 0.24794,0.7866 0.49612,1.57311 0.74455,2.35952 9.23789,-3.822 15.69852,-3.90942 19.41642,-0.24427 14.27279,5.2841 27.23988,9.12325 38.94173,11.60497 l 0.37343,-0.38989 c 1.51607,-8.26718 -0.90274,-15.45976 -7.28519,-21.68071 -1.51461,-1.47627 -3.02883,-2.95591 -4.54275,-4.43881 -12.2349,-11.9842 -24.09198,-16.8201 -35.69104,-14.28428 -1.53331,-0.51898 -9.09074,5.98833 -22.6609,19.52491 z m -25.43028,28.50333 c 4.85335,4.86065 9.78801,6.40205 14.781,4.64126 0.79285,-0.79801 1.54483,-0.84338 2.25617,-0.1371 0.16739,0.1662 0.33479,0.33238 0.5022,0.49853 -8.09121,8.07116 -16.18286,16.14189 -24.27496,24.21218 0.25713,-3.64313 0.52033,-7.28399 0.78912,-10.92282 -1.0942,-1.34455 -2.18741,-2.68992 -3.27969,-4.03608 -1.53489,-1.53408 -3.06858,-3.0697 -4.60115,-4.60676 l -4.68381,4.6705 c -1.85052,2.34999 -2.207261,4.09543 -1.069201,5.23499 28.410351,25.4565 46.166631,37.98558 52.455361,38.32077 8.08459,3.75458 17.35399,3.88343 27.75152,0.38016 l 2.63479,-2.8026 c 12.95503,-13.78013 12.31596,-32.98766 -1.16557,-57.83301 -4.86318,-4.7392 -16.2614,-6.33481 -34.3523,-5.02634 -12.47726,1.63895 -21.77059,3.75192 -27.926,6.45923 0.0608,0.3157 0.12164,0.63139 0.18252,0.94709 z"
         style="-inkscape-font-specification:'Metal Macabre'"
         id="path3447"
         inkscape:original-d="m 67.157783,366.38837 0.539932,0 34.285715,14.91563 q 26.65917,-13.76828 67.964,-13.76828 l 2.76716,0 q 14.91563,0 25.44432,9.38133 2.22722,5.12936 18.83014,11.60855 l 6.07425,1.6198 0,1.14735 q -23.2171,2.90214 -33.74579,8.8414 l -11.60855,5.53431 15.45557,8.30146 q 14.78066,10.46119 19.37008,27.60405 l 2.22722,9.98875 q 0,26.3892 -27.13161,35.90551 -34.28571,9.78628 -65.73678,9.78628 -2.22722,12.14848 -2.76715,25.44432 -1.55231,2.22722 -2.76716,16.06299 l 0,8.8414 q 2.76716,20.85489 8.23397,32.05849 3.37458,13.83577 7.76153,24.8369 l 2.22723,9.44881 -1.07987,0 q -20.51744,-45.75928 -20.51744,-55.88301 l -1.07986,-8.30146 0,-11.60855 q 0,-29.02137 2.76715,-41.43982 l -28.751403,-1.48482 -0.539932,-0.53993 0,-0.53993 0.539932,-0.60743 1.68729,0 q 15.455563,0 19.302583,-6.07424 l 0,-9.38132 -9.381323,0 -2.227222,7.1541 -1.079865,0 0,-29.83127 1.079865,0 q 0,5.12936 6.074245,6.07424 l 5.5343,0 0,-49.74128 q 0,-1.41732 7.2216,-2.76716 2.76716,-2.90213 2.76716,-5.5343 0,-5.12936 -7.2216,-6.07424 -14.105739,1.68728 -33.13836,15.45556 -12.283465,12.35096 -14.915636,20.44995 l -0.539932,0 -1.147357,-3.30709 0,-0.53993 q 0,-11.60855 37.052869,-40.89989 L 67.157783,366.38837 Z m 64.656917,56.96288 0,13.29584 0.53993,0 q 5.66929,-14.84815 7.2216,-15.52306 l 2.15973,0 1.68729,1.14735 q 4.45444,-13.83577 10.52868,-13.83577 16.13049,-9.38133 28.14399,-18.83014 l 0,-0.53994 q -5.46682,-10.52868 -15.9955,-10.52868 l -4.99438,0 q -20.17998,0 -27.60405,14.98313 -1.68729,1.07986 -1.68729,29.83127 z m 1.68729,38.13273 q 7.82902,0 10.46119,-7.1541 0,-1.68729 1.14736,-1.68729 l 0.53993,0 -0.13498,34.28571 -5.39933,-8.30146 -3.91451,-0.53993 -4.92688,0 0,6.61417 q 0.40495,4.45444 2.22722,4.45444 43.12711,-3.1721 48.59393,-9.38133 9.5838,-4.31946 15.52306,-18.83014 l 0,-3.84702 q 0,-28.34646 -31.51856,-40.96738 -7.89652,0 -21.5973,20.51744 -8.8414,14.91563 -11.60855,24.29696 l 0.60742,0.53993 z"
         inkscape:connector-curvature="0" />
      <path
         d="m 281.53153,197.75873 c 0.12123,0.10583 0.24246,0.2116 0.36367,0.31733 6.07675,11.06564 12.19549,21.9389 18.46414,32.58878 0.8337,0.67391 1.66734,1.34486 2.50096,2.0128 l -0.25222,0.31673 c -0.23416,0.043 -0.46841,0.0858 -0.70275,0.12851 l -0.25242,0.31657 c 3.26185,2.44373 6.5218,4.8428 9.78133,7.194 5.80455,4.49078 11.61411,8.82659 17.43915,12.98876 0.55425,0.86135 0.75206,6.2984 1.03829,16.60863 l -0.22924,0.33353 c -0.1681,-0.11493 -0.33618,-0.23 -0.50424,-0.34522 -3.26981,-6.50485 -5.5929,-10.34152 -7.22776,-11.52229 -1.77961,-1.28532 -3.31946,-1.0531 -4.62015,0.72724 -17.68441,24.55529 -35.34384,49.12855 -52.97813,73.71987 -1.87344,2.56979 -0.40155,6.24802 4.5784,10.92416 l -0.54486,0.77117 c -1.0946,0.82289 -2.1828,0.85259 -3.25937,0.0856 l -0.23478,0.32958 c 1.39583,4.7208 2.85404,9.44561 4.3797,14.17501 -0.15083,-0.10355 -0.30161,-0.20716 -0.45235,-0.31083 -4.85104,-11.03408 -10.75403,-19.21973 -18.1538,-24.77723 -8.01467,-6.01932 -15.90536,-12.19757 -23.68895,-18.5047 -0.0731,-0.29089 -0.14604,-0.58177 -0.21879,-0.87263 -0.13965,-0.11335 -0.27926,-0.22674 -0.41884,-0.34017 1.16673,-1.43538 3.55127,-0.66758 7.18923,2.24162 6.52401,2.85373 10.73693,2.99423 12.61196,0.58926 l 15.63919,-20.05915 c -11.95156,-9.33192 -23.70285,-19.07868 -35.32089,-29.12087 l -0.39731,0.46 c -7.36557,18.57073 -8.83186,29.68446 -4.81086,33.03984 -0.28379,-0.0316 -0.56761,-0.0634 -0.85146,-0.0953 l -0.6061,0.72533 c 0.84183,2.99111 1.70051,5.98292 2.57739,8.97553 l -0.34295,0.41715 c -0.99632,-0.81887 -1.99092,-1.63978 -2.98384,-2.46265 -0.89435,-0.56583 -1.78794,-1.13323 -2.68077,-1.70217 l -0.25952,0.31104 c -0.31566,19.10577 -0.66974,29.47474 -2.13417,31.30041 -6.91834,-25.3884 -9.75809,-38.07972 -11.30964,-39.41329 -0.77979,-1.35297 -1.55599,-2.70674 -2.32875,-4.06128 -9.94141,-7.09353 -19.77772,-14.34943 -29.52374,-21.70553 l 0.63762,-0.69778 c 4.60713,2.47415 9.22468,4.92558 13.85186,7.34874 l 0.2704,-0.30182 c -6.18509,-5.54204 -12.31745,-11.13532 -18.40675,-16.76264 -1.55354,-1.43514 -3.10461,-2.87273 -4.65329,-4.31272 l 0.36763,-0.3954 c 1.17835,-1.26738 3.57965,-0.7464 7.21397,1.53795 1.00025,0.62874 2.09377,1.39079 3.28218,2.28598 8.29004,1.6398 18.36004,1.92907 30.06933,0.74099 2.20575,-5.0304 4.6755,-9.05035 7.37924,-12.06585 l 4.55365,-5.07873 c 13.10259,-14.61342 33.29619,-19.77428 60.21653,-18.07786 9.15946,1.79333 14.06476,2.87569 14.99459,3.64017 l 0.3418,-0.41806 c -2.73585,-2.24942 -5.68285,-11.29938 -8.40185,-27.15937 -1.28744,-3.67504 -1.61186,-5.87684 -0.99167,-6.58876 z m -45.73221,57.07458 -4.42261,5.10426 c 0.86782,0.39714 3.89927,0.0414 9.03323,-1.12698 0.0345,0.2669 0.0692,0.5338 0.1039,0.80072 8.24687,-1.20408 16.43063,-2.51496 24.53571,-3.94888 l 0.25809,-0.31218 c -0.12821,-0.10635 -0.25642,-0.21276 -0.38461,-0.31922 -9.33234,-1.01715 -17.26874,0.19088 -23.79454,3.86191 -0.15167,-0.12997 -0.30332,-0.25999 -0.45495,-0.39008 l 0.65899,-0.76931 c 13.01391,-7.29732 22.02541,-11.593 27.28071,-12.72334 0.24197,-0.0322 0.48386,-0.0645 0.72569,-0.0969 0.16875,0.14117 0.33751,0.28225 0.50629,0.42324 3.04927,2.78185 6.10415,5.5324 9.1665,8.24911 13.07549,-2.0205 19.98886,-3.93127 20.80731,-4.98103 l 2.65493,-3.40527 c -7.46434,-5.84927 -15.8989,-8.41638 -25.51642,-7.64476 -18.0979,1.23669 -31.91278,6.60833 -41.15822,17.27874 z m 49.95285,4.16084 -0.25095,0.31769 c 1.04058,0.82533 2.08184,1.64666 3.12385,2.46391 l 0.58152,-0.74433 c 0.19114,0.14992 0.38231,0.2997 0.5735,0.44934 0.61082,-1.17832 1.2227,-2.35599 1.83565,-3.53302 -1.94881,0.3577 -3.90341,0.70641 -5.86357,1.04641 z m -50.64011,7.99394 c 10.1334,8.66935 20.36248,17.09379 30.7322,25.19328 L 285.051,267.5464 c -2.76977,-2.16696 -5.53331,-4.36178 -8.2916,-6.58272 -13.65858,2.37425 -27.56683,4.35472 -41.64734,6.02441 z m -45.69366,6.4468 c -1.36287,2.7635 0.3257,6.29558 5.12004,10.53354 0.3135,0.27711 0.62714,0.55408 0.94091,0.8309 l 1.65326,-1.874 c 1.46385,-1.6593 3.0076,-5.62285 4.70039,-11.89501 -0.17682,-0.15704 -0.3536,-0.31412 -0.53035,-0.47126 -6.32349,0.16623 -10.28561,1.09599 -11.88425,2.87583 z"
         style="-inkscape-font-specification:'Metal Macabre'"
         id="path3449"
         inkscape:original-d="m 243.15943,369.83044 0.40495,0 29.83128,13.02587 2.76715,0 0,0.40495 -0.40495,0.53993 0,0.40495 10.52868,-0.40495 19.2351,0 q 1.21485,0.53993 9.24634,13.02587 l 0,0.40495 -0.53993,0 q -8.43644,-5.26434 -11.06861,-5.26434 -2.90214,0 -2.90214,3.30709 l 0.53993,90.84364 q 0,4.7919 7.62655,6.20923 l 0,0.94488 q -0.47244,1.95725 -1.95726,1.95725 l 0,0.40495 8.70641,9.11136 -0.40495,0 q -11.33858,-9.51631 -21.73228,-9.51631 l -22.54218,0 -0.53993,-0.53993 -0.40495,0 q 0,-2.76715 5.26434,-2.76715 7.76153,-2.76716 7.76153,-7.35658 l 0,-25.44432 -35.70304,0 0,0.60742 q 7.62655,28.27897 13.56581,28.27897 l -0.53994,0.47244 0,0.94488 5.80428,5.26434 0,0.53993 -2.90214,0 -2.3622,0.40495 0,0.40495 q 13.43082,22.20473 13.43082,25.5793 -23.08212,-23.08211 -25.03937,-23.08211 l -3.30709,-1.55231 -27.33408,3.44207 0,-0.94488 11.40607,-3.84702 0,-0.40495 -23.48706,0 0,-0.53993 q 0,-3.30709 7.76153,-4.31946 8.16648,-6.61417 17.27784,-19.64004 -1.95726,-7.82903 -1.95726,-13.90327 l 0,-6.81664 q 0,-29.15636 26.79415,-53.18336 10.12374,-6.81665 11.60855,-6.81665 l 0,-0.53993 q -4.52193,0 -20.17998,-15.32058 -4.25197,-2.90214 -4.25197,-4.31946 z m 2.36221,73.02587 0,6.74916 q 1.07986,-0.40495 4.7919,-6.74916 l 0.47244,0.53993 12.95838,-18.83014 0,-0.40495 -0.40495,0 q -9.51631,7.76153 -12.55343,18.29021 l -0.47244,0 0,-1.01237 q 6.07424,-20.98988 10.12374,-27.33409 l 0.40494,-0.53993 0.53994,0 10.12373,0.53993 q 11.06862,-14.78065 11.06862,-16.87289 l 0,-4.31946 q -12.21598,0 -20.7874,10.12374 -16.26547,18.76265 -16.26547,39.82002 z M 278.66,414.1049 l 0,0.40495 3.30708,0 0,-0.94488 0.60743,0 -0.60743,-3.91451 -3.30708,4.45444 z m -27.33409,38.4027 31.2486,0 0,-31.24859 -8.70641,0 -22.54219,31.24859 z m -23.08211,34.96063 q 0.94488,4.45445 8.16648,4.45445 l 0.94488,0 0,-2.49719 q 0,-3.30709 -3.30709,-12.0135 l -0.53993,0 q -5.26434,6.47919 -5.26434,10.05624 z"
         inkscape:connector-curvature="0" />
      <path
         d="m 351.64532,271.38399 c 11.22345,7.02331 22.56395,13.47238 33.98014,19.19691 0.10664,0.40584 0.21399,0.81166 0.32204,1.21746 l -0.62787,1.27074 c -0.38811,0.15849 -0.77686,0.31632 -1.16623,0.47349 -0.60216,-0.30184 -1.2041,-0.60567 -1.80579,-0.91146 -6.2299,-3.16616 -11.05849,-1.82758 -14.45406,4.45016 -3.01809,5.12242 -6.04503,10.23995 -9.08076,15.35258 0.13556,0.22764 0.27136,0.45521 0.40741,0.68269 0.13353,0.0725 0.26708,0.14486 0.40066,0.21717 5.16226,2.79439 16.55462,1.01789 32.21947,-6.90428 1.00493,-1.41995 2.00545,-2.84237 3.00152,-4.26726 0.33603,-0.74693 -0.78662,-2.88141 -3.25227,-6.4931 l 0.25836,-0.54961 c 0.18163,-0.0632 0.36312,-0.12655 0.54447,-0.19005 l 0.22906,-0.48882 c 5.05414,2.24169 10.11526,4.33686 15.17924,6.27325 7.29155,2.99819 14.60282,5.66591 21.92324,7.96484 0.21594,0.39779 0.43292,0.79527 0.65096,1.19241 l -0.4274,1.35079 c -0.18924,0.5981 -1.14699,0.63835 -2.8724,0.0832 -5.65768,-1.82034 -18.39374,4.92866 -43.74794,16.45206 8.93456,8.86472 14.8949,18.63425 17.81031,29.852 0.84604,3.08906 0.73971,9.76781 -0.0573,20.19364 -1.43562,4.23174 -5.32229,9.20441 -11.9009,14.56509 5.17738,8.74596 10.87519,15.04682 16.63588,18.84753 2.5853,1.70537 5.18395,2.90899 7.76173,3.61245 0.13793,0.17748 0.27608,0.35489 0.41442,0.53223 l -0.47731,1.75755 c -0.48964,0.1933 -0.98008,0.38573 -1.47133,0.57727 -2.50972,-0.68925 -5.01378,-1.40275 -7.5118,-2.14108 -12.55068,-3.71979 -24.89002,-8.06838 -36.9984,-12.97448 -9.53179,2.78024 -25.19462,4.84666 -46.52308,4.33504 -0.1692,-0.0866 -0.33834,-0.1733 -0.50742,-0.26009 1.12098,-0.30987 2.23943,-0.6235 3.3553,-0.94091 -1.10667,-0.25812 -2.21309,-0.52031 -3.31924,-0.78656 27.18932,-4.2125 43.43141,-10.52662 48.78662,-14.73213 l 0.15471,-0.37394 c -10.16246,-22.35866 -17.2743,-42.73767 -22.0095,-56.50052 l -10.89179,20.05568 c -8.18331,15.06841 -11.03117,23.29208 -8.41515,24.68165 1.41958,2.53649 4.00778,4.78563 7.75483,6.67434 0.77609,0.39119 1.55327,0.78018 2.33154,1.16695 0.20188,0.40181 0.40451,0.80352 0.60791,1.20512 l -1.40524,2.84405 c -17.62847,-8.70668 -34.69519,-18.53926 -51.13357,-29.2558 -0.84769,-0.55268 -1.69386,-1.1074 -2.53854,-1.66414 l 0.44546,-0.67625 c 0.78061,0.51448 1.69493,0.96353 2.74167,1.3449 1.98544,0.72378 4.45064,1.20419 7.37805,1.41859 5.6023,3.54632 10.51331,1.73055 14.70685,-5.18455 2.56607,-3.89294 5.128,-7.78854 7.68576,-11.6868 l 36.28162,-59.97095 c 2.12156,-3.5068 1.93286,-6.31794 -0.50878,-8.45662 -1.14331,-0.70536 -2.28535,-1.41671 -3.42609,-2.1339 -0.57108,-0.35905 -0.50423,-1.08929 0.1976,-2.1894 -0.40532,-0.25595 -0.81047,-0.51263 -1.21546,-0.77004 l 0.51097,-0.79496 c 1.02264,0.48995 2.04526,0.97526 3.0678,1.45586 z m 39.7172,44.67162 c -5.21359,1.57175 -10.53173,3.01653 -15.94389,4.33625 0.84291,0.6102 1.68806,1.21684 2.53545,1.81986 4.68684,-1.90324 9.29044,-3.89663 13.80398,-5.98071 -0.13186,-0.0584 -0.26371,-0.11684 -0.39554,-0.1754 z m -38.769,7.83017 -3.54466,6.52699 c 9.83938,-1.93567 14.84683,-3.5868 15.16622,-4.21609 -1.56082,-0.7957 -3.11857,-1.60263 -4.67318,-2.4205 -1.96545,-1.03401 -4.26821,-0.99401 -6.94838,0.1096 z m 17.33886,8.92163 c -1.73719,0.68327 -3.48489,1.35481 -5.24278,2.01464 5.61077,16.14528 12.36507,32.2241 20.46745,48.08506 l 1.12341,-2.96386 c 3.23424,-8.53281 -1.10675,-21.41871 -10.27146,-39.7272 -2.1825,-4.01519 -4.16117,-6.48082 -6.07662,-7.40864 z"
         style="-inkscape-font-specification:'Metal Macabre'"
         id="path3451"
         inkscape:original-d="m 331.83913,385.89343 37.45782,0 0.8099,0.94488 0,1.41732 -0.8099,0.94489 -1.95725,0 q -10.19123,0 -10.19123,10.66366 l -0.60743,17.81778 0.60743,0.40495 0.40495,0 q 7.964,0 23.75703,-20.58493 l 0.94488,-5.12936 q 0,-1.21485 -5.53431,-4.52194 l 0,-0.60742 0.40495,-0.40495 0,-0.53993 16.33296,-0.40495 23.75703,0 1.01237,0.94488 0,1.41732 q 0,0.94489 -2.76715,0.94489 -8.57143,0 -33.20585,31.24859 15.92801,6.61417 24.36446,20.98988 2.3622,3.91451 5.5343,19.10011 0,6.74916 -5.12936,17.68279 13.22835,14.10574 22.94714,14.10574 l 0.40495,0.40495 0,1.82227 -0.94489,0.94488 -35.02812,0 q -8.84139,9.38133 -29.42632,23.35208 l -0.40495,0 1.82227,-2.3622 -2.3622,0.80989 q 24.027,-24.56692 28.07649,-33.94825 l 0,-0.40495 q -21.32734,-25.98425 -35.56806,-41.50731 l 0,22.81215 q 0,25.71428 3.30709,25.71428 2.76716,2.36221 7.49157,2.36221 l 1.95725,0 0.8099,0.80989 0,3.17211 -46.16423,0 0,-0.8099 q 3.03712,0 7.49156,-3.1721 7.42407,0 7.42407,-12.14849 l 0.40495,-13.97075 0,-70.05624 q 0,-6.14174 -4.52193,-6.95163 l -3.77953,0 q -0.94488,0 -0.94488,-1.95726 l -1.34983,0 0,-0.94488 3.1721,-0.40495 z m 52.77841,20.58493 -11.60855,10.66366 2.76715,0.53994 9.24634,-11.2036 -0.40494,0 z m -28.0765,24.22947 0,7.42407 q 9.85377,-9.65129 9.85377,-10.79865 l -4.58942,0 q -2.90214,0 -5.26435,3.37458 z m 16.8729,0 -3.30709,4.11698 31.38358,35.90552 0,-3.17211 q 0,-13.49831 -20.58493,-32.73341 -4.72441,-4.11698 -7.49156,-4.11698 z"
         inkscape:connector-curvature="0" />
      <path
         d="m 530.50844,320.98544 c -9.16702,10.23045 -14.27949,18.77182 -14.7203,25.98108 l -0.21851,3.57358 c -0.5717,0.4388 -1.14451,0.87674 -1.71846,1.31379 -0.24934,1.45065 -0.49999,2.90114 -0.75196,4.35147 -0.31319,-0.0203 -0.62626,-0.041 -0.9392,-0.0618 -0.89316,-14.01021 -3.70841,-21.1672 -8.51929,-21.58065 0.048,-0.54253 -1.55717,-0.98394 -4.78376,-1.38488 -5.17024,-0.49749 -10.28741,-1.07696 -15.34579,-1.74657 -7.99921,5.3368 -13.16461,10.4593 -15.22578,15.73462 0.24285,0.35956 0.4866,0.71893 0.73123,1.07809 10.47723,1.72063 21.17679,3.02931 32.0521,3.99214 0.16735,0.15042 0.33491,0.30076 0.50267,0.45102 0.15411,0.0135 0.30825,0.0269 0.46243,0.0402 -5.09814,7.24773 -9.48798,13.79929 -13.06704,19.75057 0.23944,0.0264 0.47894,0.0526 0.71852,0.0786 4.69562,0.51007 8.29016,-1.67939 10.68863,-6.4827 0.61249,-4.46619 1.33325,-6.6627 2.16568,-6.59233 0.46951,0.0397 0.93931,0.0787 1.40939,0.11717 0.36559,0.34614 0.73213,0.69192 1.09963,1.03733 l -2.79629,34.60527 c -0.44599,0.28045 -0.89261,0.56034 -1.33988,0.83967 -0.50534,-0.0417 -1.01052,-0.0842 -1.51552,-0.12735 -0.67028,-0.0573 -1.38078,-3.39563 -2.04733,-10.01152 -1.90348,-4.06982 -6.15837,-6.38844 -12.77402,-7.17068 -7.99425,-0.94524 -15.91699,-2.09025 -23.75221,-3.45773 l -0.14034,0.79707 c -1.50033,8.52151 2.72572,21.02848 14.64207,36.47254 8.3342,7.96931 14.40737,11.98794 17.37234,12.26629 7.88911,0.74064 16.12297,-5.19874 24.0017,-17.81515 0.94863,0.0506 1.8976,0.0989 2.84688,0.14491 0.1661,0.14332 0.33232,0.28656 0.49868,0.42974 0.17273,0.008 0.34548,0.0164 0.51824,0.0245 -3.38816,8.33918 -6.90279,16.65151 -10.55119,24.9304 3.28322,1.48975 6.58965,2.95189 9.91701,4.38665 l -0.0427,0.94468 c -8.16803,-1.83327 -16.279,-3.83073 -24.31117,-6.00319 -25.49907,-2.23333 -50.85865,-6.23833 -75.70348,-12.54739 -0.27325,-0.39407 -0.5456,-0.78841 -0.81704,-1.18301 l 0.31879,-1.24101 c 0.42696,-0.21527 0.85321,-0.4312 1.27878,-0.64778 1.39226,0.35368 2.78623,0.70008 4.18185,1.03927 7.14244,1.73588 11.49392,-1.35482 13.12098,-8.88692 1.35707,-5.1791 2.70555,-10.36028 4.04546,-15.5435 l 1.46924,-6.85634 c -3.2636,-11.1107 -3.11844,-22.6723 -0.26379,-34.75317 1.1946,-5.05555 4.93646,-10.8252 10.90698,-17.64643 0.63103,-4.2756 0.58005,-7.02748 -0.1468,-8.24487 -0.17018,0.12338 -0.3405,0.24664 -0.51095,0.36976 -0.13618,-0.0304 -0.27231,-0.0609 -0.40838,-0.0915 -2.58277,-0.58056 -9.23909,-5.21322 -17.69925,-14.20556 0,0 0,0 0,0 -1.03643,-1.07797 -2.1075,-2.22463 -3.20906,-3.44072 -0.31053,-0.0946 -0.62104,-0.18983 -0.93155,-0.28576 l 0.26415,-0.83634 c 1.5264,0.73108 3.05731,1.4456 4.59276,2.14311 6.84463,3.26636 13.99775,6.24822 21.42301,8.97296 18.80989,4.05059 38.79997,6.44905 59.60027,7.72031 1.55274,0.0949 6.09314,-1.43038 13.42162,-4.74193 z m -66.28197,34.99963 -2.3272,13.21796 c 8.41973,1.46756 16.94994,2.67481 25.56982,3.65123 l 0.98217,-8.51753 c 0.3508,-3.0422 -0.7786,-5.3822 -3.3255,-7.05112 -4.04915,-0.49335 -8.07249,-1.04014 -12.06762,-1.6438 -5.70382,-0.86184 -8.62637,-0.82278 -8.83167,0.34326 z m -8.88781,50.48066 -0.0702,0.39852 c -1.55067,8.80743 -0.77116,13.50051 2.41935,14.02801 3.99597,0.79741 8.00513,1.54315 12.0257,2.23931 2.71245,0.37772 5.42855,0.73285 8.14781,1.06605 l 0.0493,-0.40201 c -5.56428,-2.07356 -13.2474,-7.64619 -22.04528,-16.82696 l 0.0696,-0.39862 c -0.19881,-0.0346 -0.39759,-0.0694 -0.59633,-0.1043 z"
         style="-inkscape-font-specification:'Metal Macabre'"
         id="path3453"
         inkscape:original-d="m 515.973,382.31638 q -12.0135,15.86051 -12.0135,26.65916 l 0,3.57706 -1.41732,1.41732 -0.40495,4.38695 -0.8099,0 q -2.36221,-20.85489 -8.97638,-20.85489 0,-0.8099 -4.45444,-0.94488 l -14.24072,0 q -10.05625,9.51631 -11.60855,17.81777 l 0.8099,0.94488 28.61642,0 0.47244,0.40495 0.40495,0 q -5.80428,11.47357 -9.44882,20.92239 l 0.60742,0 q 5.93926,0 8.43645,-7.49157 0.26997,-6.74915 1.34983,-6.74915 l 1.21485,0 1.01237,0.94488 0,34.69066 -1.01237,0.94488 -1.21485,0 q -0.8099,0 -2.3622,-9.78627 -2.76716,-5.80428 -11.06862,-5.80428 l -20.04499,0 0,0.8099 q 0,13.16086 16.06299,33.88077 10.79865,10.25871 14.24072,10.25871 8.97638,0 17.41282,-19.50506 l 2.22722,0 0.40495,0.40495 0.40495,0 -7.01912,25.44432 7.55905,3.84702 0,0.94488 -18.3577,-4.38695 -57.36783,0 -0.8099,-0.94488 0,-1.28234 0.8099,-0.94488 3.23959,0 q 8.23398,0 8.23398,-11.60855 l 0.53993,-16.06299 0,-7.01913 q -6.74916,-15.25309 -6.74916,-33.88076 0,-7.76153 6.20923,-19.64005 -0.40495,-6.47919 -1.82228,-8.03149 l -0.40495,0.47244 -0.40495,0 q -4.58942,0 -24.83689,-11.60855 l -1.01237,0 0,-0.87739 28.48144,4.04949 57.09786,0 q 2.15973,0 12.0135,-5.39932 z m -56.15298,41.43982 0,13.43082 21.86726,0 0,-8.57143 q 0,-4.58943 -3.57705,-6.61417 l -10.66367,0 q -7.62654,0 -7.62654,1.75478 z m 0,51.29359 0,0.40494 q 0,13.43083 3.64454,13.43083 l 9.24634,0.40495 6.20923,0 0,-0.40495 q -6.61418,-2.09224 -18.62767,-13.43083 l 0,-0.40494 -0.47244,0 z"
         inkscape:connector-curvature="0" />
      <path
         d="m 646.89493,314.44057 0.1841,0.92642 c -1.68658,0.93271 -3.38474,1.85557 -5.09422,2.76857 l 0.0864,0.46429 c 2.34301,-0.4362 3.57112,-0.36204 3.69162,0.25848 l 0.25722,1.32457 c -0.27131,0.39649 -0.54352,0.79274 -0.81662,1.18875 -0.64926,0.12482 -1.29907,0.24822 -1.94942,0.37019 -7.28451,1.3662 -10.45315,5.49903 -9.28107,12.71405 l 12.39767,76.31694 c 1.37507,8.46458 5.3123,12.22261 11.88627,11.03562 0.81898,-0.0108 1.63822,-0.0233 2.45773,-0.0378 1.20716,-0.22335 2.41361,-0.45066 3.61931,-0.68196 0.47103,0.23021 0.94267,0.45983 1.41492,0.68885 l 0.27008,1.39081 c -0.36183,0.34516 -0.72436,0.68997 -1.08756,1.03443 -13.51571,2.59271 -27.12157,4.68756 -40.78278,6.31039 -7.0108,7.1547 -19.78086,15.9589 -38.60665,25.04781 21.77372,-18.05186 32.90193,-31.83103 35.15109,-38.43603 0.20455,-0.0236 0.40908,-0.0473 0.6136,-0.0711 0.25196,0.12918 0.50409,0.2582 0.7564,0.38705 0.17541,-0.0206 0.35081,-0.0414 0.5262,-0.0622 l -4.50305,-37.92921 c -12.07602,1.4263 -24.23419,2.452 -36.44305,3.10048 l 2.32921,43.61786 c 0.1486,2.78287 2.04729,4.2252 5.71626,4.26811 1.97206,-0.12258 2.97969,0.12222 3.02183,0.75204 l 0.0946,1.4145 c -0.3719,0.29553 -0.74434,0.59074 -1.1173,0.88561 -16.79071,1.09257 -33.62309,1.50942 -50.43346,1.29784 -0.41764,-0.27526 -0.83477,-0.55089 -1.25138,-0.8269 l 0.0203,-1.41719 c 0.42411,-0.30888 0.84765,-0.61817 1.27061,-0.92787 0.98773,0.0124 1.97552,0.0226 2.96337,0.0306 8.59826,0.0697 12.80214,-3.73089 12.71913,-11.09075 0.20098,-5.67346 0.39499,-11.34705 0.58202,-17.02074 l -0.56319,-45.02574 c -0.21899,-17.50769 -1.3947,-26.24238 -3.45598,-26.22548 -3.16623,-1.45995 -5.61672,-2.20527 -7.39697,-2.21254 -1.19346,-0.005 -2.3875,-0.0133 -3.58209,-0.0252 -0.35163,-0.34099 -0.70268,-0.68227 -1.05314,-1.02384 l 0.0193,-1.3497 c 0.35898,-0.3108 0.71732,-0.62194 1.07502,-0.93339 13.92367,0.13732 27.76951,-0.20224 41.47651,-1.06396 0.88216,0.12492 1.76466,0.24767 2.64749,0.36823 l 0.0279,0.40408 c -0.38932,1.60454 -1.51138,2.4713 -3.36594,2.58483 -2.53808,3.57583 -3.68634,8.53287 -3.34274,14.86579 l 0.54497,10.04442 c 11.81839,-0.63525 23.56628,-1.63821 35.21044,-3.03356 -0.53185,-1.79398 -1.00139,-2.66687 -1.41328,-2.61842 0.0299,-1.06805 0.0588,-2.13604 0.0867,-3.20398 l -0.65737,-5.49441 c -0.55567,-4.64437 -1.91397,-8.92486 -4.0133,-12.85059 -1.70334,0.19265 -3.4094,0.37661 -5.11806,0.55197 -0.35687,-0.3026 -0.71318,-0.60558 -1.06893,-0.90894 l -0.13719,-1.34284 c -0.0643,-0.62936 1.23549,-1.06853 3.88657,-1.35689 -0.37101,-0.43484 -0.74119,-0.8701 -1.11055,-1.30576 -0.0857,-0.79051 13.90937,-1.86658 40.64045,-7.93661 z m -66.35705,47.41286 0.7596,14.22467 c 12.0733,-0.64074 24.09208,-1.65355 36.02488,-3.0618 l -1.6787,-14.13968 c -11.61802,1.36858 -23.33044,2.35306 -35.10578,2.97681 z"
         style="-inkscape-font-specification:'Metal Macabre'"
         id="path3455"
         inkscape:original-d="m 622.66978,384.5436 0,0.94488 -5.12936,1.75478 0,0.47244 q 3.30709,0 3.30709,0.94488 l 0,1.34983 -0.94489,1.01238 -1.82227,0 q -10.25872,0 -10.25872,10.93363 l 0,77.34533 q 0,12.89089 7.49157,12.89089 l 1.82227,0.40495 2.76715,0 0.94489,0.94488 0,1.41733 -0.94489,0.8099 -30.84364,0 q -8.8414,9.51631 -29.83127,21.66479 24.83689,-25.51181 28.41395,-35.36558 l 0.47244,0 0.53993,0.47244 0.40495,0 0,-38.20023 -29.83127,0 0,43.66705 q 0,4.18447 4.11698,4.58942 2.22722,0 2.22722,0.94488 l 0,1.41733 -0.87739,0.8099 -37.72778,0 -0.94488,-0.8099 0,-1.41733 0.94488,-0.94488 2.22722,0 q 9.6513,0 9.6513,-11.06861 l 0.60742,-17.00788 0,-45.01687 q 0,-26.25422 -2.76715,-26.25422 -4.18448,-2.22722 -6.54669,-2.22722 l -3.1721,0 -0.94488,-1.01238 0,-1.34983 0.94488,-0.94488 37.18785,0 2.36221,0.53993 0,0.40495 q -0.67492,2.36221 -3.17211,2.36221 -3.71203,5.12936 -3.71203,14.64567 l 0,10.05624 30.3712,0 q -0.40495,-2.76715 -0.94488,-2.76715 l 0.40495,-3.17211 0,-5.53431 q 0,-7.01912 -2.22722,-13.22834 l -4.65692,0 -0.87739,-1.01238 0,-1.34983 q 0,-0.94488 3.64454,-0.94488 l -0.87739,-1.41732 q 0,-0.67492 38.20023,-1.75478 z m -63.44207,39.07761 0,14.24072 29.83127,0 0,-14.24072 -29.83127,0 z"
         inkscape:connector-curvature="0" />
      <path
         d="m 708.71133,296.34822 c 3.00513,-1.08235 6.00098,-2.19855 8.98681,-3.34802 10.87094,-4.18504 22.84998,-4.94301 36.783,-2.58638 1.48697,-0.70623 8.19078,0.0242 21.0178,1.28716 -0.18023,0.0941 -0.36051,0.18814 -0.54085,0.28204 -5.38028,1.60919 -10.76883,3.1175 -16.16113,4.524 -0.10436,0.24942 -0.20897,0.49882 -0.31383,0.7482 l 0.17419,0.36561 c 12.09891,4.52928 21.30034,12.0025 26.98077,23.10641 l 2.64371,5.16784 c 9.25672,18.09472 5.89568,38.46559 -14.09181,59.47139 -4.90474,3.40642 -7.7543,6.96946 -8.49746,10.80919 -5.57876,10.00116 -7.84768,17.07599 -6.19956,21.49558 -0.68268,0.69063 -0.3095,5.82354 0.95594,15.46959 -0.51094,0.186 -1.02215,0.37129 -1.53363,0.55588 -4.52185,-12.52378 -15.21435,-21.73726 -31.12786,-28.8061 -18.86335,0.41554 -33.21734,-4.72576 -42.82338,-14.22156 -6.45932,-6.37939 -10.80961,-14.71031 -13.35969,-24.88307 -2.18499,-9.54983 -1.8431,-18.6076 0.65235,-27.15469 1.1476,-3.92806 2.75552,-7.75531 4.79904,-11.49609 -1.92955,0.31772 -3.85928,0.62194 -5.78903,0.91257 -0.49177,0.16231 -0.98383,0.32373 -1.4762,0.48426 -3.40602,1.12535 -6.83537,2.2093 -10.28682,3.25243 l -0.20215,-0.92275 c 3.29638,-2.44278 6.41252,-4.79013 9.34395,-7.01865 0,0 10e-6,0 10e-6,0 20.1273,-15.20773 31.81117,-24.52178 40.06583,-27.49484 z m -3.98049,46.83511 0.95043,3.02575 c 8.11725,25.84155 17.47575,42.95803 29.20415,51.36138 3.14504,-0.71206 6.28667,-1.45305 9.4244,-2.22277 2.18367,-0.78523 4.36238,-1.58439 6.53597,-2.39739 8.38674,-3.13691 11.62408,-6.97686 9.93939,-11.16727 1.02984,-13.30966 -3.16423,-30.24361 -12.05971,-51.37807 -7.80771,-18.55005 -17.17258,-28.33157 -27.38399,-29.76856 -1.16236,0.25641 -2.32478,0.50793 -3.48722,0.75453 -2.65579,1.0029 -5.31933,1.97997 -7.99013,2.93084 -4.64564,1.65396 -7.61501,6.54081 -9.15816,14.79114 -0.19455,6.7076 1.10446,14.7732 4.02487,24.07042 z m -10.62687,21.29329 0.81195,2.92612 c 2.81065,10.12913 9.14626,18.67687 19.56706,25.16866 l -0.17593,-0.58128 c -12.45941,-15.16295 -18.80739,-24.94404 -19.57294,-27.68864 -0.21001,0.0585 -0.42006,0.1169 -0.63014,0.17514 z m 76.70888,-21.43385 c 1.48085,12.18904 1.59933,22.32232 0.47304,30.35267 l 0.21322,0.49606 c 0.21477,-0.0923 0.42948,-0.18479 0.64414,-0.27739 3.85963,-11.56475 3.54602,-21.52136 -0.24781,-29.80474 l -0.4778,-1.04322 c -0.20154,0.0923 -0.40314,0.18454 -0.60479,0.27662 z m -30.40788,59.83885 0.17691,0.51004 c 4.31426,3.07327 7.66061,4.60291 9.94124,4.63585 0.459,-0.16646 0.91778,-0.33353 1.37633,-0.50119 3.94456,-5.17006 6.02536,-8.94875 6.37596,-11.19052 -2.12317,1.01226 -4.25381,2.01147 -6.3918,2.9975 -2.20064,0.81732 -4.40648,1.62066 -6.61737,2.4099 -1.61947,0.38703 -3.23991,0.76652 -4.86127,1.13842 z"
         style="-inkscape-font-specification:'Metal Macabre'"
         id="path3457"
         inkscape:original-d="m 683.22444,383.66621 8.97638,0 q 16.33296,0 32.05849,12.14848 2.09224,0 16.33296,10.52868 l -0.53993,0 -14.64567,-3.1721 -0.53993,0.53993 0,0.40495 q 12.0135,13.97076 12.0135,32.66592 l 0,5.80427 q 0,30.77616 -29.89877,47.91901 -6.61417,1.82228 -8.97637,6.74916 -9.92126,10.79865 -9.92126,17.81777 -0.94489,0.60743 -3.17211,14.84815 l -1.14735,0 q 0,-19.91001 -14.64567,-37.32284 -33.94826,-13.43082 -34.62318,-52.64342 0,-21.46232 12.55344,-36.24297 l -5.26435,-0.53993 -11.06861,0.94488 0,-0.94488 q 39.1451,-19.50506 52.50843,-19.50506 z m -16.7379,43.12711 0,3.1721 q 0,40.49494 9.44881,57.90776 l 7.28909,1.01238 5.26435,0 q 10.12373,0 10.12373,-6.81665 6.74916,-17.81777 6.74916,-52.10349 0,-30.23622 -12.55343,-37.86277 l -3.2396,-0.53993 -7.82902,0 q -6.81665,0 -12.21597,11.06862 -3.03712,9.51631 -3.03712,24.16198 z m -13.6333,17.41282 0,3.03712 q 0,15.79303 9.38133,29.6288 l 0,-0.60743 q -8.8414,-27.46906 -8.8414,-32.05849 l -0.53993,0 z m 65.06187,6.20922 q -4.52194,17.54781 -9.38133,27.94151 l 0,0.53993 0.53993,0 q 9.38133,-13.63329 9.38133,-27.33408 l 0,-1.14736 -0.53993,0 z m -39.34758,44.27447 0,0.53993 q 3.44207,6.47919 5.80427,7.69404 l 1.07987,0 q 6.07424,-5.26434 7.35658,-8.23397 l -5.26435,0.53993 -5.26434,0 -3.71203,-0.53993 z"
         inkscape:connector-curvature="0" />
      <path
         d="m 852.07772,191.60867 c -1.65775,9.32143 -3.51567,18.65968 -5.59774,28.00479 1.43997,-1.13411 2.87684,-2.27598 4.31063,-3.42545 0.47553,0.0226 0.95137,0.0445 1.42752,0.0659 l 0.5915,0.73725 c 0.3601,0.44884 -1.45032,2.78006 -5.52465,6.88226 -0.18877,1.54764 -0.38339,3.0961 -0.58396,4.64533 0.20438,0.0126 0.40881,0.025 0.61331,0.0374 l 0.33009,0.42739 c -0.31064,0.43998 -0.62186,0.87959 -0.93365,1.31883 1.79022,2.62578 3.57816,5.25319 5.36381,7.8822 l 49.70479,64.81118 c 1.12184,1.46279 2.65056,1.45888 4.57761,-0.035 2.62272,-2.03322 5.40286,-6.43618 8.15076,-13.16913 0.13767,-0.11127 0.2753,-0.22259 0.41289,-0.33397 l 0.38228,0.47235 c -0.20555,10.79492 -0.79185,16.7044 -1.31026,17.4371 -6.38933,4.99961 -12.86314,9.89176 -19.42188,14.66753 -13.71726,9.98827 -33.53116,14.38546 -57.72955,11.54748 -12.01201,-2.94141 -21.75551,-8.10994 -29.38884,-15.1064 0,0 0,0 0,0 -4.84132,-4.44164 -8.83734,-9.61965 -12.08018,-15.47013 -2.67051,-4.81792 -4.5949,-10.32113 -5.87919,-16.48868 -0.55921,-2.70382 -0.99367,-5.53364 -1.31298,-8.48932 l -1.43696,-2.52105 c -1.79775,-3.15404 -3.96965,-4.95156 -6.48486,-5.423 -2.06024,-0.38753 -4.35305,0.12028 -6.91075,1.5072 -0.62314,0.3379 -1.24699,0.67437 -1.87154,1.00942 -0.4612,-0.13556 -0.9219,-0.2718 -1.38211,-0.40874 l -0.44531,-0.83343 c 0.15213,-0.43822 0.30349,-0.87643 0.45407,-1.31465 1.79776,-0.9644 3.58972,-1.94071 5.37568,-2.92878 l -0.22904,-0.41322 c -3.84784,0.86893 -7.69275,1.68414 -11.53283,2.44556 l -0.43766,-0.83749 c 4.33944,-1.7194 8.66258,-3.50871 12.96666,-5.36672 11.36931,-4.87021 22.66797,-10.30436 33.88417,-16.24259 l 0.52254,0.78673 c -3.80521,4.20864 -4.61855,13.23089 -2.96564,27.38382 1.34993,7.59185 2.79257,12.79221 4.53101,15.65472 l 6.16329,10.14852 c 9.38825,15.45877 18.9206,22.52972 28.944,20.7481 4.50573,-0.96179 9.0685,-2.97555 13.62238,-6.04729 3.87869,-2.6163 7.96547,-6.81909 12.11282,-12.60223 l -41.53014,-58.15132 c -2.40737,-3.37086 -5.97,-4.92563 -10.64136,-4.78071 l -0.23181,-0.33189 c 0.30806,-0.2159 0.61598,-0.43218 0.92377,-0.64883 3.60157,-3.16783 7.1702,-6.38899 10.70691,-9.66042 -0.64285,-0.86902 -1.9439,-1.44031 -3.89755,-1.73342 l -0.31949,-0.43521 c 1.97143,-1.4534 3.93732,-2.9223 5.89771,-4.40627 6.21497,-10.09418 12.12353,-20.34823 17.76568,-30.72547 0.1147,-0.0967 0.22938,-0.19339 0.34405,-0.29016 z m 8.66318,131.29152 c -1.61859,0.8863 -3.2403,1.7649 -4.86511,2.63569 13.42507,0.74862 23.0494,-1.0979 28.40284,-4.90631 -0.756,-1.78082 -1.51512,-3.55995 -2.27735,-5.33736 l -4.74518,-6.6443 c -0.18952,0.13542 -0.37911,0.27073 -0.56877,0.40594 -4.10999,4.86257 -9.43265,9.51909 -15.94643,13.84634 z"
         style="-inkscape-font-specification:'Metal Macabre'"
         id="path3459"
         inkscape:original-d="m 847.97456,366.52335 -19.64005,18.15523 4.8594,0 0.94488,0.94488 0,0.94488 q 0,0.8774 -7.55906,1.95726 l -2.90214,3.30709 0.40495,0.40495 0,0.53993 -1.34983,0.47244 -0.47244,9.51631 0,81.66479 q 0,2.76716 2.76716,2.76716 3.77952,0 11.06861,-5.26435 l 0.40495,0 0,0.60743 q -7.964,12.41845 -8.97638,12.8234 l -18.22272,0 q -19.10011,0 -41.50731,-22.4072 -16.67042,-21.39483 -16.67042,-47.2441 0,-11.87851 5.19685,-25.30933 l 0,-2.90214 q 0,-9.92126 -8.90888,-9.92126 l -1.95726,0 -0.94488,-1.01238 0,-0.94488 0.94488,-0.94488 5.66929,0 0,-0.47244 -10.52868,-3.30709 0,-0.94488 47.24409,5.26434 0,0.94489 q -7.42407,2.09223 -15.32058,21.46231 -3.71204,10.73116 -3.71204,15.72554 l 0,11.87851 q 0,27.13161 10.93364,32.93589 5.06186,2.42969 11.47356,2.42969 5.46682,0 13.36333,-3.44207 l 0,-71.47356 q 0,-6.20923 -5.26434,-10.05625 l 0,-0.40495 1.01237,0 12.8234,-1.5523 q 0,-1.6198 -1.88976,-3.71204 l 0,-0.53993 6.61417,0 29.69629,-12.89089 0.40495,0 z m -60.13499,110.21372 -4.25196,-0.47244 q 12.55343,11.94601 20.04499,11.94601 l 0.94488,-5.66929 0,-8.16648 -0.53993,0 q -7.15411,2.3622 -16.19798,2.3622 z"
         inkscape:connector-curvature="0" />
      <path
         d="m 929.05066,120.46636 c -0.47982,8.94453 -1.08481,17.90752 -1.8288,26.88999 l 25.01177,23.63209 c -0.0564,0.5185 -0.11332,1.03707 -0.17068,1.55571 -0.26687,0.28195 -0.5339,0.5637 -0.80107,0.84523 -0.51751,0.41606 -5.02384,-1.73223 -13.42778,-6.54781 -5.08386,-1.32693 -9.01535,-1.7585 -11.82282,-1.26395 0.953,6.94599 1.82909,13.92236 2.62368,20.93018 -0.15525,0.15418 -0.31055,0.30829 -0.4659,0.46232 l -3.99162,-4.023 c -4.95473,-4.99369 -11.37913,-4.7824 -19.33772,0.27743 -1.5338,1.09259 -3.06998,2.17774 -4.60855,3.25533 -0.52799,5.3108 0.95618,9.90923 4.54129,13.76441 3.53929,3.80591 10.34925,3.99951 20.39393,0.13291 11.4673,-1.74627 24.51113,-4.95152 39.04952,-9.8719 11.37892,-1.67511 19.65804,-0.32586 24.81228,4.4657 l 3.45935,3.21593 c 7.90916,7.35266 9.05466,18.969 2.57264,34.77014 -2.75982,4.50213 -5.48097,8.06924 -8.11596,10.694 -2.04101,2.0331 -4.09168,4.05684 -6.15213,6.07098 -0.29746,0.0392 -0.59489,0.0782 -0.89229,0.11703 -0.12881,0.1257 -0.25765,0.25137 -0.38653,0.37701 0.91839,5.39227 -0.57571,14.04619 -4.85889,25.77179 0,0 -10e-6,10e-6 -10e-6,10e-6 -0.65403,1.78977 -1.37435,3.6532 -2.16252,5.58799 -2.59559,6.01913 -5.27912,12.03309 -8.0554,18.03875 0.57599,-3.29282 1.1281,-6.58125 1.65704,-9.86506 -1.17438,2.56281 -2.36529,5.12415 -3.57311,7.68377 -0.32508,0.28569 -0.65041,0.57113 -0.97598,0.85633 4.0732,-11.55715 6.51934,-21.06633 7.59438,-28.23838 0.54004,-3.60587 0.74282,-6.66886 0.6302,-9.17904 l -0.27788,-0.29449 c -0.32756,0.30914 -0.65537,0.61804 -0.98342,0.92669 -1.26593,1.19107 -2.61315,2.36423 -4.04126,3.51783 -2.37143,1.91581 -4.96704,3.77795 -7.78415,5.57756 0.60494,0.66623 0.57445,1.30264 -0.0942,1.90793 -0.31191,0.28235 -0.62406,0.56447 -0.93643,0.84635 -0.5356,0.48333 -1.62252,0.22012 -3.25661,-0.79261 -15.51502,8.23647 -30.45924,10.02202 -44.31223,5.75024 -11.79624,-1.78751 -17.93125,-3.27586 -18.39872,-3.87111 29.38633,-0.13787 49.21782,-4.23051 57.17426,-8.97564 l -16.34309,-18.17083 c 0.10347,-0.48626 0.20642,-0.97245 0.30885,-1.45857 0.2984,-0.26892 0.59661,-0.53807 0.89464,-0.80746 0.64343,-0.58161 4.85585,1.70685 12.73281,6.75999 3.55392,1.13707 6.70083,1.74841 9.43121,1.84261 3.0371,0.10425 5.5583,-0.43088 7.54995,-1.59327 5.4097,-8.25928 7.9052,-18.99388 7.30718,-31.97286 -5.32145,-5.29799 -15.26308,-6.04204 -29.84879,-3.02387 -5.37178,1.17171 -10.45674,2.50845 -15.26583,4.02295 -5.04455,1.58326 -9.78167,3.36316 -14.22596,5.35562 -3.82738,2.33574 -9.47915,4.43475 -16.85597,6.12321 -2.07124,1.35526 -4.14637,2.69761 -6.22528,4.02671 -4.92574,4.12274 -8.77251,10.28356 -11.76944,18.59842 -0.19337,0.15212 -0.3868,0.30412 -0.58031,0.456 l -0.33308,-0.42512 c 2.35699,-12.00736 2.49237,-20.95016 0.87842,-26.63782 2.45901,-19.99451 6.91081,-34.68853 14.4431,-44.81181 1.52384,-2.0488 3.16796,-3.9068 4.93844,-5.57779 0.77523,-0.51517 1.54996,-1.03229 2.32419,-1.55136 1.63058,-2.01642 3.25169,-4.04268 4.86356,-6.07856 0.50892,-0.4943 1.01731,-0.98951 1.52518,-1.48562 2.1531,-2.10322 5.9495,-4.73321 11.4349,-8.04291 -1.53165,-0.20946 -3.06124,-0.42332 -4.58874,-0.64161 l -0.28703,-0.28543 c 1.83895,-1.84861 3.67119,-3.70898 5.49685,-5.58085 4.92452,-11.13665 9.60263,-22.36844 14.06904,-33.68545 0.10587,-0.11762 0.21171,-0.23527 0.31754,-0.35296 z m -48.84149,94.10081 c 8.36499,-1.85976 13.36766,-3.61554 14.82478,-4.91808 -2.69488,-3.80959 -4.07221,-8.46123 -4.20613,-13.92915 l -0.27293,-0.29927 c -5.1149,4.64318 -8.50801,10.9753 -10.34572,19.1465 z m 98.42956,-1.78695 c 1.39669,-0.30987 2.79391,-0.62361 4.19166,-0.94118 l -0.72925,-0.70168 c -1.76598,-0.88914 -3.52989,-1.78119 -5.2917,-2.67618 -0.56387,0.58396 0.0466,2.0223 1.82929,4.31904 z"
         style="-inkscape-font-specification:'Metal Macabre'"
         id="path3461"
         inkscape:original-d="m 939.66291,369.2905 -17.81778,16.8729 0,34.42069 -1.01237,0.94489 -0.94488,0 q -0.8099,-0.13499 -3.71204,-14.24073 -3.1721,-6.88413 -6.07424,-9.38132 l -10.79865,16.60292 -0.53993,0 0,-5.66929 q 0,-10.52868 -11.74353,-13.29584 l -4.72441,-0.8099 q -5.12936,5.26435 -5.12936,13.16086 0,7.82902 12.14848,14.10574 11.60855,10.05624 27.80652,20.71991 10.79865,10.59617 10.79865,21.12486 l 0,4.72441 q 0,16.26546 -17.81777,25.84926 -5.80427,1.75478 -9.98875,1.75478 l -6.47919,0 -0.53993,-0.53993 -0.40495,0 q -4.0495,7.82902 -19.77503,17.95276 l -13.16086,8.03149 5.6693,-6.27671 -5.6693,3.37458 -0.94488,0 q 17.54781,-13.56581 23.08212,-22.13724 l 0,-0.40495 -1.01238,0 q -5.19685,0 -11.1361,-1.34983 0,1.34983 -1.01238,1.34983 l -0.94488,0 q -0.8099,0 -1.41732,-2.76715 -19.16761,-6.34421 -28.54893,-24.43195 -9.38133,-13.29583 -9.38133,-14.51068 27.73903,27.1991 38.4027,29.96625 l 0,-24.43194 0.94488,-0.87739 0.94488,0 q 1.01238,0 3.77953,13.5658 4.52194,10.25872 9.38133,11.74353 10.93363,-3.44207 21.12486,-17.81777 0,-11.2036 -15.05062,-23.08212 -11.47357,-8.84139 -22.54218,-13.16085 -5.39933,-1.21485 -13.70079,-6.47919 l -6.07424,-0.94488 q -7.96401,0 -17.21035,7.01912 l -0.60743,0 0,-0.53993 q 11.47357,-12.0135 14.51069,-20.17998 22.27222,-24.90439 40.89989,-24.90439 l 2.3622,0.47244 6.61418,-1.01237 1.82227,0 q 3.84702,0 11.74353,2.36221 l -2.3622,-3.71204 0,-0.40495 6.68166,0 29.15636,-12.75591 0.40495,0 z m -85.98426,32.93589 q 9.6513,6.07424 12.14849,6.07424 0.67491,-6.95163 5.26434,-13.16086 l 0,-0.40495 q -8.8414,0 -17.41283,7.49157 z m 58.71766,66.34421 2.76716,2.3622 0,-1.01237 -1.34983,-5.66929 q -0.94488,0 -1.41733,4.31946 z"
         inkscape:connector-curvature="0" />
      <path
         d="m 1000.3532,54.104577 c 2.5063,14.202456 6.4517,23.565492 12.1619,27.974419 l 2.832,2.186657 c 0.012,0.75627 0.024,1.512743 0.035,2.269419 1.0529,1.02907 2.1055,2.058575 3.1577,3.088515 -0.2079,0.267882 -0.4159,0.535661 -0.624,0.803336 -12.2014,-6.966939 -19.95192,-8.326923 -23.31431,-4.077886 -0.42527,-0.336247 -1.80296,0.906664 -4.15104,3.703368 -3.64072,4.560039 -7.30486,9.083947 -10.99389,13.569115 -0.31047,10.36855 1.13371,17.83635 4.53856,22.39592 0.45637,-0.0522 0.91283,-0.10473 1.36938,-0.15761 7.62418,-9.04723 15.1329,-18.25299 22.5381,-27.59612 0.2281,-0.07041 0.4562,-0.140899 0.6844,-0.211482 0.1047,-0.132322 0.2095,-0.264672 0.3142,-0.397049 3.0013,8.544311 5.9553,16.001271 8.925,22.362541 0.1614,-0.20009 0.3227,-0.40023 0.484,-0.60044 3.1567,-3.91847 3.4237,-8.27872 0.8128,-13.02765 -3.3885,-2.97151 -4.8023,-4.8112 -4.2418,-5.52099 0.3156,-0.39968 0.631,-0.79959 0.9462,-1.199748 0.5103,-0.138589 1.0206,-0.277599 1.531,-0.417027 l 27.2907,21.435815 c -0.022,0.53796 -0.044,1.07601 -0.067,1.61417 -0.3244,0.41194 -0.649,0.82367 -0.9738,1.23518 -0.4323,0.54766 -3.6284,-0.67102 -9.5681,-3.68502 -4.5097,-0.54955 -8.9478,1.93762 -13.3976,7.41849 -5.3744,6.6197 -10.8096,13.1721 -16.3098,19.64993 l 0.6173,0.52458 c 6.6503,5.65143 19.7527,7.87253 39.3279,5.75439 11.2724,-2.97438 17.9029,-5.8144 19.7784,-8.17548 4.932,-6.20876 4.5553,-16.30961 -1.2968,-30.05001 0.59,-0.76909 1.1792,-1.53884 1.7677,-2.30924 0.2143,-0.0581 0.4286,-0.11635 0.6429,-0.17462 0.107,-0.14018 0.214,-0.28037 0.3209,-0.42059 4.8932,7.57184 9.746,15.18247 14.5557,22.83301 3.0645,-1.86834 6.1248,-3.75143 9.1804,-5.64862 l 0.7519,0.57243 c -6.1095,5.61265 -12.2629,11.16525 -18.4602,16.6505 -15.7794,19.97522 -32.1516,39.50253 -49.2122,58.41156 -0.4747,0.056 -0.9493,0.11164 -1.4238,0.16691 l -0.9511,-0.85986 c 0.01,-0.47733 0.014,-0.95456 0.02,-1.43167 0.9605,-1.06461 1.9188,-2.1312 2.8749,-3.19975 4.8735,-5.44645 4.3321,-10.74228 -1.4806,-15.83797 -3.8707,-3.70764 -7.7437,-7.41272 -11.6192,-11.11524 l -5.2815,-4.6239 c -11.47056,-2.34634 -21.76689,-7.76389 -31.04386,-16.0226 -3.87233,-3.44729 -7.03189,-9.70855 -9.66175,-18.73842 -3.46463,-2.59909 -5.96392,-3.81087 -7.49394,-3.63603 0.0104,0.22679 0.0207,0.4536 0.0309,0.68043 -0.10791,0.12269 -0.21585,0.24535 -0.32381,0.36797 -2.36829,2.68996 -12.0705,7.87065 -28.57929,14.19409 -0.2735,0.29124 -0.54715,0.58224 -0.82094,0.87299 l -0.63806,-0.60185 c 8.67658,-7.24568 17.27369,-14.72807 25.79634,-22.42257 15.05069,-17.20941 29.67666,-35.131406 43.97227,-53.598015 1.0733,-1.386462 2.67702,-6.396777 4.66984,-14.978278 z m -10.98964,80.094833 10.23684,8.69925 c 5.9658,-7.02709 11.8564,-14.14407 17.677,-21.34149 l -6.667,-5.3924 c -2.3804,-1.92536 -5.0374,-2.14255 -7.9698,-0.68054 -2.81274,3.45191 -5.64115,6.88366 -8.48584,10.29415 -4.06642,4.87524 -5.68784,7.65907 -4.7912,8.42103 z m 39.09544,33.22329 0.3087,0.26228 c 6.8232,5.79835 11.2753,7.48249 13.3551,5.0141 2.7339,-3.03506 5.4523,-6.0853 8.1558,-9.14996 1.7455,-2.11574 3.4838,-4.2375 5.2151,-6.36508 l -0.3143,-0.25569 c -4.7497,3.63539 -13.4787,7.18846 -26.0115,10.28523 l -0.3087,-0.26212 c -0.1334,0.15712 -0.2667,0.3142 -0.4002,0.47124 z"
         style="-inkscape-font-specification:'Metal Macabre'"
         id="path3463"
         inkscape:original-d="m 1020.0638,382.31638 q -12.0135,15.86051 -12.0135,26.65916 l 0,3.57706 -1.4173,1.41732 -0.405,4.38695 -0.8099,0 q -2.3622,-20.85489 -8.97633,-20.85489 0,-0.8099 -4.45444,-0.94488 l -14.24072,0 q -10.05625,9.51631 -11.60855,17.81777 l 0.8099,0.94488 28.61642,0 0.47244,0.40495 0.40495,0 q -5.80427,11.47357 -9.44882,20.92239 l 0.60742,0 q 5.93926,0 8.43645,-7.49157 0.26997,-6.74915 1.34983,-6.74915 l 1.21485,0 1.01237,0.94488 0,34.69066 -1.01237,0.94488 -1.21485,0 q -0.8099,0 -2.3622,-9.78627 -2.76716,-5.80428 -11.06862,-5.80428 l -20.04499,0 0,0.8099 q 0,13.16086 16.06299,33.88077 10.79865,10.25871 14.24072,10.25871 8.97635,0 17.41285,-19.50506 l 2.2272,0 0.4049,0.40495 0.405,0 -7.0191,25.44432 7.559,3.84702 0,0.94488 -18.35768,-4.38695 -57.36783,0 -0.8099,-0.94488 0,-1.28234 0.8099,-0.94488 3.23959,0 q 8.23398,0 8.23398,-11.60855 l 0.53993,-16.06299 0,-7.01913 q -6.74916,-15.25309 -6.74916,-33.88076 0,-7.76153 6.20923,-19.64005 -0.40495,-6.47919 -1.82228,-8.03149 l -0.40495,0.47244 -0.40495,0 q -4.58942,0 -24.83689,-11.60855 l -1.01237,0 0,-0.87739 28.48144,4.04949 57.09784,0 q 2.1597,0 12.0135,-5.39932 z m -56.15296,41.43982 0,13.43082 21.86726,0 0,-8.57143 q 0,-4.58943 -3.57705,-6.61417 l -10.66367,0 q -7.62654,0 -7.62654,1.75478 z m 0,51.29359 0,0.40494 q 0,13.43083 3.64454,13.43083 l 9.24634,0.40495 6.20923,0 0,-0.40495 q -6.61417,-2.09224 -18.62767,-13.43083 l 0,-0.40494 -0.47244,0 z"
         inkscape:connector-curvature="0" />
    </g>
  </g>
  <g
     inkscape:label="linked bakehouse  path"
     inkscape:groupmode="layer"
     id="layer1"
     transform="translate(0,-242.3622)"
     style="display:none"
     sodipodi:insensitive="true">
    <circle
       id="path4262"
       style="fill:#000000"
       cx="0"
       cy="1052.3622"
       r="1.5041338" />
    <circle
       id="path4264"
       style="fill:#000000"
       cx="0"
       cy="1052.3622"
       r="1.5041338" />
    <path
       transform="translate(0,308.26772)"
       style="color:#000000;solid-opacity:1;fill:#000000;stroke-width:1.00275588;stroke-miterlimit:0"
       d="M 28.518697,119.04894 C 242.30453,339.09448 340.64265,426.2905 540.00839,429.16673 749.4253,432.18796 920.49151,339.09448 1086.4588,119.04894"
       id="path3475"
       inkscape:connector-curvature="0"
       sodipodi:nodetypes="cac" />
  </g>
  <g
     inkscape:groupmode="layer"
     id="layer2"
     inkscape:label="top"
     transform="translate(0,65.905518)"
     sodipodi:insensitive="true">
    <g
       style="color:#000000;font-size:354.33071899px;letter-spacing:0px;word-spacing:0px;solid-opacity:1;fill:#000000;stroke:#ffffff;stroke-width:1.00275588;stroke-miterlimit:0"
       id="text4137"
       inkscape:path-effect="#path-effect4454"
       transform="translate(-5.183036,-432.27811)">
      <path
         d="m 108.02976,544.60692 c 33.61448,-38.71521 55.8335,-50.75003 56.31707,-50.24058 9.80121,-5.38784 22.67459,-6.65069 37.91272,-3.31621 0.90096,-0.62493 3.73952,-0.56413 8.42333,0.30235 -0.25458,0.20301 -0.50895,0.40634 -0.76311,0.60999 -3.79871,0.93907 -7.60378,1.93998 -11.41323,3.00438 -7.89288,6.6604 -22.42027,25.25078 -35.99886,54.90706 l 0.4595,0.39739 c 15.76587,-13.68377 30.27472,-21.01858 41.68089,-23.19434 16.13864,-1.65743 29.18643,1.93339 39.18225,9.34092 l 1.36286,1.67599 c 5.58114,6.86345 6.10045,19.45205 4.36262,37.90698 0.87264,0.95068 8.51983,-2.29951 23.62295,-7.79209 1.9538,-0.70921 4.03729,-1.45444 6.239,-2.22366 9.74635,-3.10184 19.53174,-5.71999 29.32149,-7.88967 1.80769,-0.0738 3.61178,-0.13287 5.41211,-0.17743 -0.0876,0.2678 -0.17481,0.53558 -0.26162,0.80335 -15.1169,4.65743 -27.75519,9.49331 -37.55157,13.43667 -14.67134,5.91895 -23.10084,9.73154 -27.31241,10.43116 -5.11653,25.58185 -8.79526,58.83999 -10.39493,67.94377 -1.64856,-24.12083 -0.14807,-48.51934 0.40656,-65.21266 -22.73193,5.37985 -47.34749,11.14654 -73.24002,18.2106 -6.66442,1.25936 -13.3613,2.75206 -20.08195,4.49036 -0.58986,1.96819 -1.16052,3.9382 -1.71176,5.9097 1.259,0.43489 2.51659,0.87272 3.77277,1.31347 6.30189,3.43322 12.59372,6.88365 18.87545,10.35119 0.13012,-0.21521 0.2605,-0.43027 0.39114,-0.64515 3.44246,-5.6623 2.46889,-11.79822 -3.06157,-18.74025 0.3096,-0.46165 0.62035,-0.9225 0.93224,-1.38253 l 34.26013,23.23338 c -0.27288,0.40209 -0.54467,0.80481 -0.81537,1.20816 -8.64225,-2.28704 -13.81165,-2.07913 -15.30143,0.29163 -0.94827,1.1289 -1.88861,2.26592 -2.82083,3.41107 5.7282,4.0767 11.47685,8.12289 17.24587,12.13832 8.91754,-4.17007 17.91899,-7.7396 26.94886,-10.7607 -0.24831,0.3397 -0.49574,0.67988 -0.74226,1.02054 -16.16323,8.57128 -25.65664,17.33844 -28.66627,22.99982 -0.24703,0.46468 -0.49248,0.93006 -0.73636,1.39613 -0.37175,0.70517 -0.74011,1.41219 -1.10506,2.12104 -4.55307,8.84359 -7.93232,20.36804 -9.08896,33.92024 l -1.08494,-0.3741 c -1.66262,-12.07051 -2.32613,-19.22079 -3.70775,-22.24067 -3.53344,-3.05865 -6.94283,-5.37864 -10.31956,-6.8845 l -5.05599,-2.25473 c -2.38693,5.35429 -4.59978,10.78632 -6.63242,16.28324 2.61463,2.01308 5.24625,3.99549 7.89433,5.94689 -0.15456,0.43235 -0.30797,0.86508 -0.46023,1.29821 l -24.01304,-8.43266 c 1.93658,7.79672 4.20138,15.37569 6.77023,22.70546 4.47652,19.92789 12.8211,32.14864 21.56064,37.76551 -0.17698,1.30505 6.79595,7.38061 21.71357,15.34203 7.4457,4.24457 15.03091,8.06131 22.72894,11.42979 1.27182,0.87712 2.55119,1.73423 3.83781,2.57105 -0.17901,0.18218 -0.3577,0.3649 -0.53607,0.54815 -33.91308,-9.86779 -52.4415,-22.96814 -55.62082,-28.95779 -1.51856,-0.19235 -15.16926,-14.98813 -26.72825,-51.16243 -2.98697,-10.21167 -5.07463,-23.89393 -4.85854,-40.65318 -10.21582,-4.22157 -20.44471,-8.41285 -30.686532,-12.5738 4.545082,-13.48146 5.715762,-21.02403 1.869652,-23.02234 -4.180118,-2.17184 -8.806321,1.16694 -13.179705,10.54471 -1.154155,3.75265 -2.242217,7.51684 -3.264253,11.29053 l -0.496861,-0.21177 c -3.11871,12.9361 -5.463822,25.94295 -7.044691,38.93855 l -1.034458,-0.31005 c -3.786594,-24.89437 -2.023631,-50.04074 4.913671,-73.70379 5.939816,-20.09418 15.273049,-38.7247 27.373027,-55.0827 z m 8.01874,53.66535 c 2.17711,1.29352 12.99406,-1.43441 33.7636,-4.68782 12.7716,-0.017 27.52655,-2.45144 44.51656,-5.97085 4.39423,-1.73069 10.99755,-2.90228 19.57846,-3.13452 10.02794,-1.17747 18.21823,-2.501 24.95136,-4.3934 0.49036,-11.10203 -0.31748,-18.36747 -3.45265,-21.81296 -11.71377,-12.87322 -43.90668,-12.68646 -87.02749,23.82684 -2.14087,2.3708 -4.25522,4.77544 -6.34193,7.21398 l -0.44639,-0.30272 c -1.06018,-4.77721 3.70938,-26.84786 21.89813,-60.03426 -1.38111,-5.46524 -2.53564,-8.72979 -3.65361,-9.80138 -10.45166,0.7678 -18.90377,4.8571 -24.89816,11.95447 -2.80365,3.0406 -5.56862,6.12979 -8.29316,9.26732 -17.27382,21.72499 -21.35908,39.81558 -15.3111,50.68118 1.55354,2.41667 3.12569,4.81483 4.71638,7.19412 z m 24.38901,76.64618 c 1.40112,-1.14142 2.809,-2.26434 4.2232,-3.36874 1.76121,-4.57197 3.64105,-9.0985 5.63649,-13.5732 l -10.60528,-4.72945 c -0.92969,9.56738 -0.48564,16.87146 0.74559,21.67139 z"
         style="-inkscape-font-specification:'Metal Macabre'"
         id="path4440"
         inkscape:original-d="m 251.40922,44.948568 q 42.58718,6.006749 42.58718,8.908887 9.38133,4.251968 18.22272,22.609674 1.01237,0.134983 3.91451,5.534308 l -0.60742,0 -6.61418,-4.926884 q -10.05624,0 -39.82002,13.768279 l 0,0.607424 q 19.50506,4.521935 29.29134,13.768274 12.75591,14.51069 16.06299,32.66592 l 0,2.15973 q 0,13.02587 -16.06299,31.51856 0,1.95726 23.28459,11.60855 l 23.2171,10.52869 3.84702,2.76715 -0.53993,0.53993 q -47.04163,-15.38807 -53.6558,-20.98987 -30.84364,27.46906 -49.74128,36.98537 27.33408,-23.75703 42.58718,-41.97975 -23.55456,-18.49269 -44.8144,-44.74691 l -9.92126,-14.3757 -3.91451,1.6198 0.53993,3.91451 0.60742,21.52981 0.53994,0 q 7.1541,0 9.92126,-12.68842 l 1.14735,0 0,41.43982 -1.14735,0 q -3.44207,-12.68841 -6.61418,-12.68841 l -3.30708,-0.60742 -1.14736,21.05736 19.91001,16.53544 -1.07986,0 Q 226.97728,179.8642 218.8108,179.8642 l -3.30709,0 q -12.48594,0 -29.35883,4.99438 l 0,-1.14736 q 13.5658,-8.09898 16.06299,-11.54105 1.68729,-6.68167 1.68729,-12.21598 l 0,-5.5343 -13.29584,0 -2.22722,9.44881 -1.07986,0 0,-25.44432 -14.37571,13.22835 q -20.31496,14.3757 -25.98425,28.75141 -1.88976,0 -11.60855,23.2171 l -10.46119,23.21709 -2.76715,3.84702 -0.60743,-0.53993 q 16.46794,-51.09111 23.82452,-57.43532 0,-4.04949 33.67829,-37.05287 9.51631,-8.84139 24.90439,-18.83015 l -0.60742,-33.138354 q 12.7559,-1.957255 12.7559,-8.301462 0,-7.154106 -8.84139,-7.154106 l -6.68167,1.619797 0,-0.539932 -22.60967,6.614173 0,-1.079865 Q 214.7613,44.948568 251.40922,44.948568 Z m -23.2171,36.512936 q 0,3.307087 13.83577,25.984256 7.01913,15.79302 21.52981,32.05849 4.45445,3.44207 11.06862,12.75591 8.43645,9.92126 15.52306,14.91563 9.38133,-11.33858 9.38133,-18.22272 0,-28.75141 -51.96851,-49.268843 l -6.07424,-1.079865 0,-0.539933 q 3.71204,-6.209224 37.5928,-20.449944 2.76716,-7.086614 2.76716,-9.381327 -6.95163,-10.528684 -14.98313,-10.528684 l -7.15411,-0.539933 q -23.75703,0 -29.29133,16.535434 l -2.22723,7.761529 z m -38.13273,55.275596 3.30709,2.76715 10.52868,0 0,-11.60855 q -9.44882,4.58943 -13.83577,8.8414 z"
         inkscape:connector-curvature="0" />
      <path
         d="m 215.93349,471.6276 c 19.25616,-14.32778 39.44192,-27.11459 60.31901,-38.36596 l 0.1917,0.35671 c -4.26113,5.33772 -8.38571,10.73489 -12.36915,16.18505 -0.12703,0.7794 -0.25208,1.55852 -0.37515,2.33736 3.45779,-2.04956 6.93822,-4.05452 10.44008,-6.01492 0.62256,0.0124 1.24459,0.0261 1.86611,0.0411 l 0.39253,0.70835 c -0.31544,0.53547 -0.62959,1.07123 -0.94246,1.60726 -1.1816,0.66141 -2.36072,1.32792 -3.53734,1.99952 -5.77267,3.29499 -7.89214,6.1958 -6.51717,8.49791 1.1293,2.44301 2.26282,4.88376 3.40056,7.32223 l 35.80924,59.71201 c 3.64959,-0.82255 6.66432,-1.89229 9.07856,-3.26113 0.82121,-0.46561 1.64421,-0.9284 2.46898,-1.38836 0.55114,0.079 1.1017,0.15915 1.65168,0.24047 l 0.39253,0.70834 c -0.233,0.48885 -0.4647,0.9778 -0.69512,1.46686 -3.55808,1.98398 -7.0828,4.02079 -10.5718,6.11048 0.73285,0.76692 1.46424,1.53499 2.19416,2.30419 l 0.48434,0.81092 c 9.60111,-1.49422 14.57729,-2.12836 15.58305,-2.67707 l 0.38851,0.71061 c -13.92179,7.59478 -27.32194,16.00245 -40.05144,25.22646 l -0.47458,-0.65577 c 4.2616,-3.08794 5.56664,-7.78137 3.91739,-14.27458 -3.81587,2.5857 -7.58032,5.23985 -11.2899,7.96252 -0.51483,-0.0126 -1.03007,-0.0241 -1.54572,-0.0345 l -0.4808,-0.65128 c 0.12907,-0.51484 0.25949,-1.0298 0.39123,-1.54486 0.92256,-0.67705 1.84846,-1.34988 2.77765,-2.01849 6.20791,-4.46702 7.84353,-9.01368 4.5361,-13.92358 l -30.9391,-45.9292 c -6.47992,-9.61947 -10.85853,-13.6757 -13.17587,-12.08424 -3.21806,0.7375 -6.45346,2.25851 -9.65882,4.5673 -0.96155,0.6926 -1.92076,1.38905 -2.8776,2.08935 -0.59206,0.0432 -1.18454,0.0877 -1.77744,0.13355 l -0.48079,-0.65129 c 0.21967,-0.5529 0.44061,-1.10572 0.66283,-1.65846 3.99599,-2.92442 8.03287,-5.78196 12.10839,-8.57267 -1.91009,-0.38568 -9.12252,0.3267 -21.05235,2.93219 z"
         style="-inkscape-font-specification:'Metal Macabre'"
         id="path4442"
         inkscape:original-d="m 326.1208,69.582989 43.80203,0 0,0.404949 -11.60855,8.031497 -0.94488,1.822272 7.55905,0 1.01238,0.944882 0,0.809899 -1.01238,0.944881 -2.56468,0 q -6.27671,0 -6.27671,4.049494 l -0.53993,8.031496 0,69.651291 q 4.04949,1.75478 7.22159,1.75478 l 2.15973,0 1.01238,1.01238 0,0.8099 -1.01238,0.94488 -9.38132,0 0.53993,3.10461 0,0.94488 q 10.3937,5.39933 11.60855,5.39933 l 0,0.8099 -37.45782,0 0,-0.8099 q 6.27671,0 8.90889,-9.44882 l -10.66367,0 -0.94488,-0.94488 0,-0.8099 0.94488,-1.01238 2.63217,0 q 8.84139,0 8.84139,-8.84139 l 0,-55.41057 q 0,-17.412828 -2.63217,-17.412828 -2.90213,-1.822273 -6.61417,-1.822273 l -2.22722,0 -0.94488,-0.944881 0,-0.809899 0.94488,-0.944882 9.24634,0 q -1.34983,-2.227222 -11.60855,-9.853769 l 0,-0.404949 z"
         inkscape:connector-curvature="0" />
      <path
         d="m 388.60203,383.05156 c 2.20514,0.64246 4.40029,1.29813 6.58538,1.9668 15.31522,-3.94009 30.7633,-7.2298 46.29557,-9.87716 0.63144,0.28033 1.26186,0.56172 1.89126,0.84415 l 0.15545,0.932 c 0.1208,0.72423 -2.99481,2.09174 -9.26649,4.30545 -5.18339,0.95967 -13.10917,14.82194 -20.46625,41.51031 2.64249,11.0302 -8.12262,36.20805 -19.85015,86.85066 -0.25155,1.08725 -0.50254,2.18441 -0.75265,3.2912 -3.47731,13.74903 -4.46798,21.49241 -4.08996,22.50156 -0.35066,0.13198 -0.70111,0.26442 -1.05134,0.39732 -2.81889,-10.41317 -5.55643,-20.85215 -8.21271,-31.31558 -22.08737,-22.31357 -42.4265,-42.3031 -66.24486,-65.92202 -5.26571,-3.10143 -10.61318,-6.12386 -16.04161,-9.06312 -9.11274,9.54662 -13.74842,14.66817 -15.33305,15.52302 3.66656,-5.35221 7.46827,-10.66245 11.40127,-15.92435 -2.24024,-0.0687 -7.84374,1.31205 -16.45111,4.46219 l -0.70114,-1.30892 c 0.33525,-0.61425 0.67208,-1.22821 1.01049,-1.84187 19.61332,-10.44875 39.82213,-19.55235 60.43246,-27.3153 0.61138,0.17858 1.22196,0.35825 1.83173,0.53901 l 0.33159,0.88521 c -4.27435,2.72495 -8.50084,5.50799 -12.67719,8.34754 15.29067,17.69237 27.58982,29.90233 37.59851,36.31668 3.94743,3.0726 7.83601,6.18896 11.66532,9.34672 4.76906,3.93248 9.44655,7.92985 14.03236,11.989 1.35961,-0.42971 3.57176,-13.88022 10.4127,-40.84724 l -2.15131,-8.01534 c -6.87095,-13.88555 -14.67373,-19.67064 -23.10424,-17.11043 -2.1464,0.46377 -4.29169,0.94097 -6.43575,1.43166 -0.20222,0.0641 -0.4044,0.12828 -0.60656,0.19261 -2.58283,0.82182 -5.47234,2.0235 -8.64029,3.61719 -2.77931,1.39524 -5.77999,3.097 -8.97456,5.11339 l -0.1829,-0.50817 c 2.44977,-3.09333 5.02672,-6.04181 7.72434,-8.84056 8.77457,-9.1159 18.81165,-16.65672 29.86569,-22.47361 z m 11.69097,4.98894 0.13051,0.52377 c 5.69246,4.82587 8.80671,8.78055 9.48612,11.65059 1.83095,-1.03347 2.49727,-4.21102 2.00448,-9.54298 -3.06188,-2.896 -6.95918,-3.79369 -11.62111,-2.63138 z"
         style="-inkscape-font-specification:'Metal Macabre'"
         id="path4444"
         inkscape:original-d="m 446.00006,64.048681 3.64455,3.577053 29.5613,0 1.07987,1.147356 0,0.944882 q 0,1.079865 -6.20923,2.632171 -5.12936,0 -18.62767,36.377957 0,14.51068 -32.8009,80.92238 -9.38133,17.95276 -9.38133,19.77503 l -0.94488,0 2.63217,-32.19348 Q 400.44326,136.19716 389.50962,90.977815 l -6.74915,-15.050619 q -11.47357,6.816648 -13.02588,6.816648 l 10.93364,-8.908886 q -1.88977,-1.619798 -10.32621,-3.577053 l 0,-1.484815 1.07986,-1.147356 40.89989,0 0.94488,1.147356 0,0.944882 -9.24634,3.172104 q 7.01912,33.205854 14.51068,47.311584 l 12.41845,28.41395 q 1.28234,0 15.05062,-36.31046 l 0,-8.30146 Q 442.96294,81.191538 434.59399,81.191538 l -4.18448,-0.539932 -0.40495,0 q -4.85939,0 -12.41845,2.632171 l 0,-0.539933 q 13.6333,-13.295838 28.41395,-18.695163 z m 6.27672,7.76153 0,0.539932 q 4.11698,9.111361 4.11698,13.565805 1.95726,-0.877391 2.63217,-8.841395 -2.22722,-5.264342 -6.74915,-5.264342 z"
         inkscape:connector-curvature="0" />
      <path
         d="m 584.70067,366.85761 c -13.44796,9.60654 -19.87962,18.44315 -20.17373,25.56184 l -0.1477,3.57498 c -0.73293,0.44287 -1.46415,0.88711 -2.19367,1.33272 -0.2584,1.45406 -0.51528,2.90828 -0.77064,4.36265 -0.40367,-0.0147 -0.80734,-0.0289 -1.21102,-0.0428 -1.87393,-13.97303 -6.31666,-21.08565 -13.1816,-21.15971 0.006,-0.53335 -2.29063,-0.89297 -6.89595,-0.97948 0,0 -0.1264,1.1e-4 -0.1264,1.1e-4 -7.34787,-0.006 -14.69933,0.12815 -22.04901,0.40327 -10.18923,6.72447 -15.67112,13.14584 -16.84311,18.74172 0.42879,0.28619 0.85691,0.57288 1.28436,0.86006 12.52494,-0.83698 25.07062,-1.24951 37.60776,-1.2424 1.83241,-0.001 3.66507,0.006 5.4979,0.0222 0.23541,0.13706 0.47067,0.27426 0.70577,0.41161 0.20273,0.002 0.40546,0.004 0.6082,0.006 -2.50207,3.21676 -4.76987,6.33336 -6.81187,9.3352 -2.7773,4.07098 -5.1453,7.94622 -7.12572,11.59682 0.29369,-0.004 0.58737,-0.007 0.88105,-0.0106 2.3634,-0.0265 4.44061,-0.45754 6.24467,-1.30298 2.57416,-1.20971 4.59379,-3.26907 6.06241,-6.19341 0.31144,-4.49672 1.00401,-6.7403 2.07533,-6.72579 0.60131,0.008 1.20264,0.0172 1.80397,0.0272 0.49574,0.32331 0.99066,0.64727 1.48477,0.97188 l -0.68173,34.68976 c -0.47656,0.30568 -0.95231,0.61198 -1.42725,0.9189 -0.56348,-0.01 -1.12698,-0.0184 -1.69048,-0.0263 -0.75447,-0.0106 -1.79531,-3.28669 -3.2095,-9.82294 -1.03795,-1.56358 -2.50993,-2.81542 -4.41752,-3.74545 -2.83731,-1.38316 -6.64762,-2.05692 -11.38809,-1.95711 -9.5709,0.20151 -19.13881,0.65956 -28.68854,1.37665 l 0.0606,0.80784 c 0.6664,8.87573 9.18392,19.24103 24.02738,32.64589 7.31082,4.84053 12.47137,7.95881 15.9886,9.29587 1.23706,0.47041 2.24826,0.71001 3.04034,0.71515 7.87905,0.0511 15.56325,-6.22709 23.8971,-18.83282 1.01307,0.0513 2.02597,0.10546 3.03868,0.16254 0.17654,0.14519 0.35292,0.29047 0.52916,0.43584 0.18398,0.0106 0.36795,0.0212 0.55191,0.032 -3.6836,8.28322 -7.21521,16.60414 -10.59541,24.95778 3.22097,1.41436 6.41499,2.85923 9.58108,4.33396 l -0.0565,0.94349 c -7.77282,-1.9311 -15.63203,-3.68187 -23.56509,-5.2494 -2.14012,-0.0283 -4.28063,-0.0433 -6.42131,-0.0451 -22.63219,0.0158 -45.25366,1.58886 -67.59284,4.76399 -0.38954,-0.26279 -0.77971,-0.52509 -1.1705,-0.78691 l -0.18377,-1.2692 c 0.30147,-0.3618 0.6037,-0.72331 0.9067,-1.08454 1.38973,-0.19757 2.78053,-0.38898 4.17234,-0.57424 7.03316,-0.93615 10.20787,-5.12105 9.35516,-12.83416 -0.35006,-5.34931 -0.69226,-10.69934 -1.02661,-16.05007 l -0.76117,-6.9792 c -7.33306,-9.41387 -12.07535,-20.18965 -13.64897,-32.50511 -0.65246,-5.10626 1.55383,-12.05876 7.01759,-20.62021 -0.88868,-4.24961 -2.12491,-6.80399 -3.71415,-7.66343 -0.19161,0.18078 -0.38303,0.36165 -0.57427,0.54262 -0.2095,0.0245 -0.41898,0.0492 -0.62846,0.0739 -5.19517,0.61395 -17.5275,-1.86272 -40.54217,-5.52802 -0.53006,0.10001 -1.06,0.20077 -1.58983,0.30229 l -0.16464,-0.8617 c 15.18195,-1.5348 30.34758,-2.45053 45.45552,-2.76757 21.51031,-2.38542 43.11682,-3.5575 64.69007,-3.53754 8.46364,-0.009 16.93443,0.15844 25.40483,0.50532 2.35546,0.0965 8.53709,-1.4606 19.29588,-4.31426 z m -86.24817,41.39484 1.00583,13.39671 c 10.5398,-0.79149 21.10057,-1.27071 31.66262,-1.44092 l -0.13975,-8.57129 c -0.0498,-3.05672 -1.84493,-5.24324 -5.43573,-6.50345 -5.29426,0.13538 -10.58783,0.34669 -15.87843,0.6343 -7.57446,0.41177 -11.30068,1.33732 -11.21454,2.48465 z m 3.84135,51.16331 0.0303,0.40391 c 0.67083,8.93482 2.61464,13.26841 5.77031,13.06256 4.03971,-0.12822 8.08021,-0.20643 12.12002,-0.235 2.70921,-0.10978 5.41962,-0.19723 8.13078,-0.26243 l -0.01,-0.4049 c -5.88255,-1.27052 -14.01607,-5.4318 -25.37705,-12.20745 l -0.0298,-0.40395 c -0.21168,0.0156 -0.42334,0.0314 -0.63499,0.0473 z"
         style="-inkscape-font-specification:'Metal Macabre'"
         id="path4446"
         inkscape:original-d="m 569.44319,66.005936 q -12.0135,15.860518 -12.0135,26.659168 l 0,3.577053 -1.41732,1.417323 -0.40495,4.38695 -0.8099,0 q -2.3622,-20.854892 -8.97637,-20.854892 0,-0.809899 -4.45445,-0.944882 l -14.24072,0 q -10.05624,9.516311 -11.60855,17.817773 l 0.8099,0.944882 28.61643,0 0.47244,0.404949 0.40495,0 q -5.80428,11.47357 -9.44882,20.92239 l 0.60742,0 q 5.93926,0 8.43645,-7.49157 0.26996,-6.74915 1.34983,-6.74915 l 1.21485,0 1.01237,0.94488 0,34.69066 -1.01237,0.94488 -1.21485,0 q -0.8099,0 -2.36221,-9.78627 -2.76715,-5.80428 -11.06861,-5.80428 l -20.045,0 0,0.8099 q 0,13.16086 16.06299,33.88077 10.79865,10.25871 14.24072,10.25871 8.97638,0 17.41283,-19.50506 l 2.22722,0 0.40495,0.40495 0.40495,0 -7.01912,25.44432 7.55905,3.84702 0,0.94488 -18.3577,-4.38695 -57.36783,0 -0.8099,-0.94488 0,-1.28234 0.8099,-0.94488 3.23959,0 q 8.23397,0 8.23397,-11.60855 l 0.53993,-16.063 0,-7.01912 q -6.74915,-15.25309 -6.74915,-33.88076 0,-7.761533 6.20922,-19.640048 -0.40495,-6.47919 -1.82227,-8.031496 l -0.40495,0.472441 -0.40495,0 q -4.58943,0 -24.83689,-11.608549 l -1.01238,0 0,-0.877391 28.48144,4.049494 57.09786,0 q 2.15973,0 12.0135,-5.399325 z m -56.15298,41.439824 0,13.43082 21.86727,0 0,-8.57143 q 0,-4.58943 -3.57705,-6.61417 l -10.66367,0 q -7.62655,0 -7.62655,1.75478 z m 0,51.29359 0,0.40494 q 0,13.43083 3.64455,13.43083 l 9.24634,0.40495 6.20922,0 0,-0.40495 q -6.61417,-2.09224 -18.62767,-13.43083 l 0,-0.40494 -0.47244,0 z"
         inkscape:connector-curvature="0" />
      <path
         d="m 592.47274,370.38593 c 16.05403,1.38072 32.07887,3.41096 48.02352,6.10352 25.95945,4.38375 46.73693,12.27027 61.65346,21.88303 3.55817,2.43725 8.07028,10.58054 12.55769,24.26585 0,0 0,0 0,0 0.35887,1.09335 0.71756,2.22269 1.07531,3.38759 l -0.31854,0.96103 c -0.52485,-0.61102 -1.05164,-1.22116 -1.58037,-1.83042 -1.24447,-1.43569 -2.49967,-2.8669 -3.76549,-4.29351 -0.19629,-0.062 -0.39261,-0.12394 -0.58896,-0.18573 -3.31918,-1.04461 -8.75162,-1.75607 -16.12667,-1.9257 l -0.38533,1.36352 c -1.10244,3.90111 -3.98299,7.46534 -8.53337,10.79869 5.30961,2.0905 10.81907,10.33106 15.46274,24.60051 -0.11141,4.53438 -0.25649,9.06352 -0.43538,13.58706 -0.0327,0.82792 -0.0666,1.65567 -0.10165,2.48324 -0.46369,1.41094 -1.16708,2.83008 -2.10436,4.26181 0,0 0,0 0,0 -3.023,4.61792 -8.42087,9.29494 -16.01358,14.36653 1.66692,2.43271 4.60459,4.97927 8.78234,7.7435 1.83477,1.21613 3.90337,2.47053 6.2083,3.77809 l -0.63828,1.85085 c -0.47012,0.12292 -0.93973,0.24657 -1.40882,0.37096 -1.83443,-0.63012 -3.6734,-1.24863 -5.51664,-1.85555 -5.91299,-1.94055 -11.87211,-3.75518 -17.87183,-5.44527 -5.41939,2.72599 -10.74238,5.54885 -15.96821,8.46291 -0.69909,-0.17454 -10.92161,2.69941 -28.28209,10.23932 -0.16073,-0.0304 -0.32149,-0.0607 -0.48228,-0.0909 1.95334,-1.23512 3.92181,-2.45742 5.90536,-3.66655 -0.24299,-0.0486 -0.48604,-0.0969 -0.72914,-0.14511 -5.08511,1.79651 -7.97195,2.67755 -8.85145,2.5202 25.05023,-14.54378 39.16887,-21.42862 40.26129,-25.66612 -7.92105,-17.74261 -17.1336,-35.32285 -27.56457,-52.61445 -2.78756,-0.4939 -5.57904,-0.96532 -8.37405,-1.41435 0.10787,0.95152 0.21439,1.90302 0.31955,2.85447 -1.08079,7.8698 -2.17015,15.73826 -3.26809,23.60538 0.065,0.73998 0.12922,1.47994 0.19264,2.21985 -1.29415,3.35696 -2.594,9.1606 -3.9419,17.47841 2.41987,1.57631 4.61994,2.5457 6.63466,2.9016 1.35214,0.23886 2.70301,0.48351 4.05255,0.73397 0.34441,0.38421 0.6879,0.76878 1.03047,1.15371 l -0.26272,1.39253 c -0.44981,0.19 -0.89905,0.38064 -1.34772,0.57193 -2.28181,-0.42339 -4.5675,-0.83008 -6.85679,-1.22013 3.44763,4.12449 6.79558,8.28504 10.04139,12.4784 -0.16689,-0.0329 -0.3338,-0.0657 -0.50073,-0.0984 -10.77837,-8.63369 -18.01,-12.931 -20.24302,-13.26024 -1.903,-0.41704 -3.80985,-0.82276 -5.72037,-1.21717 -5.19803,-0.70246 -13.4353,-0.35342 -24.27971,1.46638 l 0.0346,-0.40359 c 1.87284,-1.21745 3.75925,-2.42428 5.65916,-3.62017 -4.28783,-0.4134 -6.41726,-0.84071 -6.37175,-1.38593 l 0.11793,-1.41283 c 0.40527,-0.28238 0.81121,-0.56426 1.21781,-0.84565 1.43112,0.12254 2.86151,0.25121 4.29111,0.38602 6.56709,0.0784 10.1266,-1.91605 10.62029,-6.22227 l 8.8345,-77.05918 c 0.0765,-0.66764 -1.40442,-1.32285 -4.45614,-1.9205 -2.7153,-0.29007 -10.07384,0.32541 -21.36022,2.3136 11.39961,-6.76605 20.90968,-10.8764 27.8505,-12.59374 -1.35243,-4.7749 -4.62808,-7.46711 -9.78803,-7.9731 -2.36414,-0.23183 -4.72911,-0.44944 -7.09475,-0.65287 -0.43592,-0.30853 -0.87249,-0.61658 -1.3097,-0.92415 l 0.15162,-1.8165 c 0.48727,-0.27539 0.97523,-0.55018 1.46389,-0.82437 z m 37.25609,37.09844 c -0.68693,7.1573 -1.39067,14.31237 -2.11123,21.46515 11.81559,1.89888 20.70525,1.87343 27.01282,-0.52821 l 0.0979,-0.46205 c -4.87193,-3.0101 -9.41858,-5.15696 -13.54927,-6.46535 l 0.0732,-0.39823 c 9.78044,-4.46949 19.59476,-6.7392 29.17711,-6.83331 l 0.32562,-1.37894 c 1.96186,-8.3082 -0.38833,-15.49178 -7.43503,-21.3825 -12.41535,-2.65572 -21.46734,-0.73356 -26.85132,5.18406 -3.00629,3.32841 -5.23959,6.93782 -6.7398,10.79938 z m 25.84484,30.04249 c 7.93033,14.91567 14.99646,29.99236 21.15769,45.15819 0.34444,0.0985 0.68875,0.19739 1.03294,0.29669 3.60261,-3.64879 5.83777,-6.76573 6.63376,-9.44764 3.02585,-10.19497 -2.34806,-22.77351 -18.16474,-36.41306 -3.56372,0.0978 -7.11711,0.23329 -10.65965,0.40582 z"
         style="-inkscape-font-specification:'Metal Macabre'"
         id="path4448"
         inkscape:original-d="m 574.49768,68.908073 30.50619,0 q 24.83689,0 41.03487,7.694039 4.25197,2.227221 13.70078,22.407199 l 0,1.012369 -4.58942,-4.184472 -0.40495,0 q -3.44207,0 -10.52869,2.767154 l 0,1.417318 q 0,6.07425 -3.57705,12.68842 5.80428,0.94488 15.05062,19.23509 l 3.1721,15.45557 q 0,9.38133 -8.70641,23.2171 3.77953,3.982 13.70079,6.34421 l 0,1.95725 -0.94488,0.8099 -19.10011,0 -10.4612,12.28347 q -1.14735,0 -20.65242,16.06299 l -0.40495,0 4.18448,-4.72441 -0.60742,0 q -5.66929,4.11698 -6.74916,4.11698 26.92914,-27.73903 26.92914,-33.67829 l -27.87402,-45.62429 -5.93926,0 0.53993,2.76715 0.40495,23.82452 0.40495,2.15973 q -0.8099,5.26435 -0.8099,17.88527 3.03712,1.75478 5.39933,1.75478 l 3.1721,0 0.94488,0.94488 0,1.41732 -0.94488,0.8099 -5.39932,0 9.51631,10.46119 -0.40495,0 q -14.64567,-9.65129 -17.41282,-9.65129 l -4.52194,-0.40495 q -6.14173,0 -18.62767,4.11699 l 0,-0.40495 4.11698,-4.11699 q -4.99437,0 -4.99437,-0.8099 l 0,-1.41732 0.87739,-0.94488 3.30709,0 q 7.55905,-0.8099 7.55905,-7.28909 l 0,-77.547808 q 0,-1.012373 -3.03712,-1.417323 -2.76715,0 -13.83577,4.184477 10.79865,-11.338583 17.27784,-15.11811 -1.82227,-6.88414 -6.74916,-6.88414 l -4.52193,0 -0.87739,-0.809898 0,-1.822273 0.87739,-0.944882 z m 26.86164,32.328457 0.87739,21.52981 q 12.41845,0 18.22272,-5.46682 l 0,-0.47244 q -5.5343,-2.90213 -9.92126,-3.71203 l 0,-0.40495 q 8.97638,-9.24635 18.22273,-12.68842 l 0,-1.417318 q 0,-12.823398 -7.76153,-19.235096 -12.14848,0 -16.40045,10.123735 -2.36221,5.669291 -3.2396,11.743529 z m 21.05737,24.76941 22.81215,38.67266 0.8099,0 q 2.76715,-6.74915 2.76715,-10.93363 0,-16.13048 -19.23509,-30.50619 l -7.15411,2.76716 z"
         inkscape:connector-curvature="0" />
      <path
         d="m 921.88024,484.4692 c 34.23807,37.47151 44.37811,61.56425 43.70583,62.06784 4.36977,10.59858 4.31291,23.869 -0.75024,38.80079 0.52566,1.00388 0.14813,3.87497 -1.26521,8.48507 -0.17447,-0.28887 -0.34932,-0.57744 -0.52453,-0.86574 -0.5043,-3.98882 -1.07915,-7.98731 -1.72377,-11.99283 -5.89687,-9.08363 -22.79767,-26.0651 -50.87956,-42.94151 l -0.445,0.41389 c 11.89107,17.25801 17.64533,32.6239 18.5318,44.34141 -0.16606,16.38141 -5.35653,28.87243 -14.02895,37.79793 l -1.83991,1.12672 c -7.53163,4.61218 -20.0348,3.46047 -37.93949,-0.23716 -1.34866,0.96967 2.08212,10.68756 5.5293,30.13229 0.29076,1.97019 0.55286,3.93577 0.78594,5.89609 0.91948,7.64476 1.42116,15.22437 1.52566,22.68797 -0.2925,1.68317 -0.60472,3.35521 -0.93629,5.01559 -0.24099,-0.11856 -0.48205,-0.23656 -0.72318,-0.35401 -0.88249,-9.37661 -2.23722,-17.88574 -3.68224,-25.30304 -4.47256,-23.24129 -8.64338,-32.48819 -8.91657,-39.29893 55.08528,17.308 -136.89994,-39.53308 -66.61082,-17.69001 25.93524,1.63486 47.4536,5.11518 65.11418,7.58972 -2.65016,-22.80987 -6.02834,-48.30897 -9.98266,-74.71312 -0.46781,-6.76467 -1.13324,-13.57702 -1.99573,-20.42103 -1.86651,-0.80734 -3.73534,-1.59778 -5.60612,-2.37149 -0.59188,1.19313 -1.18604,2.38493 -1.78247,3.57538 -4.19789,5.82881 -8.40906,11.64821 -12.63349,17.45811 0.19775,0.1561 0.39534,0.31241 0.59279,0.46892 5.20802,4.12823 11.43658,3.88246 18.98027,-0.81828 0.42132,0.3602 0.84186,0.72135 1.26162,1.08345 l -27.10274,31.39962 c -0.37336,-0.32283 -0.74744,-0.64488 -1.12224,-0.96617 3.25549,-8.36207 3.65083,-13.5419 1.45604,-15.32981 -1.01725,-1.08995 -2.04224,-2.17449 -3.0748,-3.25351 -4.76254,5.18286 -9.50165,10.38468 -14.21723,15.60517 3.17235,9.53493 5.82376,19.05235 7.93532,28.47337 -0.31672,-0.29034 -0.63411,-0.58011 -0.95214,-0.86931 -3.94087,-9.76161 -8.19016,-17.54284 -12.00376,-23.05536 -2.96144,-4.26209 -5.73205,-7.26849 -8.12,-9.00638 -1.11687,-0.81284 -2.23915,-1.61919 -3.36672,-2.41908 -8.50807,-6.03555 -19.80478,-11.42632 -33.66942,-15.43855 l 0.56556,-0.99788 c 12.65578,0.88406 20.2248,1.44022 23.40207,0.62745 3.6213,-2.97087 6.45808,-5.96981 8.46743,-9.06626 l 3.01059,-4.63937 c -5.00329,-3.2462 -10.08511,-6.37906 -15.23851,-9.39933 -2.45599,2.20968 -4.89385,4.43454 -7.31357,6.67429 -0.41073,-0.23651 -0.82193,-0.47229 -1.23359,-0.70736 l 12.6256,-22.08078 c -8.01771,0.49327 -15.93461,1.23094 -23.74381,2.19481 -20.70317,0.1602 -35.08679,4.87619 -43.09635,11.81445 -1.40018,-0.57744 -9.16659,4.59072 -21.89898,16.35603 -6.65025,5.78146 -13.10179,11.70172 -19.35295,17.74438 -1.4089,0.87366 -2.80968,1.75401 -4.20228,2.64085 -0.12763,-0.19248 -0.2555,-0.38491 -0.38362,-0.5773 -0.0342,-0.0511 -0.0683,-0.10224 -0.10253,-0.15336 0.0871,-0.11057 0.17405,-0.22091 0.26096,-0.33104 22.21755,-28.13639 39.44844,-42.13041 46.66866,-43.59433 0.70887,-1.7426 19.21619,-9.81106 56.97962,-14.1694 10.58451,-0.95691 24.24352,-0.57034 40.48137,2.07423 5.75839,-9.42254 11.49722,-18.85744 17.21652,-28.30463 12.03757,6.23015 19.13181,8.12955 21.6208,4.62935 2.74109,-3.85473 0.24703,-8.68168 -7.85995,-14.07496 -3.34884,-1.57981 -6.70664,-3.11591 -10.07257,-4.60886 l 0.28846,-0.45602 c -11.60327,-4.74041 -23.27488,-8.97043 -34.98301,-12.71506 l 0.50685,-0.95346 c 30.39064,0.68293 59.41972,8.63014 85.11825,23.07946 11.81377,6.62052 22.7987,14.6375 32.74551,23.92009 z m -53.59141,2.3822 c -0.14622,0.18767 -0.2702,0.48742 -0.37273,0.89925 -0.94771,3.8262 0.0204,14.07014 0.66255,32.92177 -1.53074,12.73009 -0.78486,27.53506 0.88178,44.90375 1.24385,4.55425 1.70054,11.26251 0.99614,19.79902 0.0766,10.06599 0.47097,18.32713 1.54282,25.14463 10.89985,1.66727 18.17372,1.71757 21.96219,-0.97675 7.73922,-5.50406 11.77171,-15.5917 10.21329,-30.70824 -1.53698,-14.90871 -8.73189,-35.2499 -24.07151,-58.33903 -2.09148,-2.37762 -4.21315,-4.73111 -6.36404,-7.05975 l 0.35313,-0.40911 c 4.64726,-0.51238 26.16227,6.44197 57.02312,28.34479 5.59186,-0.74278 8.96645,-1.50432 10.15556,-2.49726 0.35003,-10.56318 -2.81639,-19.49737 -9.1869,-26.25335 -2.7038,-3.1299 -5.45121,-6.21623 -8.24051,-9.2582 -19.44035,-19.42632 -36.5068,-25.18061 -47.8984,-20.38426 -2.38122,1.18139 -4.75011,2.37787 -7.10653,3.58914 -0.1834,0.0944 -0.36672,0.18898 -0.54996,0.2836 z m -78.3915,13.58647 c 0.87419,1.57838 1.73526,3.15893 2.58307,4.74146 4.20753,2.5204 8.36964,5.11498 12.48289,7.78411 l 6.3149,-9.73138 c -9.22694,-2.35549 -16.43608,-3.16273 -21.38086,-2.79419 z"
         style="-inkscape-font-specification:'Metal Macabre'"
         id="path4450"
         inkscape:original-d="m 788.1649,44.948568 q 42.58718,6.006749 42.58718,8.908887 9.38132,4.251968 18.22272,22.609674 1.01237,0.134983 3.91451,5.534308 l -0.60743,0 -6.61417,-4.926884 q -10.05624,0 -39.82002,13.768279 l 0,0.607424 q 19.50506,4.521935 29.29134,13.768274 12.7559,14.51069 16.06299,32.66592 l 0,2.15973 q 0,13.02587 -16.06299,31.51856 0,1.95726 23.28459,11.60855 l 23.21709,10.52869 3.84702,2.76715 -0.53993,0.53993 q -47.04162,-15.38807 -53.65579,-20.98987 -30.84365,27.46906 -49.74128,36.98537 27.33408,-23.75703 42.58717,-41.97975 -23.55455,-18.49269 -44.8144,-44.74691 l -9.92126,-14.3757 -3.91451,1.6198 0.53994,3.91451 0.60742,21.52981 0.53993,0 q 7.15411,0 9.92126,-12.68842 l 1.14736,0 0,41.43982 -1.14736,0 q -3.44207,-12.68841 -6.61417,-12.68841 l -3.30709,-0.60742 -1.14735,21.05736 19.91001,16.53544 -1.07987,0 Q 763.73295,179.8642 755.56647,179.8642 l -3.30708,0 q -12.48594,0 -29.35883,4.99438 l 0,-1.14736 q 13.5658,-8.09898 16.06299,-11.54105 1.68729,-6.68167 1.68729,-12.21598 l 0,-5.5343 -13.29584,0 -2.22722,9.44881 -1.07987,0 0,-25.44432 -14.3757,13.22835 q -20.31496,14.3757 -25.98425,28.75141 -1.88977,0 -11.60855,23.2171 l -10.46119,23.21709 -2.76716,3.84702 -0.60742,-0.53993 q 16.46794,-51.09111 23.82452,-57.43532 0,-4.04949 33.67829,-37.05287 9.51631,-8.84139 24.90439,-18.83015 l -0.60743,-33.138354 q 12.75591,-1.957255 12.75591,-8.301462 0,-7.154106 -8.8414,-7.154106 l -6.68166,1.619797 0,-0.539932 -22.60967,6.614173 0,-1.079865 Q 751.51698,44.948568 788.1649,44.948568 Z m -23.2171,36.512936 q 0,3.307087 13.83577,25.984256 7.01912,15.79302 21.52981,32.05849 4.45444,3.44207 11.06862,12.75591 8.43644,9.92126 15.52306,14.91563 9.38132,-11.33858 9.38132,-18.22272 0,-28.75141 -51.9685,-49.268843 l -6.07424,-1.079865 0,-0.539933 q 3.71203,-6.209224 37.5928,-20.449944 2.76715,-7.086614 2.76715,-9.381327 -6.95163,-10.528684 -14.98312,-10.528684 l -7.15411,-0.539933 q -23.75703,0 -29.29134,16.535434 l -2.22722,7.761529 z m -38.13273,55.275596 3.30708,2.76715 10.52869,0 0,-11.60855 q -9.44882,4.58943 -13.83577,8.8414 z"
         inkscape:connector-curvature="0" />
      <path
         d="m 968.63142,562.09277 c 0.20202,0.29184 0.4037,0.584 0.60502,0.87648 4.82567,12.67785 8.98074,25.52471 12.42413,38.47386 0.29509,0.53719 0.589,1.07528 0.88172,1.61427 6.3887,11.89689 12.06565,24.15789 17.00186,36.71137 1.44175,4.03545 2.80695,8.09572 4.09505,12.17839 2.0156,3.03262 3.8194,6.97422 5.3081,11.79384 1.1171,3.61635 2.1747,7.25208 3.1721,10.90563 5.862,21.47285 6.73,51.03718 -2.2252,84.16478 -0.2885,1.57035 -0.5885,3.13693 -0.8999,4.69959 -0.315,0 -0.63,0 -0.9449,0 -0.01,-2.88785 -0.052,-5.77298 -0.136,-8.6546 -0.2686,-9.18863 -1.3515,-13.68683 -2.5126,-13.60377 -10.30819,4.70483 -17.59269,6.91463 -21.18269,7.10273 -11.2629,0.59015 -24.19044,-5.46999 -40.49762,-15.20286 -11.10914,-11.3274 -19.88664,-20.5515 -26.68692,-29.58715 -3.94872,-2.20815 -8.3008,-9.59235 -15.09274,-21.80201 -0.91592,0.34561 -4.3213,-9.58057 -14.81793,-27.53343 -2.88087,-4.97634 -6.34796,-10.59007 -10.50906,-16.67657 l 0.79455,-0.50931 c 6.10849,5.4514 9.30368,8.22905 10.08519,7.77728 0.27536,-0.15919 2.31539,1.78494 5.85585,6.06937 0,0 0,0 0,0 0.18177,0.21807 0.36753,0.44242 0.55713,0.67298 2.67565,1.13554 7.15416,0.16414 13.34785,-3.01839 l 62.97489,-32.3586 c 0.92288,-2.23936 1.03718,-4.30403 0.34899,-6.16291 -0.13994,-0.10846 -0.27995,-0.21677 -0.42,-0.32494 -0.1217,-0.0929 -0.24343,-0.18564 -0.36518,-0.27829 1.19183,-0.64105 1.5911,-11.4596 -2.11816,-32.16473 0.29419,0.45401 0.5875,0.90876 0.87995,1.36424 0.65898,2.14936 1.29818,4.30155 1.91741,6.45623 -0.37118,-7.60668 -0.9859,-15.27379 -1.84089,-22.98348 z m 37.26718,121.56298 c -6.04337,19.39001 -18.87679,29.35733 -35.93019,32.26377 l -6.84914,1.16731 c -3.50196,0.1962 -7.00232,0.40698 -10.50099,0.63231 l -0.39869,0.0697 c 0.0327,0.18704 0.0652,0.37412 0.0975,0.56123 8.24025,2.93187 17.20365,3.97709 26.84394,2.54913 13.1311,-1.94504 22.5711,-10.15942 26.5037,-26.07581 0.6039,-2.94309 0.7087,-6.68328 0.2339,-11.16761 z m -33.60862,-36.42327 -20.39971,8.2516 c -14.84346,5.7867 -29.67489,11.60374 -44.4942,17.45108 -0.37399,0.33454 -0.74851,0.66825 -1.12355,1.00113 0.7244,1.79052 1.42779,3.58951 2.10996,5.3964 5.11222,13.54103 17.72413,20.56713 39.82328,22.04985 5.04627,-0.75291 10.09712,-1.48163 15.15239,-2.1861 21.00106,-4.9181 33.61389,-17.33768 34.19336,-39.38763 -0.19835,-1.0243 -0.40164,-2.04823 -0.60986,-3.07174 -6.13711,-10.75352 -14.61791,-13.56321 -24.65167,-9.50459 z"
         style="-inkscape-font-specification:'Metal Macabre'"
         id="path4452"
         inkscape:original-d="m 838.91697,60.471628 0.60743,0 22.54218,9.651294 24.22947,0 7.35658,0.404949 q 3.03712,-1.349831 7.35658,-1.349831 l 6.47919,0 q 19.16761,0 48.25647,14.24072 l 2.76716,0.944882 0,0.944882 -5.12936,0 q -8.16648,0 -8.16648,1.822272 3.57705,16.062994 3.57705,21.597304 0,16.67041 -12.8234,39.07761 -13.83577,14.37571 -26.25421,20.71991 -3.64455,4.72441 -20.65242,7.76153 0,1.21485 -42.24972,2.76716 l 0,-0.94489 q 9.71878,-3.30708 9.71878,-4.58942 0,-0.53993 7.28909,-2.36221 2.76716,-2.76715 2.76716,-13.22834 l 0,-70.798654 q -1.41733,-2.767154 -3.17211,-3.172104 l -0.53993,0.40495 q 0,-2.362205 -17.00787,-14.64567 l 0.94488,0 3.77953,1.822272 -11.67605,-11.068616 z m 72.68842,17.007874 q 15.05062,15.725535 15.05062,41.844768 l 0,6.95163 -0.8099,10.4612 0,0.40494 0.40495,0 q 4.58942,-11.47356 4.58942,-26.11923 0,-20.044995 -12.89088,-30.776154 -2.4297,-1.822272 -6.34421,-2.767154 z m -27.1991,20.71991 0,22.002248 -0.40495,47.78403 0.40495,1.41732 4.65692,0 q 17.75028,0 24.7694,-31.65354 l 0.94488,-15.25309 q 0,-32.59843 -17.95275,-43.667047 l -1.82228,-0.404949 q -10.59617,3.44207 -10.59617,19.775028 z"
         inkscape:connector-curvature="0" />
    </g>
    <flowRoot
       xml:space="preserve"
       id="flowRoot4145"
       style="color:#000000;font-size:354.33071899px;line-height:125%;text-align:center;letter-spacing:0px;word-spacing:0px;text-anchor:middle;fill:#000000;stroke:#ffffff;stroke-width:1.00275588;stroke-miterlimit:0"><flowRegion
         id="flowRegion4147"><rect
           id="rect4149"
           width="1275.5906"
           height="1098.4252"
           x="-708.66144"
           y="-35.433075" /></flowRegion><flowPara
         id="flowPara4151" /></flowRoot>  </g>
  <g
     inkscape:groupmode="layer"
     id="layer4"
     inkscape:label="Linked River Rd path"
     style="display:none"
     sodipodi:insensitive="true">
    <path
       style="color:#000000;solid-opacity:1;fill:#000000;stroke-width:1.00275588;stroke-miterlimit:0"
       d="m 124.45906,769.51098 c 0,-183.59753 186.044,-332.43273 415.5409,-332.43273 229.49691,0 415.54098,142.8352 415.54098,326.43273"
       id="path4418"
       inkscape:connector-curvature="0"
       sodipodi:nodetypes="csc" />
    <g
       id="layer1-6"
       inkscape:label="Layer 1"
       transform="translate(53.357281,66.053161)">
      <path
         sodipodi:nodetypes="aassssssssssacaaaacccccscsssscs"
         inkscape:connector-curvature="0"
         id="path5581"
         d="m 223.49317,410.56186 c -13.99658,-13.89117 -24.85032,-30.88066 -34.37389,-48.14828 -11.88321,-21.54597 -49.38668,-74.12585 -27.92952,-68.32934 21.19092,5.72459 0,0 102.78206,-12.60315 65.06443,-7.97821 12.42426,-59.76146 12.42426,-59.76146 -94.85025,-64.9405 -33.87725,-20.86924 -103.42168,-64.9405 L 33.532665,68.412989 C 22.971572,61.72028 37.998815,56.62843 63.176227,38.161053 112.95261,1.6506148 128.68413,19.757661 141.23688,27.914581 l 123.5582,80.289529 c 77.04849,50.06699 135.02418,113.71367 167.80085,146.84408 l 84.21303,85.12189 c 104.79307,105.92403 127.39883,131.87067 190.40549,198.46601 5.25612,5.5555 15.65202,16.7758 15.65202,16.7758 0,0 -38.93068,12.90285 -59.02611,16.66453 -23.71088,4.43846 -47.92079,7.10237 -72.04229,6.85999 -51.66203,-0.51911 -105.68519,0.59091 -153.96958,-17.78985 -81.60238,-31.06417 -152.36128,-89.07739 -214.33532,-150.5847 z m 308.5146,146.64974 49.75447,-2.496 c 0,0 -107.77059,-46.97318 -189.59598,-101.42024 -98.64696,-65.64023 -198.98214,-133.45667 -197.16608,-130.6191 0,0 18.57142,44.28573 56.05683,83.92799 0,0 18.12983,21.71788 82.44216,70.62252 107.77161,81.95212 198.5086,79.98483 198.5086,79.98483 z M 563.80269,425.69057 C 497.88258,359.28872 363.72561,231.00845 357.12704,235.75064 l -17.32511,12.45102 c -3.65555,2.62713 208.94928,189.34742 236.82114,211.10868 l 91.39687,71.3591 z"
         style="fill:#000000;fill-rule:evenodd" />
    </g>
  </g>
  <g
     inkscape:groupmode="layer"
     id="layer5"
     inkscape:label="wisk">
    <g
       id="layer1-9"
       inkscape:label="Layer 1"
       transform="matrix(0.35180123,0.35179908,-0.35180123,0.35179908,590.29008,73.441474)">
      <path
         sodipodi:nodetypes="scssscscaaacscasa"
         inkscape:connector-curvature="0"
         id="path5479"
         d="m 400,52.362205 c -84.36968,-0.204532 0,145.330755 -8.35767,287.952705 -8.35768,142.62195 -112.35966,498.76307 -91.64228,562.04729 41.43476,126.5684 51.53372,95.49216 98.67417,95.49216 47.14045,0 59.89107,31.07624 101.32583,-95.49216 C 520.71743,839.07798 416.71536,482.9384 408.35767,340.31568 399.99997,197.69296 484.87108,52.567951 400,52.362205 Z m -1.32583,945.492155 c 173.03311,105.63674 1.32238,-733.44564 1.32238,-733.44564 0,0 -245.80426,733.00484 -1.32238,733.44564 244.48188,0.4408 1.32243,-733.44564 1.32243,-733.44564 0,0 -175.23942,839.08238 -1.32243,733.44564 C 565.67407,893.34923 327.10766,52.907679 400,52.3622 479.44398,51.767693 230.11452,886.31967 398.67417,997.85436 Z m 1.32238,-733.44564 c 0,0 91.49058,733.44564 -1.32238,733.44564 -92.81297,0 1.32238,-733.44564 1.32238,-733.44564 z"
         style="color:#000000;solid-opacity:1;fill:none;stroke:#7e7e7e;stroke-width:7.12193108;stroke-linejoin:round;stroke-miterlimit:1;stroke-dashoffset:3.54330707" />
      <path
         sodipodi:nodetypes="ssssssscs"
         inkscape:connector-curvature="0"
         id="path3403"
         d="m 406.50004,862.60553 c -1.71214,88.40411 -4.03068,138.35837 -6.45199,139.01187 -2.42131,0.6535 -4.74984,-48.04646 -6.47979,-135.52156 -1.72994,-87.47511 -2.72158,-206.66012 -2.75952,-331.66627 -0.0379,-125.00613 0.88089,-245.73685 2.55691,-335.96767 1.67601,-90.23081 3.97384,-142.673924 6.39436,-145.937908 2.42052,-3.264028 4.76824,42.914744 6.53318,128.505588 1.76495,85.59085 2.80458,203.68074 2.84552,338.56943 0.041,134.88869 -0.92653,254.60242 -2.63867,343.00652 z"
         style="fill:none;stroke:#8b8b8b;stroke-width:7.03488541;stroke-linejoin:round" />
    </g>
  </g>
  <g
     inkscape:groupmode="layer"
     id="layer6"
     inkscape:label="knife">
    <g
       id="layer1-5"
       inkscape:label="Layer 1"
       transform="matrix(0.61838603,0,0,0.61838603,307.18391,220.99474)">
      <path
         sodipodi:nodetypes="aassssssssssacaaaacccccscsssscs"
         inkscape:connector-curvature="0"
         id="path5581-6"
         d="m 223.49317,410.56186 c -13.99658,-13.89117 -24.85032,-30.88066 -34.37389,-48.14828 -11.88321,-21.54597 -49.38668,-74.12585 -27.92952,-68.32934 21.19092,5.72459 0,0 102.78206,-12.60315 65.06443,-7.97821 12.42426,-59.76146 12.42426,-59.76146 -94.85025,-64.9405 -33.87725,-20.86924 -103.42168,-64.9405 L 33.532665,68.412989 C 22.971572,61.72028 37.998815,56.62843 63.176227,38.161053 112.95261,1.6506148 128.68413,19.757661 141.23688,27.914581 l 123.5582,80.289529 c 77.04849,50.06699 135.02418,113.71367 167.80085,146.84408 l 84.21303,85.12189 c 104.79307,105.92403 127.39883,131.87067 190.40549,198.46601 5.25612,5.5555 15.65202,16.7758 15.65202,16.7758 0,0 -38.93068,12.90285 -59.02611,16.66453 -23.71088,4.43846 -47.92079,7.10237 -72.04229,6.85999 -51.66203,-0.51911 -105.68519,0.59091 -153.96958,-17.78985 -81.60238,-31.06417 -152.36128,-89.07739 -214.33532,-150.5847 z m 308.5146,146.64974 49.75447,-2.496 c 0,0 -107.77059,-46.97318 -189.59598,-101.42024 -98.64696,-65.64023 -198.98214,-133.45667 -197.16608,-130.6191 0,0 18.57142,44.28573 56.05683,83.92799 0,0 18.12983,21.71788 82.44216,70.62252 107.77161,81.95212 198.5086,79.98483 198.5086,79.98483 z M 563.80269,425.69057 C 497.88258,359.28872 363.72561,231.00845 357.12704,235.75064 l -17.32511,12.45102 c -3.65555,2.62713 208.94928,189.34742 236.82114,211.10868 l 91.39687,71.3591 z"
         style="fill:#000000;fill-rule:evenodd" />
    </g>
  </g>
</svg>
