<?xml version="1.0" encoding="UTF-8" standalone="no"?>
<!-- Created with Inkscape (http://www.inkscape.org/) -->

<svg
   xmlns:dc="http://purl.org/dc/elements/1.1/"
   xmlns:cc="http://creativecommons.org/ns#"
   xmlns:rdf="http://www.w3.org/1999/02/22-rdf-syntax-ns#"
   xmlns:svg="http://www.w3.org/2000/svg"
   xmlns="http://www.w3.org/2000/svg"
   xmlns:xlink="http://www.w3.org/1999/xlink"
   xmlns:sodipodi="http://sodipodi.sourceforge.net/DTD/sodipodi-0.dtd"
   xmlns:inkscape="http://www.inkscape.org/namespaces/inkscape"
   width="1024mm"
   height="640mm"
   viewBox="0 0 3628.3466 2267.7165"
   id="svg2"
   version="1.1"
   inkscape:version="0.91 r13725"
   shape-rendering="crispEdges"
   sodipodi:docname="RiverRdBakehouse5.svg">
  <sodipodi:namedview
     id="base"
     pagecolor="#ffffff"
     bordercolor="#666666"
     borderopacity="1.0"
     inkscape:pageopacity="0.0"
     inkscape:pageshadow="2"
     inkscape:zoom="0.17845322"
     inkscape:cx="1901.7606"
     inkscape:cy="1505.6236"
     inkscape:document-units="mm"
     inkscape:current-layer="layer2"
     showgrid="true"
     inkscape:window-width="1280"
     inkscape:window-height="968"
     inkscape:window-x="0"
     inkscape:window-y="0"
     inkscape:window-maximized="1"
     units="mm"
     showguides="true"
     inkscape:guide-bbox="true"
     inkscape:snap-nodes="false"
     inkscape:snap-others="false" />
  <defs
     id="defs4">
    <linearGradient
       id="linearGradient8153-3"
       inkscape:collect="always">
      <stop
         id="stop8163"
         offset="0"
         style="stop-color:#000000;stop-opacity:1;" />
      <stop
         id="stop8165"
         offset="1"
         style="stop-color:#ffffff;stop-opacity:1" />
    </linearGradient>
    <linearGradient
       id="linearGradient4858"
       inkscape:collect="always">
      <stop
         id="stop4860"
         offset="0"
         style="stop-color:#ff0052;stop-opacity:1;" />
      <stop
         id="stop4862"
         offset="1"
         style="stop-color:#ff0052;stop-opacity:0;" />
    </linearGradient>
    <linearGradient
       inkscape:collect="always"
       id="linearGradient4852">
      <stop
         style="stop-color:#00ff52;stop-opacity:1"
         offset="0"
         id="stop4854" />
      <stop
         style="stop-color:#843513;stop-opacity:1"
         offset="1"
         id="stop4856" />
    </linearGradient>
    <linearGradient
       id="linearGradient4306"
       inkscape:collect="always">
      <stop
         id="stop4308"
         offset="0"
         style="stop-color:#000000;stop-opacity:1;" />
      <stop
         id="stop4310"
         offset="1"
         style="stop-color:#843513;stop-opacity:1" />
    </linearGradient>
    <radialGradient
       id="radialGradient4312"
       xlink:href="#linearGradient4306"
       inkscape:collect="always" />
    <linearGradient
       gradientTransform="scale(1.0067675,0.99327799)"
       gradientUnits="userSpaceOnUse"
       y2="-117.72021"
       x2="3596.6011"
       y1="-1223.5791"
       x1="0"
       id="linearGradient4850"
       xlink:href="#linearGradient4852"
       inkscape:collect="always" />
    <linearGradient
       gradientTransform="scale(1.0067675,0.99327799)"
       gradientUnits="userSpaceOnUse"
       y2="-117.72021"
       x2="3596.6011"
       y1="1061.4176"
       x1="19.269724"
       id="linearGradient4864"
       xlink:href="#linearGradient4858"
       inkscape:collect="always" />
    <clipPath
       id="clipPath">
      <path
         inkscape:connector-curvature="0"
         id="text4318"
         d="m 1220.0827,-1216.9282 c 116.5106,-30.5147 349.0583,152.101 126.7245,139.7237 -131.0423,60.5601 134.9045,67.3855 104.0764,182.38238 25.6173,98.19096 -116.4762,175.99954 43.1137,196.86171 68.2614,23.35448 122.7569,67.08443 22.1873,20.2587 -111.9018,-77.63909 -234.5014,8.55281 -304.6707,70.25084 89.3175,-51.51916 197.369,-162.98208 50.4193,-216.15569 -26.7537,-81.83534 -177.6186,-178.27244 -109.6005,-49.76417 52.4992,-92.87004 48.4912,186.51888 -4.6335,69.52505 -68.8135,74.7822 138.3054,167.2428 -19.3058,101.0719 -54.218,-57.06708 -189.26508,53.86892 -104.9661,-53.23364 56.8977,-125.07251 -91.10652,38.38143 -43.76121,-78.73327 -53.55285,-40.98544 -182.16793,141.1024 -205.01044,224.45043 -121.91876,220.71852 98.10036,-245.75011 51.74992,-139.84359 77.71227,-123.47333 246.03633,-166.50018 225.09473,-328.05345 116.015,-107.6906 -216.10037,25.3675 -51.9892,-68.6617 65.3465,-42.2218 142.2258,-69.8243 220.5716,-70.0792 z m -87.6684,136.0264 c 59.2957,92.62683 144.3226,334.6255 264.2419,272.71039 54.9631,-108.18261 -157.6038,-236.13809 -178.566,-228.72869 167.5838,-28.8483 69.2018,-212.5753 -54.1551,-107.2199 -17.2346,16.8071 -27.4269,39.7622 -31.5208,63.2382 z m -143.99022,205.92557 c 75.56512,53.53246 55.06052,-87.26438 0,0 z m 513.77172,-250.17817 c 76.5391,10.7321 183.4571,-30.18 140.253,41.4249 -60.5869,73.5543 -15.0177,210.62741 -29.1385,311.33888 77.938,-1.69944 -56.4192,47.08079 45.873,52.04712 -50.039,-9.52076 -189.2419,27.31394 -121.7371,-30.58132 0.284,-41.42878 36.935,-189.43117 12.7056,-284.60228 -6.8642,-55.3951 -54.2994,-31.0379 -10.9157,-64.0193 -10.9031,-6.8447 -29.2867,-14.8187 -37.0403,-25.608 z m 452.6673,-20.6177 c 60.5168,32.4644 171.7794,-17.115 75.579,81.6215 -66.9991,123.55907 -118.4233,382.72827 -201.1555,429.18859 27.4259,-139.10367 -67.6383,-259.79382 -83.3681,-394.18539 -22.2469,-72.6384 -123.009,-112.8171 14.744,-103.8311 111.8945,-24.4143 1.6132,77.6192 70.5236,146.77421 28.8708,75.662 75.789,226.55459 108.837,68.17663 69.7524,-93.86574 -110.0704,-165.88574 -80.1162,-171.07274 29.3479,-22.2114 59.9015,-44.3321 94.9562,-56.6717 z m 23.701,28.9151 c -4.6337,80.1 58.2364,27.6578 0,0 z m 442.4237,-21.6234 c -46.2189,59.0272 -47.3111,188.18891 -89.1583,52.7171 -112.049,-22.8231 -141.8385,108.67552 -14.5487,67.2971 1.563,41.51955 -28.8644,118.26212 20.946,35.24421 0.3216,47.33368 31.1895,187.41798 -23.8782,87.36949 -246.747,-79.14864 35.1318,249.13841 68.959,115.48115 47.8844,145.12382 -155.1817,24.93149 -238.6542,61.88731 -35.7853,7.78452 63.5069,-123.11129 1.0831,-182.8698 -10.1274,-83.16936 41.44,-232.37376 -93.2618,-232.09796 113.3227,16.8828 234.3569,25.3736 346.213,6.2061 7.4333,-3.7449 14.8667,-7.4898 22.3001,-11.2347 z m -212.0352,154.38124 c -4.6387,152.75556 193.6734,-45.03064 0,0 z m 0,191.09084 c -15.1364,85.59166 130.4376,45.93611 10.3773,9.12267 -5.2384,0.48201 -6.712,-9.33161 -10.3773,-9.12267 z m 231.1211,-334.66038 c 109.9172,3.5776 265.3887,-27.2685 320.558,98.1148 -152.5513,27.4863 48.0177,131.95899 -15.7528,235.19974 29.2769,99.11414 24.6161,59.10912 -59.503,99.02706 -37.6066,40.91909 -148.8096,124.13186 -56.5815,20.14088 94.0532,-53.50076 -122.4065,-189.31056 -82.9747,-211.14116 -36.1139,107.11882 119.4417,265.23625 -58.7765,169.21444 -90.3913,31.14345 35.3547,-107.47848 -5.9386,-173.11043 -11.4831,-44.42068 24.9859,-146.90293 -22.108,-148.20513 -83.7021,11.438 79.7212,-58.92 -18.9229,-89.2402 z m 101.4303,120.4374 c -22.7874,94.20031 68.5098,88.28945 70.3834,13.26281 112.8557,-87.82181 -73.8289,-147.39261 -70.3834,-13.26281 z m 79.5132,92.27686 c 28.3575,49.7191 117.5555,219.22663 92.139,69.31966 -11.9169,-35.70503 -46.3952,-91.63095 -92.139,-69.31966 z m -936.3061,358.0439 c 116.5106,-30.51462 349.0583,152.10109 126.7245,139.72377 -131.0423,60.56002 134.9045,67.38547 104.0764,182.38237 25.6174,98.1909 -116.4761,175.999551 43.1137,196.861724 68.2614,23.354492 122.7568,67.084438 22.1873,20.2587 -111.9018,-77.63912 -234.5013,8.5528662 -304.6706,70.250841 89.3175,-51.51919 197.3689,-162.982065 50.4192,-216.155695 -26.7537,-81.83529 -177.6184,-178.27247 -109.6005,-49.76416 52.4992,-92.87009 48.4912,186.518878 -4.6335,69.52504 -68.8134,74.782193 138.3054,167.242815 -19.3058,101.071911 -54.218,-57.067078 -189.265,53.868916 -104.9661,-53.233653 56.8977,-125.072518 -91.1065,38.381418 -43.7612,-78.733268 -53.5529,-40.98544 -182.1679,141.102418 -205.0104,224.450437 -121.919,220.718763 98.1005,-245.750567 51.7499,-139.843593 77.7123,-123.473314 246.0363,-166.500214 225.0947,-328.053464 116.0151,-107.69046 -216.1004,25.36747 -51.9891,-68.6617 65.3464,-42.22173 142.2257,-69.8243 220.5715,-70.07926 z m -87.6684,136.02651 c 59.2957,92.6268 144.3227,334.625411 264.2419,272.71036 54.9631,-108.18259 -157.6037,-236.13808 -178.566,-228.72862 167.5838,-28.84835 69.2019,-212.57544 -54.155,-107.21998 -17.2346,16.80713 -27.4269,39.76225 -31.5209,63.23824 z m -143.9902,205.92553 c 75.5651,53.53247 55.0605,-87.26438 0,0 z m 423.2999,-284.12191 c 125.2831,75.19946 277.9503,-2.84648 405.6943,67.80328 86.0051,15.42393 -47.2324,80.21153 -3.0348,157.59202 1.5687,143.56737 -166.6195,209.909404 -289.6585,213.409532 -103.8939,12.630394 46.1467,-101.632012 -10.5046,-177.565842 23.565,-120.73969 -9.784,-187.84795 -102.4964,-261.23899 z m 274.4735,63.3617 c 84.3959,45.51855 41.4787,334.69639 72.8573,128.99008 2.0173,-51.53287 -19.2522,-111.4961 -72.8573,-128.99008 z m -102.7046,77.19064 c -10.6538,101.88322 -17.46,383.686487 100.1958,188.97989 58.8477,-68.91901 -43.5103,-402.10755 -100.1958,-188.97989 z M 29.045152,122.21628 c 139.698558,111.50251 294.502678,-45.255794 448.618658,17.5727 88.10182,20.68031 180.23008,96.59203 36.4716,98.85255 -143.74596,37.60165 131.43134,107.83669 69.62157,220.8021 -24.85897,188.60054 -277.34921,79.99258 -362.18643,199.74836 -31.88702,132.44549 26.03801,260.00038 62.06977,385.28911 C 199.10318,919.56321 187.55021,759.94268 202.80457,620.24738 165.44342,586.01826 42.253037,610.30665 153.05205,597.53501 214.31605,524.78198 137.62511,506.39189 132.13284,534.99784 93.987464,424.53357 209.69202,504.55475 190.57321,390.81752 145.15194,329.08571 272.50427,207.66302 130.45371,251.35809 71.887639,287.51531 -50.74943,418.31415 53.353014,285.9923 163.37673,226.61963 115.78775,163.29311 29.045152,122.21628 Z M 273.19148,334.4277 c 29.20161,58.71278 118.93906,-148.07721 146.78609,-90.78008 99.77132,-128.28049 -246.52594,-71.93568 -146.72039,74.17302 l -0.0339,8.56005 -0.0318,8.04701 -4e-5,0 z m 6.37124,142.06095 c 70.22949,-105.91273 63.69401,171.36785 10.51841,63.25252 -5.47834,110.88569 306.35667,-3.1889 217.68145,-146.93702 C 435.26236,224.91381 301.586,358.01658 279.56272,476.48865 Z M 693.6323,135.03948 c 94.91853,46.64518 205.57478,51.944 241.9801,87.37378 -45.46211,102.55552 -47.19965,303.45448 19.71051,409.93552 -57.04895,-52.54258 -213.18096,1.2521 -112.06312,-89.9469 43.1549,-134.9476 -224.9701,-86.9436 -96.07583,25.00416 44.1655,65.12898 75.31085,176.18513 -10.31457,58.36253 -55.91361,-37.21882 -69.78726,-64.65651 -113.06624,-23.61223 -145.93488,26.5491 64.6285,-69.06386 20.23671,-159.64808 C 619.67462,330.02332 733.74337,263.11142 772.81027,198.22003 744.31149,180.01778 712.70996,164.53804 693.6323,135.03948 Z m 8.91976,272.05302 c 11.19104,56.66066 101.44975,-143.08772 33.56128,-17.49755 -66.00759,-9.04168 146.49111,-205.03549 83.59157,-114.58767 39.42661,-114.96683 -161.15538,53.07357 -117.03565,129.70633 l -0.1172,2.37889 z M 827.68342,299.98106 c 24.46391,17.87793 12.646,-49.23533 0,0 z M 724.46916,443.04775 c 87.11629,40.41402 174.92444,-51.53538 94.76187,-114.31358 -41.59847,20.83783 -62.16022,79.52657 -94.76187,114.31358 z m -87.1587,130.24351 c 72.4666,71.1676 7.52187,-104.43514 0,0 z M 1028.4893,194.88109 c 42.8311,5.38073 210.7611,-11.26228 101.6731,34.67839 -49.5238,147.37939 94.4537,53.91213 86.0214,-32.12657 86.2525,-24.44307 173.4117,4.08138 55.328,63.83889 -82.947,74.83083 119.1941,194.16684 57.7972,287.42173 151.567,91.14598 -111.9392,20.24496 -141.3042,111.97222 -85.9195,55.95923 126.8812,-84.92277 24.8094,-138.63706 -44.4689,-53.55198 -124.3559,-167.14965 -91.8809,-19.57591 2.0056,88.52889 92.308,119.71544 -37.0326,104.17201 -76.1045,-3.34605 -93.0838,12.66853 -32.4968,-42.95702 -1.6249,-113.22743 31.4962,-309.09887 -22.9146,-368.78668 z m 199.2928,76.68778 c -43.0784,27.00296 -43.6332,63.49849 0,0 z m -106.0177,90.26528 c -4.7808,80.85332 62.8765,-65.58821 0,0 z m 63.7126,0 c -14.2441,55.38847 176.1529,218.74259 76.8292,72.47034 -20.1365,-24.66324 -39.6172,-73.78626 -76.8292,-72.47034 z m 538.3068,-180.27913 c -46.2188,59.02727 -47.3111,188.18897 -89.1584,52.7172 -112.0489,-22.82311 -141.8384,108.67551 -14.5485,67.29701 1.563,41.51957 -28.8645,118.26215 20.9459,35.24424 0.3217,47.33368 31.1896,187.41798 -23.8782,87.3695 -246.7468,-79.14865 35.1319,249.13838 68.959,115.48115 47.8845,145.12383 -155.1817,24.93149 -238.6542,61.8873 -35.7853,7.78455 63.507,-123.11125 1.0831,-182.86979 -10.1274,-83.16935 41.44,-232.37369 -93.2618,-232.09791 113.3228,16.88263 234.3571,25.37374 346.2131,6.206 7.4333,-3.7449 14.8667,-7.4898 22.3,-11.2347 z m -212.0352,154.38129 c -4.6386,152.75557 193.6735,-45.03063 0,0 z m 0,191.09084 c -15.1364,85.59166 130.4378,45.93613 10.3774,9.12267 -5.2385,0.48202 -6.7119,-9.33175 -10.3774,-9.12267 z m 614.9253,-337.17477 c -98.0168,92.38136 -63.0089,302.31175 -23.4875,398.41057 -82.2857,41.12658 -184.6294,19.90142 -201.5307,84.30046 124.1549,-55.19089 142.885,-327.93937 -14.5408,-259.93932 0.3547,102.95648 40.1769,258.01133 -112.715,187.84368 84.5634,-105.84923 8.1527,-466.9645 16.3782,-395.01431 78.9669,-15.94345 158.4218,-14.08555 95.1605,83.51676 64.3519,77.44416 174.2131,-36.46489 91.4314,-86.53538 48.2393,-12.32273 99.7093,-14.53788 149.3039,-12.58246 z m -239.559,145.58105 c -22.4869,130.14277 225.0893,-2.05619 45.4482,-3.20348 -14.8136,4.94872 -30.2573,2.69474 -45.4482,3.20348 z m 468.2153,-148.84971 c 74.7371,-13.9614 234.6332,58.2069 183.4466,105.37816 66.5505,153.4992 -39.0687,272.11204 -150.1154,348.70962 -25.4239,97.9919 -32.1346,73.08465 -61.9518,-0.0663 -105.4195,-91.86578 -217.4951,-244.76744 -118.9633,-376.88191 -150.2216,7.84436 148.4172,-85.2226 147.5839,-77.13955 z m -63.2029,160.66718 c -27.6498,83.11246 42.4405,331.88819 125.2516,182.26516 59.7878,-90.33264 23.4458,-404.1038 -113.4963,-270.81415 -10.3584,28.26122 -12.0347,58.7503 -11.7553,88.54899 z m -51.4796,64.87031 c -1.5322,89.99639 57.4463,149.07403 7.3825,26.23011 l -7.3825,-26.23011 z m 245.6754,23.13205 c -29.0604,74.27807 -34.9214,136.69874 0.6394,26.58455 l 2.6095,-15.85696 -3.2489,-10.72759 z m -148.5776,164.94158 c 20.248,78.63619 97.5089,-26.38261 0,0 z M 2977.431,122.71915 c -147.0118,86.97557 -84.3624,265.93648 -97.2367,407.61818 -3.1765,59.17358 97.5698,25.19465 -13.1558,72.16051 -158.1903,26.46695 -285.2347,-166.50991 -250.5265,-313.67828 86.0392,-84.6007 -116.6359,-135.60215 21.4884,-109.16935 104.6858,-16.48966 114.546,36.8231 43.1834,119.11576 -76.4316,90.5407 93.769,312.25645 132.3787,147.79629 5.5655,-131.80563 -54.9808,-295.21283 126.7328,-308.68565 l 18.5044,-7.8976 18.6313,-7.25986 0,0 z m -227.0714,410.59389 c 39.066,98.64515 129.666,-35.81716 0,0 z M 3323.6487,133.028 c -110.7209,10.92571 -31.7919,275.75933 -102.9048,123.70688 -37.1271,19.85605 -53.5256,63.56912 -79.4925,-15.97789 -198.3068,-79.07303 228.3839,354.17076 89.3831,167.37497 195.0973,131.8721 -180.5691,252.89828 -187.5068,263.40071 146.9772,-86.70966 -135.9691,-84.35032 -126.6308,-208.88278 33.9839,61.20826 166.3355,130.76603 135.7365,5.03853 -0.6696,165.68043 220.3127,18.81751 79.1605,-56.4315 -61.8612,-86.60392 -299.1734,-44.15102 -147.0805,-158.77238 99.3839,-84.9328 244.1677,-59.80949 330.4157,-116.26653 l 7.3905,-3.19001 1.5291,0 0,0 z m -324.6789,122.70044 c 72.8779,79.51926 98.1863,-115.55911 0,0 z m 221.7195,247.16093 c 23.2778,36.99903 -1.518,-53.08738 0,0 z m 406.5555,-321.33435 c -46.2189,59.02721 -47.311,188.189 -89.1584,52.7172 -112.0489,-22.82313 -141.8384,108.6755 -14.5486,67.29701 1.563,41.51957 -28.8643,118.26215 20.946,35.24424 0.3217,47.3337 31.1896,187.41797 -23.8782,87.3695 -246.7471,-79.14869 35.1317,249.13841 68.959,115.48115 47.8845,145.12383 -155.1817,24.93149 -238.6542,61.8873 -35.7853,7.78455 63.507,-123.11125 1.0831,-182.86979 -10.1274,-83.16935 41.44,-232.37369 -93.2618,-232.09791 113.3228,16.88263 234.3571,25.37374 346.2131,6.206 7.4333,-3.7449 14.8667,-7.4898 22.3,-11.2347 z m -212.0352,154.38129 c -4.6387,152.75556 193.6735,-45.03063 0,0 z m 0,191.09084 c -15.1366,85.59165 130.4378,45.93614 10.3774,9.12267 -5.2385,0.48202 -6.7119,-9.33175 -10.3774,-9.12267 z"
         style="font-style:normal;font-variant:normal;font-weight:normal;font-stretch:normal;font-size:531.58752441px;line-height:125%;font-family:'Metal Macabre';-inkscape-font-specification:'Metal Macabre, Normal';text-align:center;letter-spacing:0px;word-spacing:0px;writing-mode:lr-tb;text-anchor:middle;opacity:1;fill:url(#linearGradient4850);fill-opacity:1;fill-rule:nonzero;stroke:url(#linearGradient4864);stroke-width:7.08661461;stroke-linecap:butt;stroke-linejoin:round;stroke-miterlimit:1;stroke-dasharray:none;stroke-dashoffset:0;stroke-opacity:1" />
    </clipPath>
    <filter
       y="-0.5"
       x="-0.5"
       width="1.0"
       height="10.0"
       id="filter">
      <feGaussianBlur
         id="feGaussianBlur6678"
         stdDeviation="5.0" />
    </filter>
    <filter
       style="color-interpolation-filters:sRGB;"
       inkscape:label="Drop Shadow"
       id="filter7214">
      <feFlood
         flood-opacity="0.498039"
         flood-color="rgb(0,0,0)"
         result="flood"
         id="feFlood7216" />
      <feComposite
         in="SourceGraphic"
         in2="flood"
         operator="in"
         result="composite1"
         id="feComposite7218" />
      <feGaussianBlur
         in="composite1"
         stdDeviation="0"
         result="blur"
         id="feGaussianBlur7220" />
      <feOffset
         dx="20"
         dy="20"
         result="offset"
         id="feOffset7222" />
      <feComposite
         in="SourceGraphic"
         in2="offset"
         operator="over"
         result="composite2"
         id="feComposite7224" />
    </filter>
    <filter
       inkscape:collect="always"
       style="color-interpolation-filters:sRGB"
       id="filter8082"
       x="-0.0390389"
       width="1.0780778"
       y="-0.062300675"
       height="1.1246014">
      <feGaussianBlur
         inkscape:collect="always"
         stdDeviation="58.792463"
         id="feGaussianBlur8084" />
    </filter>
    <linearGradient
       inkscape:collect="always"
       xlink:href="#linearGradient8153-3"
       id="linearGradient8159"
       x1="-878.60645"
       y1="815.40326"
       x2="130.53271"
       y2="1456.5166"
       gradientUnits="userSpaceOnUse"
       gradientTransform="matrix(0.93947653,0,0,0.91659246,-42.251744,93.608186)" />
    <linearGradient
       inkscape:collect="always"
       xlink:href="#linearGradient8153-3"
       id="linearGradient8243"
       gradientUnits="userSpaceOnUse"
       x1="-279.43008"
       y1="935.612"
       x2="-437.10806"
       y2="1349.6643"
       gradientTransform="matrix(0.93947653,0,0,0.91659246,-42.251744,93.608186)" />
  </defs>
  <metadata
     id="metadata7">
    <rdf:RDF>
      <cc:Work
         rdf:about="">
        <dc:format>image/svg+xml</dc:format>
        <dc:type
           rdf:resource="http://purl.org/dc/dcmitype/StillImage" />
        <dc:title></dc:title>
      </cc:Work>
    </rdf:RDF>
  </metadata>
  <g
     style="display:none"
     inkscape:label="Background"
     id="layer2"
     inkscape:groupmode="layer">
    <rect
       style="opacity:1;fill:#ffffff;fill-opacity:1;fill-rule:nonzero;stroke:none;stroke-width:3.50078773;stroke-linecap:butt;stroke-linejoin:round;stroke-miterlimit:4;stroke-dasharray:none;stroke-opacity:1"
       id="rect4180"
       width="3628.3464"
       height="2267.7166"
       x="0"
       y="-1.7859722" />
  </g>
  <g
     transform="translate(0,1215.3541)"
     id="layer1"
     inkscape:groupmode="layer"
     inkscape:label="TextLayer">
    <text
       sodipodi:linespacing="125%"
       id="text3502"
       y="-896.45654"
       x="61.37188"
       style="font-style:normal;font-variant:normal;font-weight:normal;font-stretch:normal;font-size:270px;line-height:125%;font-family:'Metal Macabre';-inkscape-font-specification:'Metal Macabre, Normal';text-align:center;letter-spacing:0px;word-spacing:0px;writing-mode:lr-tb;text-anchor:middle;fill:#000000;fill-opacity:1;stroke:url(#radialGradient4312);stroke-width:1px;stroke-linecap:butt;stroke-linejoin:miter;stroke-opacity:1;"
       xml:space="preserve"><tspan
         style="stroke:url(#radialGradient4312);fill:#000000;fill-opacity:1;"
         y="-896.45654"
         x="61.37188"
         id="tspan3504"
         sodipodi:role="line" /></text>
    <text
       sodipodi:linespacing="125%"
       id="text4314"
       y="-825.59039"
       x="61.37188"
       style="font-style:normal;font-variant:normal;font-weight:normal;font-stretch:normal;font-size:270px;line-height:125%;font-family:'Metal Macabre';-inkscape-font-specification:'Metal Macabre, Normal';text-align:center;letter-spacing:0px;word-spacing:0px;writing-mode:lr-tb;text-anchor:middle;fill:#000000;fill-opacity:1;stroke:none;stroke-width:1px;stroke-linecap:butt;stroke-linejoin:miter;stroke-opacity:1"
       xml:space="preserve"><tspan
         y="-825.59039"
         x="61.37188"
         id="tspan4316"
         sodipodi:role="line" /></text>
    <path
       inkscape:connector-curvature="0"
       id="path6689"
       d="m 1220.0827,-1216.9282 c 116.5106,-30.5147 349.0583,152.101 126.7245,139.7237 -131.0423,60.5601 134.9045,67.3855 104.0764,182.38238 25.6173,98.19096 -116.4762,175.99954 43.1137,196.86171 68.2614,23.35448 122.7569,67.08443 22.1873,20.2587 -111.9018,-77.63909 -234.5014,8.55281 -304.6707,70.25084 89.3175,-51.51916 197.369,-162.98208 50.4193,-216.15569 -26.7537,-81.83534 -177.6186,-178.27244 -109.6005,-49.76417 52.4992,-92.87004 48.4912,186.51888 -4.6335,69.52505 -68.8135,74.7822 138.3054,167.2428 -19.3058,101.0719 -54.218,-57.06708 -189.26508,53.86892 -104.9661,-53.23364 56.8977,-125.07251 -91.10652,38.38143 -43.76121,-78.73327 -53.55285,-40.98544 -182.16793,141.1024 -205.01044,224.45043 -121.91876,220.71852 98.10036,-245.75011 51.74992,-139.84359 77.71227,-123.47333 246.03633,-166.50018 225.09473,-328.05345 116.015,-107.6906 -216.10037,25.3675 -51.9892,-68.6617 65.3465,-42.2218 142.2258,-69.8243 220.5716,-70.0792 z m -87.6684,136.0264 c 59.2957,92.62683 144.3226,334.6255 264.2419,272.71039 54.9631,-108.18261 -157.6038,-236.13809 -178.566,-228.72869 167.5838,-28.8483 69.2018,-212.5753 -54.1551,-107.2199 -17.2346,16.8071 -27.4269,39.7622 -31.5208,63.2382 z m -143.99022,205.92557 c 75.56512,53.53246 55.06052,-87.26438 0,0 z m 513.77172,-250.17817 c 76.5391,10.7321 183.4571,-30.18 140.253,41.4249 -60.5869,73.5543 -15.0177,210.62741 -29.1385,311.33888 77.938,-1.69944 -56.4192,47.08079 45.873,52.04712 -50.039,-9.52076 -189.2419,27.31394 -121.7371,-30.58132 0.284,-41.42878 36.935,-189.43117 12.7056,-284.60228 -6.8642,-55.3951 -54.2994,-31.0379 -10.9157,-64.0193 -10.9031,-6.8447 -29.2867,-14.8187 -37.0403,-25.608 z m 452.6673,-20.6177 c 60.5168,32.4644 171.7794,-17.115 75.579,81.6215 -66.9991,123.55907 -118.4233,382.72827 -201.1555,429.18859 27.4259,-139.10367 -67.6383,-259.79382 -83.3681,-394.18539 -22.2469,-72.6384 -123.009,-112.8171 14.744,-103.8311 111.8945,-24.4143 1.6132,77.6192 70.5236,146.77421 28.8708,75.662 75.789,226.55459 108.837,68.17663 69.7524,-93.86574 -110.0704,-165.88574 -80.1162,-171.07274 29.3479,-22.2114 59.9015,-44.3321 94.9562,-56.6717 z m 23.701,28.9151 c -4.6337,80.1 58.2364,27.6578 0,0 z m 442.4237,-21.6234 c -46.2189,59.0272 -47.3111,188.18891 -89.1583,52.7171 -112.049,-22.8231 -141.8385,108.67552 -14.5487,67.2971 1.563,41.51955 -28.8644,118.26212 20.946,35.24421 0.3216,47.33368 31.1895,187.41798 -23.8782,87.36949 -246.747,-79.14864 35.1318,249.13841 68.959,115.48115 47.8844,145.12382 -155.1817,24.93149 -238.6542,61.88731 -35.7853,7.78452 63.5069,-123.11129 1.0831,-182.8698 -10.1274,-83.16936 41.44,-232.37376 -93.2618,-232.09796 113.3227,16.8828 234.3569,25.3736 346.213,6.2061 7.4333,-3.7449 14.8667,-7.4898 22.3001,-11.2347 z m -212.0352,154.38124 c -4.6387,152.75556 193.6734,-45.03064 0,0 z m 0,191.09084 c -15.1364,85.59166 130.4376,45.93611 10.3773,9.12267 -5.2384,0.48201 -6.712,-9.33161 -10.3773,-9.12267 z m 231.1211,-334.66038 c 109.9172,3.5776 265.3887,-27.2685 320.558,98.1148 -152.5513,27.4863 48.0177,131.95899 -15.7528,235.19974 29.2769,99.11414 24.6161,59.10912 -59.503,99.02706 -37.6066,40.91909 -148.8096,124.13186 -56.5815,20.14088 94.0532,-53.50076 -122.4065,-189.31056 -82.9747,-211.14116 -36.1139,107.11882 119.4417,265.23625 -58.7765,169.21444 -90.3913,31.14345 35.3547,-107.47848 -5.9386,-173.11043 -11.4831,-44.42068 24.9859,-146.90293 -22.108,-148.20513 -83.7021,11.438 79.7212,-58.92 -18.9229,-89.2402 z m 101.4303,120.4374 c -22.7874,94.20031 68.5098,88.28945 70.3834,13.26281 112.8557,-87.82181 -73.8289,-147.39261 -70.3834,-13.26281 z m 79.5132,92.27686 c 28.3575,49.7191 117.5555,219.22663 92.139,69.31966 -11.9169,-35.70503 -46.3952,-91.63095 -92.139,-69.31966 z m -936.3061,358.0439 c 116.5106,-30.51462 349.0583,152.10109 126.7245,139.72377 -131.0423,60.56002 134.9045,67.38547 104.0764,182.38237 25.6174,98.1909 -116.4761,175.999551 43.1137,196.861724 68.2614,23.354492 122.7568,67.084438 22.1873,20.2587 -111.9018,-77.63912 -234.5013,8.5528662 -304.6706,70.250841 89.3175,-51.51919 197.3689,-162.982065 50.4192,-216.155695 -26.7537,-81.83529 -177.6184,-178.27247 -109.6005,-49.76416 52.4992,-92.87009 48.4912,186.518878 -4.6335,69.52504 -68.8134,74.782193 138.3054,167.242815 -19.3058,101.071911 -54.218,-57.067078 -189.265,53.868916 -104.9661,-53.233653 56.8977,-125.072518 -91.1065,38.381418 -43.7612,-78.733268 -53.5529,-40.98544 -182.1679,141.102418 -205.0104,224.450437 -121.919,220.718763 98.1005,-245.750567 51.7499,-139.843593 77.7123,-123.473314 246.0363,-166.500214 225.0947,-328.053464 116.0151,-107.69046 -216.1004,25.36747 -51.9891,-68.6617 65.3464,-42.22173 142.2257,-69.8243 220.5715,-70.07926 z m -87.6684,136.02651 c 59.2957,92.6268 144.3227,334.625411 264.2419,272.71036 54.9631,-108.18259 -157.6037,-236.13808 -178.566,-228.72862 167.5838,-28.84835 69.2019,-212.57544 -54.155,-107.21998 -17.2346,16.80713 -27.4269,39.76225 -31.5209,63.23824 z m -143.9902,205.92553 c 75.5651,53.53247 55.0605,-87.26438 0,0 z m 423.2999,-284.12191 c 125.2831,75.19946 277.9503,-2.84648 405.6943,67.80328 86.0051,15.42393 -47.2324,80.21153 -3.0348,157.59202 1.5687,143.56737 -166.6195,209.909404 -289.6585,213.409532 -103.8939,12.630394 46.1467,-101.632012 -10.5046,-177.565842 23.565,-120.73969 -9.784,-187.84795 -102.4964,-261.23899 z m 274.4735,63.3617 c 84.3959,45.51855 41.4787,334.69639 72.8573,128.99008 2.0173,-51.53287 -19.2522,-111.4961 -72.8573,-128.99008 z m -102.7046,77.19064 c -10.6538,101.88322 -17.46,383.686487 100.1958,188.97989 58.8477,-68.91901 -43.5103,-402.10755 -100.1958,-188.97989 z M 29.045152,122.21628 c 139.698558,111.50251 294.502678,-45.255794 448.618658,17.5727 88.10182,20.68031 180.23008,96.59203 36.4716,98.85255 -143.74596,37.60165 131.43134,107.83669 69.62157,220.8021 -24.85897,188.60054 -277.34921,79.99258 -362.18643,199.74836 -31.88702,132.44549 26.03801,260.00038 62.06977,385.28911 C 199.10318,919.56321 187.55021,759.94268 202.80457,620.24738 165.44342,586.01826 42.253037,610.30665 153.05205,597.53501 214.31605,524.78198 137.62511,506.39189 132.13284,534.99784 93.987464,424.53357 209.69202,504.55475 190.57321,390.81752 145.15194,329.08571 272.50427,207.66302 130.45371,251.35809 71.887639,287.51531 -50.74943,418.31415 53.353014,285.9923 163.37673,226.61963 115.78775,163.29311 29.045152,122.21628 Z M 273.19148,334.4277 c 29.20161,58.71278 118.93906,-148.07721 146.78609,-90.78008 99.77132,-128.28049 -246.52594,-71.93568 -146.72039,74.17302 l -0.0339,8.56005 -0.0318,8.04701 -4e-5,0 z m 6.37124,142.06095 c 70.22949,-105.91273 63.69401,171.36785 10.51841,63.25252 -5.47834,110.88569 306.35667,-3.1889 217.68145,-146.93702 C 435.26236,224.91381 301.586,358.01658 279.56272,476.48865 Z M 693.6323,135.03948 c 94.91853,46.64518 205.57478,51.944 241.9801,87.37378 -45.46211,102.55552 -47.19965,303.45448 19.71051,409.93552 -57.04895,-52.54258 -213.18096,1.2521 -112.06312,-89.9469 43.1549,-134.9476 -224.9701,-86.9436 -96.07583,25.00416 44.1655,65.12898 75.31085,176.18513 -10.31457,58.36253 -55.91361,-37.21882 -69.78726,-64.65651 -113.06624,-23.61223 -145.93488,26.5491 64.6285,-69.06386 20.23671,-159.64808 C 619.67462,330.02332 733.74337,263.11142 772.81027,198.22003 744.31149,180.01778 712.70996,164.53804 693.6323,135.03948 Z m 8.91976,272.05302 c 11.19104,56.66066 101.44975,-143.08772 33.56128,-17.49755 -66.00759,-9.04168 146.49111,-205.03549 83.59157,-114.58767 39.42661,-114.96683 -161.15538,53.07357 -117.03565,129.70633 l -0.1172,2.37889 z M 827.68342,299.98106 c 24.46391,17.87793 12.646,-49.23533 0,0 z M 724.46916,443.04775 c 87.11629,40.41402 174.92444,-51.53538 94.76187,-114.31358 -41.59847,20.83783 -62.16022,79.52657 -94.76187,114.31358 z m -87.1587,130.24351 c 72.4666,71.1676 7.52187,-104.43514 0,0 z M 1028.4893,194.88109 c 42.8311,5.38073 210.7611,-11.26228 101.6731,34.67839 -49.5238,147.37939 94.4537,53.91213 86.0214,-32.12657 86.2525,-24.44307 173.4117,4.08138 55.328,63.83889 -82.947,74.83083 119.1941,194.16684 57.7972,287.42173 151.567,91.14598 -111.9392,20.24496 -141.3042,111.97222 -85.9195,55.95923 126.8812,-84.92277 24.8094,-138.63706 -44.4689,-53.55198 -124.3559,-167.14965 -91.8809,-19.57591 2.0056,88.52889 92.308,119.71544 -37.0326,104.17201 -76.1045,-3.34605 -93.0838,12.66853 -32.4968,-42.95702 -1.6249,-113.22743 31.4962,-309.09887 -22.9146,-368.78668 z m 199.2928,76.68778 c -43.0784,27.00296 -43.6332,63.49849 0,0 z m -106.0177,90.26528 c -4.7808,80.85332 62.8765,-65.58821 0,0 z m 63.7126,0 c -14.2441,55.38847 176.1529,218.74259 76.8292,72.47034 -20.1365,-24.66324 -39.6172,-73.78626 -76.8292,-72.47034 z m 538.3068,-180.27913 c -46.2188,59.02727 -47.3111,188.18897 -89.1584,52.7172 -112.0489,-22.82311 -141.8384,108.67551 -14.5485,67.29701 1.563,41.51957 -28.8645,118.26215 20.9459,35.24424 0.3217,47.33368 31.1896,187.41798 -23.8782,87.3695 -246.7468,-79.14865 35.1319,249.13838 68.959,115.48115 47.8845,145.12383 -155.1817,24.93149 -238.6542,61.8873 -35.7853,7.78455 63.507,-123.11125 1.0831,-182.86979 -10.1274,-83.16935 41.44,-232.37369 -93.2618,-232.09791 113.3228,16.88263 234.3571,25.37374 346.2131,6.206 7.4333,-3.7449 14.8667,-7.4898 22.3,-11.2347 z m -212.0352,154.38129 c -4.6386,152.75557 193.6735,-45.03063 0,0 z m 0,191.09084 c -15.1364,85.59166 130.4378,45.93613 10.3774,9.12267 -5.2385,0.48202 -6.7119,-9.33175 -10.3774,-9.12267 z m 614.9253,-337.17477 c -98.0168,92.38136 -63.0089,302.31175 -23.4875,398.41057 -82.2857,41.12658 -184.6294,19.90142 -201.5307,84.30046 124.1549,-55.19089 142.885,-327.93937 -14.5408,-259.93932 0.3547,102.95648 40.1769,258.01133 -112.715,187.84368 84.5634,-105.84923 8.1527,-466.9645 16.3782,-395.01431 78.9669,-15.94345 158.4218,-14.08555 95.1605,83.51676 64.3519,77.44416 174.2131,-36.46489 91.4314,-86.53538 48.2393,-12.32273 99.7093,-14.53788 149.3039,-12.58246 z m -239.559,145.58105 c -22.4869,130.14277 225.0893,-2.05619 45.4482,-3.20348 -14.8136,4.94872 -30.2573,2.69474 -45.4482,3.20348 z m 468.2153,-148.84971 c 74.7371,-13.9614 234.6332,58.2069 183.4466,105.37816 66.5505,153.4992 -39.0687,272.11204 -150.1154,348.70962 -25.4239,97.9919 -32.1346,73.08465 -61.9518,-0.0663 -105.4195,-91.86578 -217.4951,-244.76744 -118.9633,-376.88191 -150.2216,7.84436 148.4172,-85.2226 147.5839,-77.13955 z m -63.2029,160.66718 c -27.6498,83.11246 42.4405,331.88819 125.2516,182.26516 59.7878,-90.33264 23.4458,-404.1038 -113.4963,-270.81415 -10.3584,28.26122 -12.0347,58.7503 -11.7553,88.54899 z m -51.4796,64.87031 c -1.5322,89.99639 57.4463,149.07403 7.3825,26.23011 l -7.3825,-26.23011 z m 245.6754,23.13205 c -29.0604,74.27807 -34.9214,136.69874 0.6394,26.58455 l 2.6095,-15.85696 -3.2489,-10.72759 z m -148.5776,164.94158 c 20.248,78.63619 97.5089,-26.38261 0,0 z M 2977.431,122.71915 c -147.0118,86.97557 -84.3624,265.93648 -97.2367,407.61818 -3.1765,59.17358 97.5698,25.19465 -13.1558,72.16051 -158.1903,26.46695 -285.2347,-166.50991 -250.5265,-313.67828 86.0392,-84.6007 -116.6359,-135.60215 21.4884,-109.16935 104.6858,-16.48966 114.546,36.8231 43.1834,119.11576 -76.4316,90.5407 93.769,312.25645 132.3787,147.79629 5.5655,-131.80563 -54.9808,-295.21283 126.7328,-308.68565 l 18.5044,-7.8976 18.6313,-7.25986 0,0 z m -227.0714,410.59389 c 39.066,98.64515 129.666,-35.81716 0,0 z M 3323.6487,133.028 c -110.7209,10.92571 -31.7919,275.75933 -102.9048,123.70688 -37.1271,19.85605 -53.5256,63.56912 -79.4925,-15.97789 -198.3068,-79.07303 228.3839,354.17076 89.3831,167.37497 195.0973,131.8721 -180.5691,252.89828 -187.5068,263.40071 146.9772,-86.70966 -135.9691,-84.35032 -126.6308,-208.88278 33.9839,61.20826 166.3355,130.76603 135.7365,5.03853 -0.6696,165.68043 220.3127,18.81751 79.1605,-56.4315 -61.8612,-86.60392 -299.1734,-44.15102 -147.0805,-158.77238 99.3839,-84.9328 244.1677,-59.80949 330.4157,-116.26653 l 7.3905,-3.19001 1.5291,0 0,0 z m -324.6789,122.70044 c 72.8779,79.51926 98.1863,-115.55911 0,0 z m 221.7195,247.16093 c 23.2778,36.99903 -1.518,-53.08738 0,0 z m 406.5555,-321.33435 c -46.2189,59.02721 -47.311,188.189 -89.1584,52.7172 -112.0489,-22.82313 -141.8384,108.6755 -14.5486,67.29701 1.563,41.51957 -28.8643,118.26215 20.946,35.24424 0.3217,47.3337 31.1896,187.41797 -23.8782,87.3695 -246.7471,-79.14869 35.1317,249.13841 68.959,115.48115 47.8845,145.12383 -155.1817,24.93149 -238.6542,61.8873 -35.7853,7.78455 63.507,-123.11125 1.0831,-182.86979 -10.1274,-83.16935 41.44,-232.37369 -93.2618,-232.09791 113.3228,16.88263 234.3571,25.37374 346.2131,6.206 7.4333,-3.7449 14.8667,-7.4898 22.3,-11.2347 z m -212.0352,154.38129 c -4.6387,152.75556 193.6735,-45.03063 0,0 z m 0,191.09084 c -15.1366,85.59165 130.4378,45.93614 10.3774,9.12267 -5.2385,0.48202 -6.7119,-9.33175 -10.3774,-9.12267 z"
       style="font-style:normal;font-variant:normal;font-weight:normal;font-stretch:normal;font-size:531.58752441px;line-height:125%;font-family:'Metal Macabre';-inkscape-font-specification:'Metal Macabre, Normal';text-align:center;letter-spacing:0px;word-spacing:0px;writing-mode:lr-tb;text-anchor:middle;opacity:1;fill:url(#linearGradient4850);fill-opacity:1;fill-rule:nonzero;stroke:url(#linearGradient4864);stroke-width:7.08661461;stroke-linecap:butt;stroke-linejoin:round;stroke-miterlimit:1;stroke-dasharray:none;stroke-dashoffset:0;stroke-opacity:1;filter:url(#filter7214)" />
    <g
       id="g6692"
       clip-path="url(#clipPath)">
      <g
         id="g6694">
        <path
           inkscape:connector-curvature="0"
           id="path6696"
           d="M1220.0827 -1216.9282C1336.5933 -1247.4429 1569.141 -1064.8272 1346.8072 -1077.2045M1346.8072 -1077.2045C1215.7649 -1016.6444 1481.7117 -1009.819 1450.8836 -894.82212M1450.8836 -894.82212C1476.5009 -796.63116 1334.4074 -718.82258 1493.9973 -697.96041M1493.9973 -697.96041C1562.2587 -674.60593 1616.7542 -630.87598 1516.1846 -677.70171M1516.1846 -677.70171C1404.2828 -755.3408 1281.6832 -669.1489 1211.5139 -607.45087M1152.3327 -873.37073C1204.8319 -966.24077 1200.8239 -686.85185 1147.6992 -803.84568M1147.6992 -803.84568C1078.8857 -729.06348 1286.0046 -636.60288 1128.3934 -702.77378M979.66609 -834.74069C926.11324 -875.72613 797.49816 -693.63829 774.65565 -610.29026M1132.4143 -1080.9018C1191.71 -988.27497 1276.7369 -746.2763 1396.6562 -808.19141M1163.9351 -1144.14C1146.7005 -1127.3329 1136.5082 -1104.3778 1132.4143 -1080.9018M988.42408 -874.97623C1063.9892 -821.44377 1043.4846 -962.24061 988.42408 -874.97623M1502.1958 -1125.1544C1578.7349 -1114.4223 1685.6529 -1155.3344 1642.4488 -1083.7295M1642.4488 -1083.7295C1581.8619 -1010.1752 1627.4311 -873.10209 1613.3103 -772.39062M1613.3103 -772.39062C1691.2483 -774.09006 1556.8911 -725.30983 1659.1833 -720.3435M1954.8631 -1145.7721C2015.3799 -1113.3077 2126.6425 -1162.8871 2030.4421 -1064.1506M2030.4421 -1064.1506C1963.443 -940.59153 1912.0188 -681.42233 1829.2866 -634.96201M1760.6625 -1132.9785C1872.557 -1157.3928 1762.2757 -1055.3593 1831.1861 -986.20429M1831.1861 -986.20429C1860.0569 -910.54229 1906.9751 -759.6497 1940.0231 -918.02766M1978.5641 -1116.857C1973.9304 -1036.757 2036.8005 -1089.1992 1978.5641 -1116.857M2420.9878 -1138.4804C2374.7689 -1079.4532 2373.6767 -950.29149 2331.8295 -1085.7633M2331.8295 -1085.7633C2219.7805 -1108.5864 2189.991 -977.08778 2317.2808 -1018.4662M2317.2808 -1018.4662C2318.8438 -976.94665 2288.4164 -900.20408 2338.2268 -983.22199M2338.2268 -983.22199C2338.5484 -935.88831 2369.4163 -795.80401 2314.3486 -895.8525M2314.3486 -895.8525C2067.6016 -975.00114 2349.4804 -646.71409 2383.3076 -780.37135M2383.3076 -780.37135C2431.192 -635.24753 2228.1259 -755.43986 2144.6534 -718.48404M2052.4747 -1133.4518C2165.7974 -1116.569 2286.8316 -1108.0782 2398.6877 -1127.2457M2208.9526 -984.09916C2204.3139 -831.3436 2402.626 -1029.1298 2208.9526 -984.09916M2208.9526 -793.00832C2193.8162 -707.41666 2339.3902 -747.07221 2219.3299 -783.88565M2440.0737 -1127.6687C2549.9909 -1124.0911 2705.4624 -1154.9372 2760.6317 -1029.5539M2760.6317 -1029.5539C2608.0804 -1002.0676 2808.6494 -897.59491 2744.8789 -794.35416M2744.8789 -794.35416C2774.1558 -695.24002 2769.495 -735.24504 2685.3759 -695.3271M2685.3759 -695.3271C2647.7693 -654.40801 2536.5663 -571.19524 2628.7944 -675.18622M2545.8197 -886.32738C2509.7058 -779.20856 2665.2614 -621.09113 2487.0432 -717.11294M2541.504 -1007.2313C2518.7166 -913.03099 2610.0138 -918.94185 2611.8874 -993.96849M2621.0172 -914.95444C2649.3747 -865.23534 2738.5727 -695.72781 2713.1562 -845.63478M1684.7111 -556.91054C1801.2217 -587.42516 2033.7694 -404.80945 1811.4356 -417.18677M1811.4356 -417.18677C1680.3933 -356.62675 1946.3401 -349.8013 1915.512 -234.8044M1915.512 -234.8044C1941.1294 -136.6135 1799.0359 -58.804849 1958.6257 -37.942676M1958.6257 -37.942676C2026.8871 -14.588184 2081.3825 29.141762 1980.813 -17.683976M1980.813 -17.683976C1868.9112 -95.323096 1746.3117 -9.1311098 1676.1424 52.566865M1616.9611 -213.35299C1669.4603 -306.22308 1665.4523 -26.834112 1612.3276 -143.82795M1612.3276 -143.82795C1543.5142 -69.045757 1750.633 23.414865 1593.0218 -42.756039M1444.2945 -174.72296C1390.7416 -215.7084 1262.1266 -33.620542 1239.2841 49.727477M1597.0427 -420.88403C1656.3384 -328.25723 1741.3654 -86.258619 1861.2846 -148.17367M1628.5636 -484.12227C1611.329 -467.31514 1601.1367 -444.36002 1597.0427 -420.88403M1453.0525 -214.9585C1528.6176 -161.42603 1508.113 -302.22288 1453.0525 -214.9585M1876.3524 -499.08041C2001.6355 -423.88095 2154.3027 -501.92689 2282.0467 -431.27713M2282.0467 -431.27713C2368.0518 -415.8532 2234.8143 -351.0656 2279.0119 -273.68511M2279.0119 -273.68511C2280.5806 -130.11774 2112.3924 -63.775706 1989.3534 -60.275578M2150.8259 -435.71871C2235.2218 -390.20016 2192.3046 -101.02232 2223.6832 -306.72863M2048.1213 -358.52807C2037.4675 -256.64485 2030.6613 25.158417 2148.3171 -169.54818M29.045152 122.21628C168.74371 233.71879 323.54783 76.960486 477.66381 139.78898M477.66381 139.78898C565.76563 160.46929 657.89389 236.38101 514.13541 238.64153M514.13541 238.64153C370.38945 276.24318 645.56675 346.47822 583.75698 459.44363M583.75698 459.44363C558.89801 648.04417 306.40777 539.43621 221.57055 659.19199M221.57055 659.19199C189.68353 791.63748 247.60856 919.19237 283.64032 1044.4811M130.45371 251.35809C71.887639 287.51531 -50.74943 418.31415 53.353014 285.9923M419.97757 243.64762C519.74889 115.36713 173.45163 171.71194 273.25718 317.82064M273.25718 317.82064L273.22328 326.38069M273.22328 326.38069L273.19148 334.4277M279.56272 476.48865C349.79221 370.57592 343.25673 647.8565 290.08113 539.74117M507.76258 392.80415C435.26236 224.91381 301.586 358.01658 279.56272 476.48865M693.6323 135.03948C788.55083 181.68466 899.20708 186.98348 935.6124 222.41326M935.6124 222.41326C890.15029 324.96878 888.41275 525.86774 955.32291 632.34878M843.25979 542.40188C886.41469 407.45428 618.28969 455.45828 747.18396 567.40604M747.18396 567.40604C791.34946 632.53502 822.49481 743.59117 736.86939 625.76857M819.70491 275.00728C859.13152 160.04045 658.54953 328.08085 702.66926 404.71361M702.66926 404.71361L702.55206 407.0925M827.68342 299.98106C852.14733 317.85899 840.32942 250.74573 827.68342 299.98106M819.23103 328.73417C777.63256 349.572 757.07081 408.26074 724.46916 443.04775M637.31046 573.29126C709.77706 644.45886 644.83233 468.85612 637.31046 573.29126M1028.4893 194.88109C1071.3204 200.26182 1239.2504 183.61881 1130.1624 229.55948M1216.1838 197.43291C1302.4363 172.98984 1389.5955 201.51429 1271.5118 261.2718M1271.5118 261.2718C1188.5648 336.10263 1390.7059 455.43864 1329.309 548.69353M1329.309 548.69353C1480.876 639.83951 1217.3698 568.93849 1188.0048 660.66575M1120.9333 502.45278C1122.9389 590.98167 1213.2413 622.16822 1083.9007 606.62479M1227.7821 271.56887C1184.7037 298.57183 1184.1489 335.06736 1227.7821 271.56887M1121.7644 361.83415C1116.9836 442.68747 1184.6409 296.24594 1121.7644 361.83415M1185.477 361.83415C1171.2329 417.22262 1361.6299 580.57674 1262.3062 434.30449M1723.7838 181.55502C1677.565 240.58229 1676.4727 369.74399 1634.6254 234.27222M1634.6254 234.27222C1522.5765 211.44911 1492.787 342.94773 1620.0769 301.56923M1620.0769 301.56923C1621.6399 343.0888 1591.2124 419.83138 1641.0228 336.81347M1641.0228 336.81347C1641.3445 384.14715 1672.2124 524.23145 1617.1446 424.18297M1617.1446 424.18297C1370.3978 345.03432 1652.2765 673.32135 1686.1036 539.66412M1686.1036 539.66412C1733.9881 684.78795 1530.9219 564.59561 1447.4494 601.55142M1355.2707 186.58372C1468.5935 203.46635 1589.6278 211.95746 1701.4838 192.78972M1511.7486 335.93631C1507.11 488.69188 1705.4221 290.90568 1511.7486 335.93631M1511.7486 527.02715C1496.6122 612.61881 1642.1864 572.96328 1522.126 536.14982M2126.6739 189.85238C2028.6571 282.23374 2063.665 492.16413 2103.1864 588.26295M2103.1864 588.26295C2020.9007 629.38953 1918.557 608.16437 1901.6557 672.56341M1887.1149 412.62409C1887.4696 515.58057 1927.2918 670.63542 1774.3999 600.46777M1790.7781 205.45346C1869.745 189.51001 1949.1999 191.36791 1885.9386 288.97022M1932.5631 332.22995C1917.7495 337.17867 1902.3058 334.92469 1887.1149 335.43343M2355.3302 186.58372C2430.0673 172.62232 2589.9634 244.79062 2538.7768 291.96188M2538.7768 291.96188C2605.3273 445.46108 2499.7081 564.07392 2388.6614 640.6715M2292.1273 347.2509C2264.4775 430.36336 2334.5678 679.13909 2417.3789 529.51606M2303.8826 258.70191C2293.5242 286.96313 2291.8479 317.45221 2292.1273 347.2509M2240.6477 412.12121C2239.1155 502.1176 2298.094 561.19524 2248.0302 438.35132M2486.3231 435.25326C2457.2627 509.53133 2451.4017 571.952 2486.9625 461.83781M2337.7455 600.19484C2357.9935 678.83103 2435.2544 573.81223 2337.7455 600.19484M2977.431 122.71915C2830.4192 209.69472 2893.0686 388.65563 2880.1943 530.33733M2880.1943 530.33733C2877.0178 589.51091 2977.7641 555.53198 2867.0385 602.49784M2638.0004 179.65021C2742.6862 163.16055 2752.5464 216.47331 2681.1838 298.76597M2681.1838 298.76597C2604.7522 389.30667 2774.9528 611.02242 2813.5625 446.56226M2977.431 122.71915L2977.431 122.71915M2750.3596 533.31304C2789.4256 631.95819 2880.0256 497.49588 2750.3596 533.31304M3323.6487 133.028C3212.9278 143.95371 3291.8568 408.78733 3220.7439 256.73488M3141.2514 240.75699C2942.9446 161.68396 3369.6353 594.92775 3230.6345 408.13196M3230.6345 408.13196C3425.7318 540.00406 3050.0654 661.03024 3043.1277 671.53267M2916.4969 462.64989C2950.4808 523.85815 3082.8324 593.41592 3052.2334 467.68842M3322.1196 133.028L3323.6487 133.028M3323.6487 133.028L3323.6487 133.028M2998.9698 255.72844C3071.8477 335.2477 3097.1561 140.16933 2998.9698 255.72844M3220.6893 502.88937C3243.9671 539.8884 3219.1713 449.80199 3220.6893 502.88937M3627.2448 181.55502C3581.0259 240.58223 3579.9338 369.74402 3538.0864 234.27222M3538.0864 234.27222C3426.0375 211.44909 3396.248 342.94772 3523.5378 301.56923M3523.5378 301.56923C3525.1008 343.0888 3494.6735 419.83138 3544.4838 336.81347M3544.4838 336.81347C3544.8055 384.14717 3575.6734 524.23144 3520.6056 424.18297M3520.6056 424.18297C3273.8585 345.03428 3555.7373 673.32138 3589.5646 539.66412M3589.5646 539.66412C3637.4491 684.78795 3434.3829 564.59561 3350.9104 601.55142M3258.7317 186.58372C3372.0545 203.46635 3493.0888 211.95746 3604.9448 192.78972M3415.2096 335.93631C3410.5709 488.69187 3608.8831 290.90568 3415.2096 335.93631M3415.2096 527.02715C3400.073 612.6188 3545.6474 572.96329 3425.587 536.14982"
           style="fill:none;stroke:#000000;stroke-opacity:1;stroke-width:10;filter:url(#filter8082)" />
        <path
           inkscape:connector-curvature="0"
           id="path6698"
           d="M1211.5139 -607.45087C1300.8314 -658.97003 1408.8829 -770.43295 1261.9332 -823.60656M1261.9332 -823.60656C1235.1795 -905.4419 1084.3146 -1001.879 1152.3327 -873.37073M1128.3934 -702.77378C1074.1754 -759.84086 939.12832 -648.90486 1023.4273 -756.00742M1023.4273 -756.00742C1080.325 -881.07993 932.32078 -717.62599 979.66609 -834.74069M774.65565 -610.29026C652.73689 -389.57174 872.75601 -856.04037 826.40557 -750.13385M826.40557 -750.13385C904.11784 -873.60718 1072.4419 -916.63403 1051.5003 -1078.1873M1051.5003 -1078.1873C1167.5153 -1185.8779 835.39993 -1052.8198 999.5111 -1146.849M999.5111 -1146.849C1064.8576 -1189.0708 1141.7369 -1216.6733 1220.0827 -1216.9282M1396.6562 -808.19141C1451.6193 -916.37402 1239.0524 -1044.3295 1218.0902 -1036.9201M1218.0902 -1036.9201C1385.674 -1065.7684 1287.292 -1249.4954 1163.9351 -1144.14M1659.1833 -720.3435C1609.1443 -729.86426 1469.9414 -693.02956 1537.4462 -750.92482M1537.4462 -750.92482C1537.7302 -792.3536 1574.3812 -940.35599 1550.1518 -1035.5271M1550.1518 -1035.5271C1543.2876 -1090.9222 1495.8524 -1066.565 1539.2361 -1099.5464M1539.2361 -1099.5464C1528.333 -1106.3911 1509.9494 -1114.3651 1502.1958 -1125.1544M1829.2866 -634.96201C1856.7125 -774.06568 1761.6483 -894.75583 1745.9185 -1029.1474M1745.9185 -1029.1474C1723.6716 -1101.7858 1622.9095 -1141.9645 1760.6625 -1132.9785M1940.0231 -918.02766C2009.7755 -1011.8934 1829.9527 -1083.9134 1859.9069 -1089.1004M1859.9069 -1089.1004C1889.2548 -1111.3118 1919.8084 -1133.4325 1954.8631 -1145.7721M2144.6534 -718.48404C2108.8681 -710.69952 2208.1603 -841.59533 2145.7365 -901.35384M2145.7365 -901.35384C2135.6091 -984.5232 2187.1765 -1133.7276 2052.4747 -1133.4518M2398.6877 -1127.2457C2406.121 -1130.9906 2413.5544 -1134.7355 2420.9878 -1138.4804M2219.3299 -783.88565C2214.0915 -783.40364 2212.6179 -793.21726 2208.9526 -793.00832M2628.7944 -675.18622C2722.8476 -728.68698 2506.3879 -864.49678 2545.8197 -886.32738M2487.0432 -717.11294C2396.6519 -685.96949 2522.3979 -824.59142 2481.1046 -890.22337M2481.1046 -890.22337C2469.6215 -934.64405 2506.0905 -1037.1263 2458.9966 -1038.4285M2458.9966 -1038.4285C2375.2945 -1026.9905 2538.7178 -1097.3485 2440.0737 -1127.6687M2611.8874 -993.96849C2724.7431 -1081.7903 2538.0585 -1141.3611 2541.504 -1007.2313M2713.1562 -845.63478C2701.2393 -881.33981 2666.761 -937.26573 2621.0172 -914.95444M1676.1424 52.566865C1765.4599 1.047675 1873.5113 -110.4152 1726.5616 -163.58883M1726.5616 -163.58883C1699.8079 -245.42412 1548.9432 -341.8613 1616.9611 -213.35299M1593.0218 -42.756039C1538.8038 -99.823117 1403.7568 11.112877 1488.0557 -95.989692M1488.0557 -95.989692C1544.9534 -221.06221 1396.9492 -57.608274 1444.2945 -174.72296M1239.2841 49.727477C1117.3651 270.44624 1337.3846 -196.02309 1291.034 -90.116116M1291.034 -90.116116C1368.7463 -213.58943 1537.0703 -256.61633 1516.1287 -418.16958M1516.1287 -418.16958C1632.1438 -525.86004 1300.0283 -392.80211 1464.1396 -486.83128M1464.1396 -486.83128C1529.486 -529.05301 1606.3653 -556.65558 1684.7111 -556.91054M1861.2846 -148.17367C1916.2477 -256.35626 1703.6809 -384.31175 1682.7186 -376.90229M1682.7186 -376.90229C1850.3024 -405.75064 1751.9205 -589.47773 1628.5636 -484.12227M1989.3534 -60.275578C1885.4595 -47.645184 2035.5001 -161.90759 1978.8488 -237.84142M1978.8488 -237.84142C2002.4138 -358.58111 1969.0648 -425.68937 1876.3524 -499.08041M2223.6832 -306.72863C2225.7005 -358.2615 2204.431 -418.22473 2150.8259 -435.71871M2148.3171 -169.54818C2207.1648 -238.46719 2104.8068 -571.65573 2048.1213 -358.52807M283.64032 1044.4811C199.10318 919.56321 187.55021 759.94268 202.80457 620.24738M202.80457 620.24738C165.44342 586.01826 42.253037 610.30665 153.05205 597.53501M153.05205 597.53501C214.31605 524.78198 137.62511 506.39189 132.13284 534.99784M132.13284 534.99784C93.987464 424.53357 209.69202 504.55475 190.57321 390.81752M190.57321 390.81752C145.15194 329.08571 272.50427 207.66302 130.45371 251.35809M53.353014 285.9923C163.37673 226.61963 115.78775 163.29311 29.045152 122.21628M273.19148 334.4277C302.39309 393.14048 392.13054 186.35049 419.97757 243.64762M273.19148 334.4277L273.19144 334.4277M290.08113 539.74117C284.60279 650.62686 596.4378 536.55227 507.76258 392.80415M955.32291 632.34878C898.27396 579.8062 742.14195 633.60088 843.25979 542.40188M736.86939 625.76857C680.95578 588.54975 667.08213 561.11206 623.80315 602.15634M623.80315 602.15634C477.86827 628.70544 688.43165 533.09248 644.03986 442.50826M644.03986 442.50826C619.67462 330.02332 733.74337 263.11142 772.81027 198.22003M772.81027 198.22003C744.31149 180.01778 712.70996 164.53804 693.6323 135.03948M702.55206 407.0925C713.7431 463.75316 804.00181 264.00478 736.11334 389.59495M736.11334 389.59495C670.10575 380.55327 882.60445 184.55946 819.70491 275.00728M724.46916 443.04775C811.58545 483.46177 899.3936 391.51237 819.23103 328.73417M1130.1624 229.55948C1080.6386 376.93887 1224.6161 283.47161 1216.1838 197.43291M1188.0048 660.66575C1102.0853 716.62498 1314.886 575.74298 1212.8142 522.02869M1212.8142 522.02869C1168.3453 468.47671 1088.4583 354.87904 1120.9333 502.45278M1083.9007 606.62479C1007.7962 603.27874 990.8169 619.29332 1051.4039 563.66777M1051.4039 563.66777C1049.779 450.44034 1082.9001 254.5689 1028.4893 194.88109M1262.3062 434.30449C1242.1697 409.64125 1222.689 360.51823 1185.477 361.83415M1447.4494 601.55142C1411.6641 609.33597 1510.9564 478.44017 1448.5325 418.68163M1448.5325 418.68163C1438.4051 335.51228 1489.9725 186.30794 1355.2707 186.58372M1701.4838 192.78972C1708.9171 189.04482 1716.3505 185.29992 1723.7838 181.55502M1522.126 536.14982C1516.8875 536.63184 1515.4141 526.81807 1511.7486 527.02715M1901.6557 672.56341C2025.8106 617.37252 2044.5407 344.62404 1887.1149 412.62409M1774.3999 600.46777C1858.9633 494.61854 1782.5526 133.50327 1790.7781 205.45346M1885.9386 288.97022C1950.2905 366.41438 2060.1517 252.50533 1977.37 202.43484M1977.37 202.43484C2025.6093 190.11211 2077.0793 187.89696 2126.6739 189.85238M1887.1149 335.43343C1864.628 465.5762 2112.2042 333.37724 1932.5631 332.22995M2388.6614 640.6715C2363.2375 738.6634 2356.5268 713.75615 2326.7096 640.6052M2326.7096 640.6052C2221.2901 548.73942 2109.2145 395.83776 2207.7463 263.72329M2207.7463 263.72329C2057.5247 271.56765 2356.1635 178.50069 2355.3302 186.58374M2417.3789 529.51606C2477.1667 439.18342 2440.8247 125.41226 2303.8826 258.70191M2248.0302 438.35132L2240.6477 412.12121M2486.9625 461.83781L2489.572 445.98085M2489.572 445.98085L2486.3231 435.25326M2867.0385 602.49784C2708.8482 628.96479 2581.8038 435.98793 2616.512 288.81956M2616.512 288.81956C2702.5512 204.21886 2499.8761 153.21741 2638.0004 179.65021M2813.5625 446.56226C2819.128 314.75663 2758.5817 151.34943 2940.2953 137.87661M2940.2953 137.87661L2958.7997 129.97901M2958.7997 129.97901L2977.431 122.71915M3220.7439 256.73488C3183.6168 276.59093 3167.2183 320.304 3141.2514 240.75699M3043.1277 671.53267C3190.1049 584.82301 2907.1586 587.18235 2916.4969 462.64989M3052.2334 467.68842C3051.5638 633.36885 3272.5461 486.50593 3131.3939 411.25692M3131.3939 411.25692C3069.5327 324.653 2832.2205 367.1059 2984.3134 252.48454M2984.3134 252.48454C3083.6973 167.55174 3228.4811 192.67505 3314.7291 136.21801M3314.7291 136.21801L3322.1196 133.028M3350.9104 601.55142C3315.1251 609.33597 3414.4174 478.44017 3351.9935 418.68163M3351.9935 418.68163C3341.8661 335.51228 3393.4335 186.30794 3258.7317 186.58372M3604.9448 192.78972C3612.3781 189.04482 3619.8115 185.29992 3627.2448 181.55502M3425.587 536.14982C3420.3485 536.63184 3418.8751 526.81807 3415.2096 527.02715"
           style="fill:none;stroke:#000000;stroke-opacity:1;stroke-width:10;filter:url(#filter);" />
      </g>
    </g>
  </g>
  <g
     style="display:inline"
     inkscape:label="Knife"
     id="layer3"
     inkscape:groupmode="layer">
    <g
       transform="matrix(1.035744,0,0,1.4471349,960.0682,-756.41147)"
       inkscape:label="Layer 1"
       id="layer1-6"
       style="fill:url(#linearGradient8159);fill-opacity:1">
      <path
         style="fill:url(#linearGradient8243);fill-opacity:1;fill-rule:nonzero;stroke:#8b8b8b;stroke-width:5.78839428;stroke-linecap:butt;stroke-linejoin:round;stroke-miterlimit:4;stroke-dasharray:none;stroke-opacity:1"
         d="m -736.68781,1070.3412 c -5.74234,19.5657 109.91694,54.9334 162.29906,-3.8708 10.07419,-11.3093 8.6748,-40.0271 8.6748,-40.0271 l -154.80546,-96.33792 -185.1766,-107.59576 c -15.5156,-9.01525 -15.08952,-8.30866 21.75827,-19.34105 72.84845,-21.81068 96.41014,-1.08553 115.09657,9.59069 0,0 102.33878,65.96891 173.19768,114.53836 70.8589,48.56945 183.06353,127.68458 250.48085,177.93668 67.41732,50.2521 85.90008,68.1965 155.97438,121.9955 70.0743,53.799 218.343025,162.7672 265.477444,200.0669 47.134416,37.2997 23.420164,19.465 23.420164,19.465 0,0 -57.935979,1.9715 -86.869504,1.0552 -278.080564,-8.8066 -678.890684,-168.887 -749.527654,-377.4757 z m 670.075749,329.7344 c 20.328706,10.6897 -215.076759,-109.6565 -313.248559,-156.0679 -96.08847,-45.4265 -237.38441,-118.8657 -240.24636,-118.2652 132.42504,176.1189 346.38067,240.7634 553.494919,274.3331 z M -508.09394,1035.1552 20.407797,1424.4426 Z"
         id="path5581"
         inkscape:connector-curvature="0"
         sodipodi:nodetypes="csccssszzzzcsccsccccc" />
    </g>
  </g>
  <g
     style="display:inline"
     inkscape:label="Wisk"
     id="layer4"
     inkscape:groupmode="layer">
    <g
       id="layer1-3"
       inkscape:label="Layer 1"
       transform="matrix(1.0629678,0.98480046,-1.0587189,0.98086401,3223.1227,-52.818694)">
      <path
         sodipodi:nodetypes="scssscscaaacscasa"
         inkscape:connector-curvature="0"
         id="path5479"
         d="m 400,52.362205 c -84.36968,-0.204532 0,145.330755 -8.35767,287.952705 -8.35768,142.62195 -112.35966,498.76307 -91.64228,562.04729 41.43476,126.5684 51.53372,95.49216 98.67417,95.49216 47.14045,0 59.89107,31.07624 101.32583,-95.49216 C 520.71743,839.07798 416.71536,482.9384 408.35767,340.31568 399.99997,197.69296 484.87108,52.567951 400,52.362205 Z m -1.32583,945.492155 c 173.03311,105.63674 1.32238,-733.44564 1.32238,-733.44564 0,0 -245.80426,733.00484 -1.32238,733.44564 244.48188,0.4408 1.32243,-733.44564 1.32243,-733.44564 0,0 -175.23942,839.08238 -1.32243,733.44564 C 565.67407,893.34923 327.10766,52.907679 400,52.3622 479.44398,51.767693 230.11452,886.31967 398.67417,997.85436 Z m 1.32238,-733.44564 c 0,0 91.49058,733.44564 -1.32238,733.44564 -92.81297,0 1.32238,-733.44564 1.32238,-733.44564 z"
         style="color:#000000;font-style:normal;font-variant:normal;font-weight:normal;font-stretch:normal;font-size:medium;line-height:normal;font-family:sans-serif;text-indent:0;text-align:start;text-decoration:none;text-decoration-line:none;text-decoration-style:solid;text-decoration-color:#000000;letter-spacing:normal;word-spacing:normal;text-transform:none;direction:ltr;block-progression:tb;writing-mode:lr-tb;baseline-shift:baseline;text-anchor:start;white-space:normal;clip-rule:nonzero;display:inline;overflow:visible;visibility:visible;opacity:1;isolation:auto;mix-blend-mode:normal;color-interpolation:sRGB;color-interpolation-filters:linearRGB;solid-color:#000000;solid-opacity:1;fill:none;fill-opacity:1;fill-rule:nonzero;stroke:#7e7e7e;stroke-width:2.45374465;stroke-linecap:butt;stroke-linejoin:round;stroke-miterlimit:1;stroke-dasharray:none;stroke-dashoffset:3.54330707;stroke-opacity:1;color-rendering:auto;image-rendering:auto;shape-rendering:auto;text-rendering:auto;enable-background:accumulate" />
      <path
         sodipodi:nodetypes="ssssssscs"
         inkscape:connector-curvature="0"
         id="path3403"
         d="m 406.50004,862.60553 c -1.71214,88.40411 -4.03068,138.35837 -6.45199,139.01187 -2.42131,0.6535 -4.74984,-48.04646 -6.47979,-135.52156 -1.72994,-87.47511 -2.72158,-206.66012 -2.75952,-331.66627 -0.0379,-125.00613 0.88089,-245.73685 2.55691,-335.96767 1.67601,-90.23081 3.97384,-142.673924 6.39436,-145.937908 2.42052,-3.264028 4.76824,42.914744 6.53318,128.505588 1.76495,85.59085 2.80458,203.68074 2.84552,338.56943 0.041,134.88869 -0.92653,254.60242 -2.63867,343.00652 z"
         style="opacity:1;fill:none;fill-opacity:1;fill-rule:nonzero;stroke:#8b8b8b;stroke-width:4.90748945;stroke-linecap:butt;stroke-linejoin:round;stroke-miterlimit:4;stroke-dasharray:none;stroke-opacity:1" />
    </g>
  </g>
</svg>
