<?xml version="1.0" encoding="UTF-8" standalone="no"?>
<!-- Created with Inkscape (http://www.inkscape.org/) -->

<svg
   xmlns:dc="http://purl.org/dc/elements/1.1/"
   xmlns:cc="http://creativecommons.org/ns#"
   xmlns:rdf="http://www.w3.org/1999/02/22-rdf-syntax-ns#"
   xmlns:svg="http://www.w3.org/2000/svg"
   xmlns="http://www.w3.org/2000/svg"
   xmlns:xlink="http://www.w3.org/1999/xlink"
   xmlns:sodipodi="http://sodipodi.sourceforge.net/DTD/sodipodi-0.dtd"
   xmlns:inkscape="http://www.inkscape.org/namespaces/inkscape"
   width="1024mm"
   height="640mm"
   viewBox="0 0 3628.3466 2267.7165"
   id="svg2"
   version="1.1"
   inkscape:version="0.91 r13725"
   shape-rendering="crispEdges"
   sodipodi:docname="RiverRdBakehouse1.svg">
  <defs
     id="defs4">
    <linearGradient
       inkscape:collect="always"
       id="linearGradient4858">
      <stop
         style="stop-color:#ff0052;stop-opacity:1;"
         offset="0"
         id="stop4860" />
      <stop
         style="stop-color:#ff0052;stop-opacity:0;"
         offset="1"
         id="stop4862" />
    </linearGradient>
    <linearGradient
       id="linearGradient4852"
       inkscape:collect="always">
      <stop
         id="stop4854"
         offset="0"
         style="stop-color:#00ff52;stop-opacity:1" />
      <stop
         id="stop4856"
         offset="1"
         style="stop-color:#843513;stop-opacity:1" />
    </linearGradient>
    <linearGradient
       inkscape:collect="always"
       id="linearGradient4306">
      <stop
         style="stop-color:#000000;stop-opacity:1;"
         offset="0"
         id="stop4308" />
      <stop
         style="stop-color:#843513;stop-opacity:1"
         offset="1"
         id="stop4310" />
    </linearGradient>
    <radialGradient
       inkscape:collect="always"
       xlink:href="#linearGradient4306"
       id="radialGradient4312" />
    <linearGradient
       inkscape:collect="always"
       xlink:href="#linearGradient4852"
       id="linearGradient4850"
       x1="-33.557007"
       y1="-86.807159"
       x2="3638.1833"
       y2="-86.807159"
       gradientUnits="userSpaceOnUse"
       gradientTransform="scale(1.0067675,0.99327799)" />
    <linearGradient
       inkscape:collect="always"
       xlink:href="#linearGradient4858"
       id="linearGradient4864"
       x1="-33.557008"
       y1="-86.807156"
       x2="3638.1833"
       y2="-86.807156"
       gradientUnits="userSpaceOnUse"
       gradientTransform="scale(1.0067675,0.99327799)" />
    <linearGradient
       inkscape:collect="always"
       xlink:href="#linearGradient4852"
       id="linearGradient4896"
       x1="-2.5059793"
       y1="1129.1426"
       x2="3631.8889"
       y2="1129.1426"
       gradientUnits="userSpaceOnUse"
       spreadMethod="reflect"
       gradientTransform="matrix(0.97012184,0,0,0.97012184,110.78819,-1147.6764)" />
  </defs>
  <sodipodi:namedview
     id="base"
     pagecolor="#ffffff"
     bordercolor="#666666"
     borderopacity="1.0"
     inkscape:pageopacity="0.0"
     inkscape:pageshadow="2"
     inkscape:zoom="0.16922309"
     inkscape:cx="1905.3018"
     inkscape:cy="1429.3262"
     inkscape:document-units="mm"
     inkscape:current-layer="layer3"
     showgrid="true"
     inkscape:window-width="1280"
     inkscape:window-height="968"
     inkscape:window-x="0"
     inkscape:window-y="0"
     inkscape:window-maximized="1"
     units="mm">
    <inkscape:grid
       type="axonomgrid"
       id="grid3462"
       units="mm"
       empspacing="10"
       color="#3fff41"
       opacity="0.1254902" />
  </sodipodi:namedview>
  <metadata
     id="metadata7">
    <rdf:RDF>
      <cc:Work
         rdf:about="">
        <dc:format>image/svg+xml</dc:format>
        <dc:type
           rdf:resource="http://purl.org/dc/dcmitype/StillImage" />
        <dc:title />
      </cc:Work>
    </rdf:RDF>
  </metadata>
  <g
     inkscape:groupmode="layer"
     id="layer2"
     inkscape:label="Background"
     style="display:none" />
  <g
     inkscape:label="TextLayer"
     inkscape:groupmode="layer"
     id="layer1"
     transform="translate(0,1215.3541)">
    <text
       xml:space="preserve"
       style="font-style:normal;font-variant:normal;font-weight:normal;font-stretch:normal;font-size:270px;line-height:125%;font-family:'Metal Macabre';-inkscape-font-specification:'Metal Macabre, Normal';text-align:center;letter-spacing:0px;word-spacing:0px;writing-mode:lr-tb;text-anchor:middle;fill:#000000;fill-opacity:1;stroke:url(#radialGradient4312);stroke-width:1px;stroke-linecap:butt;stroke-linejoin:miter;stroke-opacity:1;"
       x="61.37188"
       y="-896.45654"
       id="text3502"
       sodipodi:linespacing="125%"><tspan
         sodipodi:role="line"
         id="tspan3504"
         x="61.37188"
         y="-896.45654"
         style="stroke:url(#radialGradient4312);fill:#000000;fill-opacity:1;" /></text>
    <text
       xml:space="preserve"
       style="font-style:normal;font-variant:normal;font-weight:normal;font-stretch:normal;font-size:270px;line-height:125%;font-family:'Metal Macabre';-inkscape-font-specification:'Metal Macabre, Normal';text-align:center;letter-spacing:0px;word-spacing:0px;writing-mode:lr-tb;text-anchor:middle;fill:#000000;fill-opacity:1;stroke:none;stroke-width:1px;stroke-linecap:butt;stroke-linejoin:miter;stroke-opacity:1"
       x="61.37188"
       y="-825.59039"
       id="text4314"
       sodipodi:linespacing="125%"><tspan
         sodipodi:role="line"
         id="tspan4316"
         x="61.37188"
         y="-825.59039" /></text>
    <path
       style="font-style:normal;font-variant:normal;font-weight:normal;font-stretch:normal;font-size:531.58752441px;line-height:125%;font-family:'Metal Macabre';-inkscape-font-specification:'Metal Macabre, Normal';text-align:center;letter-spacing:0px;word-spacing:0px;writing-mode:lr-tb;text-anchor:middle;opacity:1;fill:url(#linearGradient4850);fill-opacity:1;fill-rule:nonzero;stroke:url(#linearGradient4864);stroke-width:7.08661461;stroke-linecap:butt;stroke-linejoin:round;stroke-miterlimit:1;stroke-dasharray:none;stroke-dashoffset:0;stroke-opacity:1"
       d="m 1220.0827,-1216.9282 c 116.5106,-30.5147 349.0583,152.101 126.7245,139.7237 -131.0423,60.5601 134.9045,67.3855 104.0764,182.38238 25.6173,98.19096 -116.4762,175.99954 43.1137,196.86171 68.2614,23.35448 122.7569,67.08443 22.1873,20.2587 -111.9018,-77.63909 -234.5014,8.55281 -304.6707,70.25084 89.3175,-51.51916 197.369,-162.98208 50.4193,-216.15569 -26.7537,-81.83534 -177.6186,-178.27244 -109.6005,-49.76417 52.4992,-92.87004 48.4912,186.51888 -4.6335,69.52505 -68.8135,74.7822 138.3054,167.2428 -19.3058,101.0719 -54.218,-57.06708 -189.26508,53.86892 -104.9661,-53.23364 56.8977,-125.07251 -91.10652,38.38143 -43.76121,-78.73327 -53.55285,-40.98544 -182.16793,141.1024 -205.01044,224.45043 -121.91876,220.71852 98.10036,-245.75011 51.74992,-139.84359 77.71227,-123.47333 246.03633,-166.50018 225.09473,-328.05345 116.015,-107.6906 -216.10037,25.3675 -51.9892,-68.6617 65.3465,-42.2218 142.2258,-69.8243 220.5716,-70.0792 z m -87.6684,136.0264 c 59.2957,92.62683 144.3226,334.6255 264.2419,272.71039 54.9631,-108.18261 -157.6038,-236.13809 -178.566,-228.72869 167.5838,-28.8483 69.2018,-212.5753 -54.1551,-107.2199 -17.2346,16.8071 -27.4269,39.7622 -31.5208,63.2382 z m -143.99022,205.92557 c 75.56512,53.53246 55.06052,-87.26438 0,0 z m 513.77172,-250.17817 c 76.5391,10.7321 183.4571,-30.18 140.253,41.4249 -60.5869,73.5543 -15.0177,210.62741 -29.1385,311.33888 77.938,-1.69944 -56.4192,47.08079 45.873,52.04712 -50.039,-9.52076 -189.2419,27.31394 -121.7371,-30.58132 0.284,-41.42878 36.935,-189.43117 12.7056,-284.60228 -6.8642,-55.3951 -54.2994,-31.0379 -10.9157,-64.0193 -10.9031,-6.8447 -29.2867,-14.8187 -37.0403,-25.608 z m 452.6673,-20.6177 c 60.5168,32.4644 171.7794,-17.115 75.579,81.6215 -66.9991,123.55907 -118.4233,382.72827 -201.1555,429.18859 27.4259,-139.10367 -67.6383,-259.79382 -83.3681,-394.18539 -22.2469,-72.6384 -123.009,-112.8171 14.744,-103.8311 111.8945,-24.4143 1.6132,77.6192 70.5236,146.77421 28.8708,75.662 75.789,226.55459 108.837,68.17663 69.7524,-93.86574 -110.0704,-165.88574 -80.1162,-171.07274 29.3479,-22.2114 59.9015,-44.3321 94.9562,-56.6717 z m 23.701,28.9151 c -4.6337,80.1 58.2364,27.6578 0,0 z m 442.4237,-21.6234 c -46.2189,59.0272 -47.3111,188.18891 -89.1583,52.7171 -112.049,-22.8231 -141.8385,108.67552 -14.5487,67.2971 1.563,41.51955 -28.8644,118.26212 20.946,35.24421 0.3216,47.33368 31.1895,187.41798 -23.8782,87.36949 -246.747,-79.14864 35.1318,249.13841 68.959,115.48115 47.8844,145.12382 -155.1817,24.93149 -238.6542,61.88731 -35.7853,7.78452 63.5069,-123.11129 1.0831,-182.8698 -10.1274,-83.16936 41.44,-232.37376 -93.2618,-232.09796 113.3227,16.8828 234.3569,25.3736 346.213,6.2061 7.4333,-3.7449 14.8667,-7.4898 22.3001,-11.2347 z m -212.0352,154.38124 c -4.6387,152.75556 193.6734,-45.03064 0,0 z m 0,191.09084 c -15.1364,85.59166 130.4376,45.93611 10.3773,9.12267 -5.2384,0.48201 -6.712,-9.33161 -10.3773,-9.12267 z m 231.1211,-334.66038 c 109.9172,3.5776 265.3887,-27.2685 320.558,98.1148 -152.5513,27.4863 48.0177,131.95899 -15.7528,235.19974 29.2769,99.11414 24.6161,59.10912 -59.503,99.02706 -37.6066,40.91909 -148.8096,124.13186 -56.5815,20.14088 94.0532,-53.50076 -122.4065,-189.31056 -82.9747,-211.14116 -36.1139,107.11882 119.4417,265.23625 -58.7765,169.21444 -90.3913,31.14345 35.3547,-107.47848 -5.9386,-173.11043 -11.4831,-44.42068 24.9859,-146.90293 -22.108,-148.20513 -83.7021,11.438 79.7212,-58.92 -18.9229,-89.2402 z m 101.4303,120.4374 c -22.7874,94.20031 68.5098,88.28945 70.3834,13.26281 112.8557,-87.82181 -73.8289,-147.39261 -70.3834,-13.26281 z m 79.5132,92.27686 c 28.3575,49.7191 117.5555,219.22663 92.139,69.31966 -11.9169,-35.70503 -46.3952,-91.63095 -92.139,-69.31966 z m -936.3061,358.0439 c 116.5106,-30.51462 349.0583,152.10109 126.7245,139.72377 -131.0423,60.56002 134.9045,67.38547 104.0764,182.38237 25.6174,98.1909 -116.4761,175.999551 43.1137,196.861724 68.2614,23.354492 122.7568,67.084438 22.1873,20.2587 -111.9018,-77.63912 -234.5013,8.5528662 -304.6706,70.250841 89.3175,-51.51919 197.3689,-162.982065 50.4192,-216.155695 -26.7537,-81.83529 -177.6184,-178.27247 -109.6005,-49.76416 52.4992,-92.87009 48.4912,186.518878 -4.6335,69.52504 -68.8134,74.782193 138.3054,167.242815 -19.3058,101.071911 -54.218,-57.067078 -189.265,53.868916 -104.9661,-53.233653 56.8977,-125.072518 -91.1065,38.381418 -43.7612,-78.733268 -53.5529,-40.98544 -182.1679,141.102418 -205.0104,224.450437 -121.919,220.718763 98.1005,-245.750567 51.7499,-139.843593 77.7123,-123.473314 246.0363,-166.500214 225.0947,-328.053464 116.0151,-107.69046 -216.1004,25.36747 -51.9891,-68.6617 65.3464,-42.22173 142.2257,-69.8243 220.5715,-70.07926 z m -87.6684,136.02651 c 59.2957,92.6268 144.3227,334.625411 264.2419,272.71036 54.9631,-108.18259 -157.6037,-236.13808 -178.566,-228.72862 167.5838,-28.84835 69.2019,-212.57544 -54.155,-107.21998 -17.2346,16.80713 -27.4269,39.76225 -31.5209,63.23824 z m -143.9902,205.92553 c 75.5651,53.53247 55.0605,-87.26438 0,0 z m 423.2999,-284.12191 c 125.2831,75.19946 277.9503,-2.84648 405.6943,67.80328 86.0051,15.42393 -47.2324,80.21153 -3.0348,157.59202 1.5687,143.56737 -166.6195,209.909404 -289.6585,213.409532 -103.8939,12.630394 46.1467,-101.632012 -10.5046,-177.565842 23.565,-120.73969 -9.784,-187.84795 -102.4964,-261.23899 z m 274.4735,63.3617 c 84.3959,45.51855 41.4787,334.69639 72.8573,128.99008 2.0173,-51.53287 -19.2522,-111.4961 -72.8573,-128.99008 z m -102.7046,77.19064 c -10.6538,101.88322 -17.46,383.686487 100.1958,188.97989 58.8477,-68.91901 -43.5103,-402.10755 -100.1958,-188.97989 z M 29.045152,122.21628 c 139.698558,111.50251 294.502678,-45.255794 448.618658,17.5727 88.10182,20.68031 180.23008,96.59203 36.4716,98.85255 -143.74596,37.60165 131.43134,107.83669 69.62157,220.8021 -24.85897,188.60054 -277.34921,79.99258 -362.18643,199.74836 -31.88702,132.44549 26.03801,260.00038 62.06977,385.28911 C 199.10318,919.56321 187.55021,759.94268 202.80457,620.24738 165.44342,586.01826 42.253037,610.30665 153.05205,597.53501 214.31605,524.78198 137.62511,506.39189 132.13284,534.99784 93.987464,424.53357 209.69202,504.55475 190.57321,390.81752 145.15194,329.08571 272.50427,207.66302 130.45371,251.35809 71.887639,287.51531 -50.74943,418.31415 53.353014,285.9923 163.37673,226.61963 115.78775,163.29311 29.045152,122.21628 Z M 273.19148,334.4277 c 29.20161,58.71278 118.93906,-148.07721 146.78609,-90.78008 99.77132,-128.28049 -246.52594,-71.93568 -146.72039,74.17302 l -0.0339,8.56005 -0.0318,8.04701 -4e-5,0 z m 6.37124,142.06095 c 70.22949,-105.91273 63.69401,171.36785 10.51841,63.25252 -5.47834,110.88569 306.35667,-3.1889 217.68145,-146.93702 C 435.26236,224.91381 301.586,358.01658 279.56272,476.48865 Z M 693.6323,135.03948 c 94.91853,46.64518 205.57478,51.944 241.9801,87.37378 -45.46211,102.55552 -47.19965,303.45448 19.71051,409.93552 -57.04895,-52.54258 -213.18096,1.2521 -112.06312,-89.9469 43.1549,-134.9476 -224.9701,-86.9436 -96.07583,25.00416 44.1655,65.12898 75.31085,176.18513 -10.31457,58.36253 -55.91361,-37.21882 -69.78726,-64.65651 -113.06624,-23.61223 -145.93488,26.5491 64.6285,-69.06386 20.23671,-159.64808 C 619.67462,330.02332 733.74337,263.11142 772.81027,198.22003 744.31149,180.01778 712.70996,164.53804 693.6323,135.03948 Z m 8.91976,272.05302 c 11.19104,56.66066 101.44975,-143.08772 33.56128,-17.49755 -66.00759,-9.04168 146.49111,-205.03549 83.59157,-114.58767 39.42661,-114.96683 -161.15538,53.07357 -117.03565,129.70633 l -0.1172,2.37889 z M 827.68342,299.98106 c 24.46391,17.87793 12.646,-49.23533 0,0 z M 724.46916,443.04775 c 87.11629,40.41402 174.92444,-51.53538 94.76187,-114.31358 -41.59847,20.83783 -62.16022,79.52657 -94.76187,114.31358 z m -87.1587,130.24351 c 72.4666,71.1676 7.52187,-104.43514 0,0 z M 1028.4893,194.88109 c 42.8311,5.38073 210.7611,-11.26228 101.6731,34.67839 -49.5238,147.37939 94.4537,53.91213 86.0214,-32.12657 86.2525,-24.44307 173.4117,4.08138 55.328,63.83889 -82.947,74.83083 119.1941,194.16684 57.7972,287.42173 151.567,91.14598 -111.9392,20.24496 -141.3042,111.97222 -85.9195,55.95923 126.8812,-84.92277 24.8094,-138.63706 -44.4689,-53.55198 -124.3559,-167.14965 -91.8809,-19.57591 2.0056,88.52889 92.308,119.71544 -37.0326,104.17201 -76.1045,-3.34605 -93.0838,12.66853 -32.4968,-42.95702 -1.6249,-113.22743 31.4962,-309.09887 -22.9146,-368.78668 z m 199.2928,76.68778 c -43.0784,27.00296 -43.6332,63.49849 0,0 z m -106.0177,90.26528 c -4.7808,80.85332 62.8765,-65.58821 0,0 z m 63.7126,0 c -14.2441,55.38847 176.1529,218.74259 76.8292,72.47034 -20.1365,-24.66324 -39.6172,-73.78626 -76.8292,-72.47034 z m 538.3068,-180.27913 c -46.2188,59.02727 -47.3111,188.18897 -89.1584,52.7172 -112.0489,-22.82311 -141.8384,108.67551 -14.5485,67.29701 1.563,41.51957 -28.8645,118.26215 20.9459,35.24424 0.3217,47.33368 31.1896,187.41798 -23.8782,87.3695 -246.7468,-79.14865 35.1319,249.13838 68.959,115.48115 47.8845,145.12383 -155.1817,24.93149 -238.6542,61.8873 -35.7853,7.78455 63.507,-123.11125 1.0831,-182.86979 -10.1274,-83.16935 41.44,-232.37369 -93.2618,-232.09791 113.3228,16.88263 234.3571,25.37374 346.2131,6.206 7.4333,-3.7449 14.8667,-7.4898 22.3,-11.2347 z m -212.0352,154.38129 c -4.6386,152.75557 193.6735,-45.03063 0,0 z m 0,191.09084 c -15.1364,85.59166 130.4378,45.93613 10.3774,9.12267 -5.2385,0.48202 -6.7119,-9.33175 -10.3774,-9.12267 z m 614.9253,-337.17477 c -98.0168,92.38136 -63.0089,302.31175 -23.4875,398.41057 -82.2857,41.12658 -184.6294,19.90142 -201.5307,84.30046 124.1549,-55.19089 142.885,-327.93937 -14.5408,-259.93932 0.3547,102.95648 40.1769,258.01133 -112.715,187.84368 84.5634,-105.84923 8.1527,-466.9645 16.3782,-395.01431 78.9669,-15.94345 158.4218,-14.08555 95.1605,83.51676 64.3519,77.44416 174.2131,-36.46489 91.4314,-86.53538 48.2393,-12.32273 99.7093,-14.53788 149.3039,-12.58246 z m -239.559,145.58105 c -22.4869,130.14277 225.0893,-2.05619 45.4482,-3.20348 -14.8136,4.94872 -30.2573,2.69474 -45.4482,3.20348 z m 468.2153,-148.84971 c 74.7371,-13.9614 234.6332,58.2069 183.4466,105.37816 66.5505,153.4992 -39.0687,272.11204 -150.1154,348.70962 -25.4239,97.9919 -32.1346,73.08465 -61.9518,-0.0663 -105.4195,-91.86578 -217.4951,-244.76744 -118.9633,-376.88191 -150.2216,7.84436 148.4172,-85.2226 147.5839,-77.13955 z m -63.2029,160.66718 c -27.6498,83.11246 42.4405,331.88819 125.2516,182.26516 59.7878,-90.33264 23.4458,-404.1038 -113.4963,-270.81415 -10.3584,28.26122 -12.0347,58.7503 -11.7553,88.54899 z m -51.4796,64.87031 c -1.5322,89.99639 57.4463,149.07403 7.3825,26.23011 l -7.3825,-26.23011 z m 245.6754,23.13205 c -29.0604,74.27807 -34.9214,136.69874 0.6394,26.58455 l 2.6095,-15.85696 -3.2489,-10.72759 z m -148.5776,164.94158 c 20.248,78.63619 97.5089,-26.38261 0,0 z M 2977.431,122.71915 c -147.0118,86.97557 -84.3624,265.93648 -97.2367,407.61818 -3.1765,59.17358 97.5698,25.19465 -13.1558,72.16051 -158.1903,26.46695 -285.2347,-166.50991 -250.5265,-313.67828 86.0392,-84.6007 -116.6359,-135.60215 21.4884,-109.16935 104.6858,-16.48966 114.546,36.8231 43.1834,119.11576 -76.4316,90.5407 93.769,312.25645 132.3787,147.79629 5.5655,-131.80563 -54.9808,-295.21283 126.7328,-308.68565 l 18.5044,-7.8976 18.6313,-7.25986 0,0 z m -227.0714,410.59389 c 39.066,98.64515 129.666,-35.81716 0,0 z M 3323.6487,133.028 c -110.7209,10.92571 -31.7919,275.75933 -102.9048,123.70688 -37.1271,19.85605 -53.5256,63.56912 -79.4925,-15.97789 -198.3068,-79.07303 228.3839,354.17076 89.3831,167.37497 195.0973,131.8721 -180.5691,252.89828 -187.5068,263.40071 146.9772,-86.70966 -135.9691,-84.35032 -126.6308,-208.88278 33.9839,61.20826 166.3355,130.76603 135.7365,5.03853 -0.6696,165.68043 220.3127,18.81751 79.1605,-56.4315 -61.8612,-86.60392 -299.1734,-44.15102 -147.0805,-158.77238 99.3839,-84.9328 244.1677,-59.80949 330.4157,-116.26653 l 7.3905,-3.19001 1.5291,0 0,0 z m -324.6789,122.70044 c 72.8779,79.51926 98.1863,-115.55911 0,0 z m 221.7195,247.16093 c 23.2778,36.99903 -1.518,-53.08738 0,0 z m 406.5555,-321.33435 c -46.2189,59.02721 -47.311,188.189 -89.1584,52.7172 -112.0489,-22.82313 -141.8384,108.6755 -14.5486,67.29701 1.563,41.51957 -28.8643,118.26215 20.946,35.24424 0.3217,47.3337 31.1896,187.41797 -23.8782,87.3695 -246.7471,-79.14869 35.1317,249.13841 68.959,115.48115 47.8845,145.12383 -155.1817,24.93149 -238.6542,61.8873 -35.7853,7.78455 63.507,-123.11125 1.0831,-182.86979 -10.1274,-83.16935 41.44,-232.37369 -93.2618,-232.09791 113.3228,16.88263 234.3571,25.37374 346.2131,6.206 7.4333,-3.7449 14.8667,-7.4898 22.3,-11.2347 z m -212.0352,154.38129 c -4.6387,152.75556 193.6735,-45.03063 0,0 z m 0,191.09084 c -15.1366,85.59165 130.4378,45.93614 10.3774,9.12267 -5.2385,0.48202 -6.7119,-9.33175 -10.3774,-9.12267 z"
       id="text4318"
       inkscape:connector-curvature="0" />
    <path
       style="color:#000000;font-style:normal;font-variant:normal;font-weight:normal;font-stretch:normal;font-size:531.58752441px;line-height:125%;font-family:'Metal Macabre';-inkscape-font-specification:'Metal Macabre, Normal';text-indent:0;text-align:center;text-decoration:none;text-decoration-line:none;text-decoration-style:solid;text-decoration-color:#000000;letter-spacing:0px;word-spacing:0px;text-transform:none;direction:ltr;block-progression:tb;writing-mode:lr-tb;baseline-shift:baseline;text-anchor:middle;white-space:normal;clip-rule:nonzero;display:inline;overflow:visible;visibility:visible;opacity:1;isolation:auto;mix-blend-mode:normal;color-interpolation:sRGB;color-interpolation-filters:linearRGB;solid-color:#000000;solid-opacity:1;fill:#000000;fill-opacity:1;fill-rule:evenodd;stroke:url(#linearGradient4896);stroke-width:3.5433073;stroke-linecap:round;stroke-linejoin:round;stroke-miterlimit:1;stroke-dasharray:none;stroke-dashoffset:0;stroke-opacity:1;color-rendering:auto;image-rendering:auto;shape-rendering:auto;text-rendering:auto;enable-background:accumulate"
       d="m 138.9653,146.52351 c -7.88135,24.10216 42.06445,-7.98814 0,0 z m 13.45665,9.01551 c -13.73453,23.30775 34.78199,2.20823 0,0 z m -2.02361,155.08869 c -32.0391,6.09624 16.75849,21.5812 0,0 z m 14.27519,10.9763 c -34.67651,9.65648 16.92143,18.9791 0,0 z m -32.77572,9.77712 c -27.98931,8.90644 18.02532,19.02082 0,0 z m 14.04024,10.65809 c -30.52202,6.9004 16.69095,20.88563 0,0 z m -29.81988,12.39748 c -25.565855,14.45704 22.26001,15.4362 0,0 z m 12.94317,9.669 c -31.071295,11.61412 22.72817,17.88214 0,0 z m -12.44484,16.85591 -0.42448,11.1225 z"
       id="text4341"
       inkscape:connector-curvature="0"
       sodipodi:nodetypes="ccccccccccccccccccc" />
  </g>
  <g
     inkscape:groupmode="layer"
     id="layer3"
     inkscape:label="Knife"
     style="display:none">
    <g
       id="layer1-6"
       inkscape:label="Layer 1"
       transform="matrix(0.97305718,0,0,1.3264329,916.30621,-620.9478)">
      <path
         sodipodi:nodetypes="aassssssssssacaaaacccccscsssscs"
         inkscape:connector-curvature="0"
         id="path5581"
         d="m -702.77252,1136.6462 c -16.96819,-23.5254 -30.12628,-52.298 -41.6718,-81.5416 -14.40613,-36.4892 -59.87195,-125.53583 -33.85923,-115.71917 25.68996,9.6949 0,0 124.60369,-21.34416 78.87824,-13.51149 15.06205,-101.20907 15.06205,-101.20907 -114.98788,-109.98008 -41.06972,-35.34313 -125.3791,-109.98008 L -933.06348,557.19951 c -12.80332,-11.33446 5.41436,-19.95777 35.93718,-51.23323 60.34439,-61.83231 79.41586,-31.16709 94.63368,-17.35291 l 149.79081,135.97445 c 93.40663,84.79103 163.69112,192.57995 203.42659,248.68797 l 102.09228,144.15831 c 127.04165,179.3877 154.44683,223.3297 230.83042,336.1124 6.37205,9.4085 18.975096,28.4107 18.975096,28.4107 0,0 -47.196036,21.8516 -71.557926,28.2223 -28.74493,7.5167 -58.09484,12.0281 -87.33757,11.6176 -62.63038,-0.8792 -128.12318,1.0009 -186.65881,-30.128 -98.92736,-52.6088 -184.70906,-150.8571 -259.84079,-255.0229 z m 374.01524,248.3588 60.31783,-4.2271 c 0,0 -130.65133,-79.5513 -229.84905,-171.7603 -119.59066,-111.165 -241.22797,-226.01575 -239.02635,-221.21019 0,0 22.51432,75.00009 67.95824,142.13639 0,0 21.97897,36.7805 99.94543,119.603 130.65257,138.79 240.6539,135.4582 240.6539,135.4582 z m 38.54529,-222.7376 C -370.12758,1049.8126 -532.76737,832.5633 -540.76688,840.59444 l -21.0034,21.08645 c -4.43166,4.44912 253.31124,320.66951 287.10056,357.52331 l 110.80132,120.8505 z"
         style="fill:#000000;fill-rule:evenodd" />
    </g>
  </g>
  <g
     inkscape:groupmode="layer"
     id="layer4"
     inkscape:label="Wisk"
     style="display:inline">
    <g
       id="layer1-67"
       inkscape:label="Layer 1"
       transform="matrix(0.94499314,0.9449932,-0.94202738,0.94202744,3225.0713,-223.04645)">
      <path
         sodipodi:nodetypes="scssscscaaacscasa"
         inkscape:connector-curvature="0"
         id="path5479"
         d="m 400,52.362205 c -84.36968,-0.204532 0,145.330755 -8.35767,287.952705 -8.35768,142.62195 -112.35966,498.76307 -91.64228,562.04729 41.43476,126.5684 51.53372,95.49216 98.67417,95.49216 47.14045,0 59.89107,31.07624 101.32583,-95.49216 C 520.71743,839.07798 416.71536,482.9384 408.35767,340.31568 399.99997,197.69296 484.87108,52.567951 400,52.362205 Z m -1.32583,945.492155 c 173.03311,105.63674 1.32238,-733.44564 1.32238,-733.44564 0,0 -245.80426,733.00484 -1.32238,733.44564 244.48188,0.4408 1.32243,-733.44564 1.32243,-733.44564 0,0 -175.23942,839.08238 -1.32243,733.44564 C 565.67407,893.34923 327.10766,52.907679 400,52.3622 479.44398,51.767693 230.11452,886.31967 398.67417,997.85436 Z m 1.32238,-733.44564 c 0,0 91.49058,733.44564 -1.32238,733.44564 -92.81297,0 1.32238,-733.44564 1.32238,-733.44564 z"
         style="color:#000000;font-style:normal;font-variant:normal;font-weight:normal;font-stretch:normal;font-size:medium;line-height:normal;font-family:sans-serif;text-indent:0;text-align:start;text-decoration:none;text-decoration-line:none;text-decoration-style:solid;text-decoration-color:#000000;letter-spacing:normal;word-spacing:normal;text-transform:none;direction:ltr;block-progression:tb;writing-mode:lr-tb;baseline-shift:baseline;text-anchor:start;white-space:normal;clip-rule:nonzero;display:inline;overflow:visible;visibility:visible;opacity:1;isolation:auto;mix-blend-mode:normal;color-interpolation:sRGB;color-interpolation-filters:linearRGB;solid-color:#000000;solid-opacity:1;fill:none;fill-opacity:1;fill-rule:nonzero;stroke:#7e7e7e;stroke-width:2.65550852;stroke-linecap:butt;stroke-linejoin:round;stroke-miterlimit:1;stroke-dasharray:none;stroke-dashoffset:3.54330707;stroke-opacity:1;color-rendering:auto;image-rendering:auto;shape-rendering:auto;text-rendering:auto;enable-background:accumulate" />
      <path
         sodipodi:nodetypes="ssssssscs"
         inkscape:connector-curvature="0"
         id="path3403"
         d="m 406.50004,862.60553 c -1.71214,88.40411 -4.03068,138.35837 -6.45199,139.01187 -2.42131,0.6535 -4.74984,-48.04646 -6.47979,-135.52156 -1.72994,-87.47511 -2.72158,-206.66012 -2.75952,-331.66627 -0.0379,-125.00613 0.88089,-245.73685 2.55691,-335.96767 1.67601,-90.23081 3.97384,-142.673924 6.39436,-145.937908 2.42052,-3.264028 4.76824,42.914744 6.53318,128.505588 1.76495,85.59085 2.80458,203.68074 2.84552,338.56943 0.041,134.88869 -0.92653,254.60242 -2.63867,343.00652 z"
         style="opacity:1;fill:none;fill-opacity:1;fill-rule:nonzero;stroke:#8b8b8b;stroke-width:2.62305236;stroke-linecap:butt;stroke-linejoin:round;stroke-miterlimit:4;stroke-dasharray:none;stroke-opacity:1" />
    </g>
  </g>
</svg>
