<?xml version="1.0" encoding="UTF-8" standalone="no"?>
<!-- Created with Inkscape (http://www.inkscape.org/) -->

<svg
   xmlns:dc="http://purl.org/dc/elements/1.1/"
   xmlns:cc="http://creativecommons.org/ns#"
   xmlns:rdf="http://www.w3.org/1999/02/22-rdf-syntax-ns#"
   xmlns:svg="http://www.w3.org/2000/svg"
   xmlns="http://www.w3.org/2000/svg"
   xmlns:sodipodi="http://sodipodi.sourceforge.net/DTD/sodipodi-0.dtd"
   xmlns:inkscape="http://www.inkscape.org/namespaces/inkscape"
   inkscape:version="0.91 r13725"
   version="1.1"
   id="svg4172"
   viewBox="0 0 5010.2362 3543.3071"
   height="1000mm"
   width="1414mm"
   sodipodi:docname="RRBTextOnly.svg">
  <sodipodi:namedview
     inkscape:snap-page="false"
     showgrid="true"
     inkscape:current-layer="svg4172"
     inkscape:document-units="px"
     inkscape:cy="520"
     inkscape:cx="375"
     inkscape:zoom="0.35"
     inkscape:pageshadow="2"
     inkscape:pageopacity="0.0"
     borderopacity="1.0"
     bordercolor="#666666"
     pagecolor="#ffffff"
     id="base"
     showguides="true">
    <inkscape:grid
       id="grid5638"
       type="xygrid" />
  </sodipodi:namedview>
  <defs
     id="defs4174" />
  <metadata
     id="metadata4177">
    <rdf:RDF>
      <cc:Work
         rdf:about="">
        <dc:format>image/svg+xml</dc:format>
        <dc:type
           rdf:resource="http://purl.org/dc/dcmitype/StillImage" />
        <dc:title />
      </cc:Work>
    </rdf:RDF>
  </metadata>
  <g
     inkscape:label="Layer 0"
     id="layer4"
     inkscape:groupmode="layer" />
  <g
     transform="translate(0,2490.9449)"
     id="layer1"
     inkscape:groupmode="layer"
     inkscape:label="Layer 1">
    <flowRoot
       style="color:#000000;line-height:125%;letter-spacing:0px;word-spacing:0px;fill:#000000;stroke:#ffffff;stroke-width:1.00275588;stroke-miterlimit:0"
       id="flowRoot4236"
       xml:space="preserve"><flowRegion
         id="flowRegion4238"><rect
           y="5.3605676"
           x="10.72105"
           height="3543.3071"
           width="5022.812"
           id="rect4240" /></flowRegion><flowPara
         id="flowPara4242" /></flowRoot>    <flowRoot
       transform="translate(0,-2490.9449)"
       style="color:#000000;font-size:354.33071899px;line-height:125%;text-align:center;letter-spacing:0px;word-spacing:0px;text-anchor:middle;fill:#000000;stroke:#ffffff;stroke-width:1.00275588;stroke-miterlimit:0"
       id="flowRoot4244"
       xml:space="preserve"><flowRegion
         id="flowRegion4246"><rect
           y="13.307129"
           x="0"
           height="3530"
           width="5020"
           id="rect4248" /></flowRegion><flowPara
         id="flowPara4250" /></flowRoot>    <g
       id="text4285"
       style="color:#000000;font-size:509.12393188px;letter-spacing:0px;word-spacing:0px;text-anchor:middle;solid-opacity:1;fill:#000000;stroke:#ffffff;stroke-width:1.0075053;stroke-miterlimit:0"
       transform="matrix(0.96499958,0.05399546,0.17968565,1.036577,89.141317,-146.1549)">
      <g
         id="g5640">
        <path
           transform=" translate(80.0,0)"
           d="m 1491.8635,-989.1823 c 23.6397,19.60306 47.5668,39.07063 71.0268,58.75829 -28.612,21.55978 -57.5828,43.33869 -81.2583,70.63902 -6.9608,8.83426 -15.2153,18.77733 -15.0322,30.66331 1.3413,2.3801 0.737,7.30217 3.4581,7.87957 8.3124,-20.03425 24.2346,-35.45248 39.4568,-50.17632 25.4197,-16.77659 53.09,-32.59399 83.6934,-35.60969 7.9465,0.9816 17.6601,5.83163 17.2443,15.32146 -0.135,5.79454 -3.7259,11.90364 -8.4817,14.71343 -5.7047,1.3654 -12.7777,1.1726 -17.1245,5.6173 -2.1727,41.95725 -3.7599,84.09465 -6.0036,125.98187 -8.984,-0.473 -20.3719,0.9038 -26.1145,-7.8062 -2.0613,-2.37872 -1.4555,-6.71944 -2.5425,-8.68554 -3.8044,-0.5116 -1.3536,5.93262 -2.3068,8.59172 -0.8997,22.05406 -2.3046,44.58064 -2.8887,66.33926 4.8199,0.042 4.1341,-8.30195 6.5575,-11.91018 1.174,-2.71717 1.2619,-7.19938 5.2336,-5.69288 6.662,0.46979 13.9755,0.15302 20.2321,1.11241 -0.655,7.99659 -0.19,16.38388 -1.5418,24.13751 -9.1638,11.27576 -24.8282,12.41041 -38.12,12.97502 -4.8184,0.47801 -10.1801,-0.81115 -14.6309,0.26613 -3.0182,3.91314 3.7561,3.90535 6.2647,4.02566 21.6596,2.10525 43.5234,3.85442 65.0557,6.18219 -7.9162,32.65602 -9.5009,66.43009 -11.469,99.84285 -0.4672,15.94095 -2.5384,31.92726 -0.4306,47.80263 0.4226,11.22789 1.6343,22.39269 4.7218,33.21463 10.5589,39.78712 25.4283,78.16554 40.0016,116.53166 4.6684,1.18731 0.7447,-5.18583 1.0109,-7.87203 -1.4906,-9.85462 -3.7136,-19.49498 -7.0441,-28.86054 -5.3068,-16.97937 -8.7556,-34.5354 -12.7389,-51.82937 -10.1346,-25.84035 -13.8884,-53.83234 -16.0133,-81.46014 0.346,-14.67251 1.5019,-29.30748 4.4826,-43.71327 1.0106,-6.60367 3.0793,-13.12765 5.3608,-19.22849 1.9276,-20.99263 4.9169,-42.03678 9.8096,-62.50193 55.7853,2.13247 111.8371,-4.90782 166.0053,-18.89597 25.5023,-7.99697 50.0539,-24.70514 60.912,-50.41453 5.0763,-12.05928 8.214,-25.3576 7.7569,-38.45164 -2.9209,-17.99969 -5.5217,-36.41895 -14.005,-52.72091 -8.7177,-17.50335 -21.5406,-33.24672 -37.6257,-44.12888 -11.2317,-6.97503 -23.6318,-13.83774 -34.1337,-20.88293 14.5056,-6.0206 28.6271,-13.01564 43.2458,-18.70337 22.6951,-7.87293 47.0371,-10.57564 70.445,-13.16604 0.7636,-5.07904 -7.2968,-3.82754 -10.5773,-6.0052 -13.5773,-4.89102 -26.5743,-11.76388 -38.4098,-20.11244 -5.112,-3.41025 -8.9247,-8.38524 -12.1164,-13.475 -17.3765,-17.21396 -41.7961,-25.38871 -65.8683,-25.21541 -57.2194,-2.2836 -116.3923,2.73125 -169.3348,27.0481 -3.6549,2.0558 -7.1936,-2.47979 -10.7924,-3.41183 -24.9582,-12.1574 -49.7687,-24.90141 -74.8191,-36.69209 -0.1839,0 -0.3676,-0.015 -0.5515,-0.022 z m 243.1016,40.25622 c 15.6785,0.034 29.8098,10.37001 36.5629,24.44604 1.7028,2.41649 2.9377,5.80751 -0.7755,6.99451 -22.2034,15.92704 -45.5811,30.39511 -69.7015,42.91 -10.9718,0.4842 -17.1101,11.76851 -21.6572,20.58334 -2.2565,4.14886 -3.7671,9.43506 -5.8398,13.15563 -2.5619,-2.67707 -7.0801,-4.45637 -10.2843,-2.23317 -8.0836,11.41377 -12.597,25.28952 -18.7633,37.52503 -2.6273,-0.2254 -0.3974,-4.866 -0.9292,-6.9719 1.7635,-31.74083 2.091,-63.66263 6.6442,-95.18162 1.3583,-7.94825 7.0469,-14.27533 11.9475,-20.35899 15.5966,-17.6227 40.1642,-22.75426 62.4316,-21.28257 3.4548,0.1381 6.9097,0.2759 10.3646,0.4137 z m -4.368,94.80049 c 28.6335,12.86173 56.0836,33.83118 67.2422,64.70306 6.1538,16.57168 7.2715,34.93465 5.1295,52.37918 -8.5496,18.70223 -21.2469,37.18856 -40.4919,45.42614 -9.616,7.75396 -22.4356,9.11952 -34.0621,11.52119 -29.0778,4.53038 -58.5475,6.22945 -87.8732,6.97873 -5.1297,-3.14754 -4.1038,-10.74466 -4.0392,-16.04583 0.4978,-3.90746 -0.2144,-8.98113 1.0383,-12.16386 7.255,0.35657 15.1929,0.0952 21.8075,2.75229 3.927,6.53968 8.2929,14.91217 11.9459,20.30837 1.4373,-28.53981 2.8748,-57.07958 4.312,-85.61949 -4.851,-1.1031 -3.6763,5.18481 -5.9309,7.69673 -4.5841,9.32352 -15.7551,14.90593 -25.5119,13.00036 -2.292,-2.27714 1.3303,-5.94464 1.7839,-8.74904 8.6333,-20.25009 19.7196,-39.45007 32.2856,-57.43004 12.0173,-15.56008 24.2173,-32.13276 41.4852,-41.94873 3.3784,-1.68376 7.087,-2.97086 10.8791,-2.80906 z"
           style="-inkscape-font-specification:'Metal Macabre'"
           id="path4752"
           inkscape:connector-curvature="0" />
      </g>
      <g
         id="g5643">
        <path
           transform=" translate(0.0,0)"
           d="m 1733.208,-640.86799 c 2.7317,7.08434 10.6579,10.02559 14.8765,16.09828 12.0214,12.20165 23.5804,25.60715 38.6145,34.02606 1.2705,1.16745 6.0973,0.76597 4.1014,2.78747 -10.6332,3.89856 -20.1553,10.61116 -29.762,16.60809 -33.2747,27.7439 -61.2291,65.04622 -69.1905,108.82049 -2.9239,16.29021 -3.3538,32.95781 -3.3432,49.43962 0.1903,8.50956 2.0406,17.14476 2.9626,25.38471 -13.3591,17.35934 -27.5905,34.72585 -45.2177,47.61212 -6.6537,1.02139 -15.8669,1.30579 -19.0335,8.52867 -1.7976,4.46975 4.174,2.39159 6.7614,3.04476 16.9979,0.73056 34.0837,1.26986 51.0264,2.12001 -0.7923,2.59211 -5.4177,2.05872 -7.7597,3.38151 -6.8773,2.30264 -14.6405,3.89743 -20.9657,6.64127 -0.7927,3.65278 4.608,0.74612 6.7736,1.26575 20.4609,-1.65572 41.0326,-3.87724 61.4244,-5.17981 6.4433,3.08984 12.7082,6.4862 17.5268,11.97913 17.0868,16.70954 33.3928,35.38584 49.3047,52.5177 -2.3892,-12.32092 -9.0384,-23.31519 -14.1925,-34.59968 -5.0801,-10.60266 -11.1396,-20.90801 -16.0122,-31.47789 3.37,-2.06439 9.2172,-0.81267 13.1031,-1.20588 -1.2778,-3.886 -5.9198,-6.41493 -8.541,-9.75906 -2.4731,-2.29202 -7.2123,-6.18113 -4.0616,-8.71597 -8.0223,-2.17725 -11.0886,-11.42746 -14.4152,-18.27519 -7.0213,-17.78282 -11.7938,-36.55535 -15.3783,-55.32795 1.7975,-1.48681 6.1654,0.0217 8.9498,-0.31026 26.4897,1.08888 53.0271,2.07444 79.4872,3.22792 -1.2148,22.27062 -1.7005,44.62227 -3.37,66.84253 -2.7299,8.91077 -12.4668,13.19104 -20.6117,15.14264 -4.4559,-0.30332 -12.3741,0.68819 -12.204,6.39138 1.9545,1.47488 4.4293,1.7975 7.1258,1.64951 19.1503,1.02827 38.392,1.00691 57.4826,2.72858 17.8093,2.79512 32.9976,13.90617 46.2082,25.47572 0.5736,-0.79927 -2.8567,-3.543 -3.8331,-5.095 -5.2088,-6.46268 -11.4571,-12.54429 -16.0175,-19.24464 1.5627,-0.69814 4.588,-1.89711 4.9116,-4.62688 1.7833,-4.83528 -5.3762,-3.40576 -7.9978,-5.66192 -7.3725,-2.53196 -11.4225,-10.44897 -9.6706,-18.14549 3.1515,-75.56085 5.9691,-151.14668 9.3291,-226.69194 0.4719,-6.53524 8.2999,-7.39256 12.7977,-4.60187 7.8964,3.25686 14.7265,8.9384 22.0744,12.88685 1.5945,-1.56886 -2.2913,-5.06476 -3.0089,-7.32666 -5.7203,-9.21476 -10.466,-19.33371 -17.6884,-27.40475 -24.5519,-0.95069 -49.1206,-2.29419 -73.6912,-1.93438 0.8232,-2.19334 1.9828,-4.06616 -1.5535,-3.44464 -6.8658,0.23562 -12.3523,-4.97738 -18.5648,-7.3209 -19.4721,-9.47891 -38.7957,-19.54363 -58.3603,-28.65657 -0.4803,-0.0582 -0.4333,-0.0742 -0.3969,0.40659 z m 94.77,61.65008 c -0.3787,6.19853 0.4758,12.96836 -3.9762,17.9984 -7.9737,11.95851 -16.963,23.48979 -26.0906,34.37396 -8.7375,-0.56738 -17.8158,-2.19312 -26.3447,-2.10601 -10.4608,15.45968 -16.268,33.57539 -22.8484,50.96099 -2.0235,6.82742 -5.5154,13.3974 -6.3085,20.47536 2.5804,-0.71318 2.4763,-5.59112 4.1883,-7.94202 6.6449,-14.72693 17.4676,-27.7951 30.4842,-36.87754 1.8973,1.26192 -2.2441,4.19252 -2.9935,5.99158 -10.2485,13.75806 -20.4112,27.69141 -30.7134,41.33994 -1.8684,-3.04146 -3.2951,3.40732 -5.0235,4.7196 -2.616,3.37407 -5.206,8.64485 -8.7289,10.20251 0.4961,-19.56827 1.8812,-39.47063 9.0698,-57.90228 9.4148,-25.25363 25.4199,-47.87765 45.0758,-65.93479 12.2967,-10.53426 28.2186,-16.20123 44.2096,-15.2997 z m -3.4571,42.14897 c 0.06,3.17471 1.3244,7.43768 0.6532,9.9533 -2.1515,-0.39415 -0.2558,3.76237 -3.4228,2.25048 -1.8494,-0.45732 -8.0612,0.98918 -5.182,-2.31948 2.656,-3.27506 5.2666,-6.70716 7.9516,-9.8843 z m 0.1179,29.30869 c -1.1694,26.26404 -2.3734,52.62701 -3.6583,78.88098 -25.7606,-1.08019 -51.6671,-1.93966 -77.3363,-3.15763 19.9053,-25.47129 39.6033,-51.38439 59.6382,-76.5796 7.119,0.28514 14.2376,0.57127 21.3565,0.8564 z m -126.6001,136.79468 c 3.6579,11.9109 8.1489,24.34623 6.4766,37.05773 -8.2637,-0.0259 -19.695,-1.60347 -21.9197,-11.34795 0.07,-9.29102 7.0302,-16.82508 12.3842,-23.79076 0.9578,-0.96023 1.4632,-2.46753 3.0589,-1.91902 z"
           style="-inkscape-font-specification:'Metal Macabre'"
           id="path4754"
           inkscape:connector-curvature="0" />
      </g>
      <g
         id="g5646">
        <path
           d="m 1991.5544,-291.64097 c -0.5884,2.17511 -2.2988,4.34315 1.0641,5.41022 3.794,3.12987 9.4059,5.58942 10.8729,10.59376 -1.7266,6.03683 -1.5527,13.04586 -6.7703,17.30904 -13.7111,15.657 -27.5926,32.24973 -46.0875,42.12849 -4.1476,1.60864 -9.6329,4.4547 -13.6766,1.6749 1.6557,-17.57753 2.3136,-35.28746 4.6087,-52.77998 1.6108,-10.71754 11.5789,-18.35713 22.0113,-17.98426 3.6045,-0.54365 9.758,2.04311 10.4345,-3.218 0.6988,-7.97506 -9.7298,-4.23535 -14.6212,-5.4393 -27.2039,-0.92788 -54.418,-2.47842 -81.6158,-3.0169 -2.2889,0.40201 -7.7526,-0.39746 -5.8264,2.92511 3.0202,-0.72056 3.1182,1.01943 3.2633,3.50336 2.066,3.46836 7.4655,1.02869 10.8559,2.005 8.8937,1.12435 11.6798,11.47418 10.627,19.29196 -2.9232,60.54853 -5.3782,121.12265 -8.5971,181.655013 -1.4844,14.19769 -1.2128,28.632425 -4.0296,42.654772 -1.574,8.79487 -8.7405,17.181121 -18.0865,16.307316 -5.5021,3.942857 -12.5897,6.840461 -18.7461,7.53406 -0.4052,3.248743 4.9456,1.11394 7.1594,1.913064 35.5859,1.302608 71.6314,3.116415 106.93,4.099571 -0.092,-3.532247 1.9839,-10.12674 -3.3524,-9.993969 -7.8683,0.236039 -15.8981,-1.952188 -21.9578,-6.96119 -4.6255,-4.165664 -3.9084,-11.627378 -4.7986,-17.425334 -1.6331,-32.89542 1.5694,-65.816813 2.6614,-98.703943 0.3285,-1.68871 -0.2261,-5.98948 0.6617,-6.03207 28.6639,35.0907 56.1241,71.342303 82.7672,107.962997 -3.9761,9.970738 -11.5837,18.234099 -18.2315,26.576735 -17.0519,20.10007873 -36.6371,39.058427 -55.0175,57.030056 1.5068,-0.239604 5.3419,-2.070395 5.3806,-1.301942 -1.0217,1.664764 -4.3359,4.360294 -3.8763,5.359139 18.2639,-10.896656 36.0441,-23.282102 53.0921,-36.2721103 8.0989,-6.06066597 15.7467,-13.1288595 23.2266,-19.6798467 28.7898,1.063221 57.7048,2.479941 86.4164,3.322267 2.7052,-1.343321 3.663,-6.2683 1.2112,-7.843949 -18.9599,-1.610054 -33.8653,-15.496866 -46.5882,-28.62662 -2.5271,-3.165494 -6.5637,-6.236917 -7.9133,-9.684193 6.826,-13.94317 13.9939,-28.70569 14.3615,-44.506403 -2.9888,-16.31448 -4.7771,-33.28119 -11.6529,-48.45729 -12.3921,-24.19887 -33.1408,-43.454 -57.47,-54.69731 20.4328,-23.61522 40.8126,-47.81527 65.7117,-66.70826 7.0712,-5.25239 15.2936,-9.73232 24.269,-8.99005 5.3889,-0.55596 2.7761,-9.69815 -2.1717,-8.10701 -32.1588,-1.36394 -64.2976,-2.69511 -96.4992,-2.8269 z m 16.1701,51.63173 c 2.1701,0.0764 -2.1025,2.92624 -2.649,4.17131 -6.9208,7.66415 -13.696,15.81055 -20.7073,23.17417 -1.8728,-0.67143 -5.5238,-0.8989 -6.3297,-1.83717 9.8955,-8.50231 19.7898,-17.00825 29.686,-25.50831 z m -47.5142,50.79357 c -5.117,8.18305 -13.1773,14.17723 -19.9224,21.00078 -1.7463,1.23429 -4.6694,5.06262 -5.6991,4.71287 0.5764,-6.19708 0.021,-12.81977 1.299,-18.75301 3.9216,-5.87388 10.931,-8.55923 17.672,-7.22607 2.2169,0.0885 4.4337,0.17695 6.6505,0.26543 z m 17.8402,9.28114 c 12.181,3.17569 19.9328,14.36707 28.2782,23.11003 15.5714,18.25844 31.2908,38.47154 35.4904,62.992103 0.8382,5.49496 0.6208,12.82038 -0.1016,17.25101 -24.4004,-31.124703 -48.8145,-62.244743 -73.2062,-93.372353 3.1336,-3.17085 5.7678,-7.61766 9.2065,-10.00909 l 0.1804,0.0152 0.1523,0.0132 z"
           style="-inkscape-font-specification:'Metal Macabre'"
           id="path4756"
           inkscape:connector-curvature="0" />
      </g>
      <g
         id="g5649">
        <path
           d="m 2361.2852,-152.16372 q -31.5714,38.81499 -32.8344,66.0497 l -0.4185,9.0215 -3.6715,3.43463 -1.5149,11.02411 -2.0033,-0.0799 q -3.4038,-52.83023 -19.7644,-53.48319 0.095,-2.04261 -10.9078,-2.8228 l -35.2253,-1.40589 q -25.9879,23.00782 -30.7987,43.79126 l 1.8928,2.46298 70.7847,2.82509 1.1211,1.06793 1.0018,0.04 q -15.6994,28.363871 -25.8195,51.834445 l 1.5024,0.05996 q 14.6913,0.586342 21.7444,-18.061209 1.4574,-16.995039 4.1282,-16.888439 l 3.0052,0.11997 2.3937,2.48299 -4.0577,87.491498 -2.6149,2.283096 -3.0049,-0.119935 q -2.0033,-0.07995 -4.6983,-24.914671 -6.1659,-14.91183444 -26.7,-15.7313774 l -49.5828,-1.978898 -0.095,2.042604 q -1.5393,33.1923244 35.77,87.0346684 25.5112,26.939048 34.0254,27.278858 22.2036,0.88617 45.3532,-47.473652 l 5.5092,0.219879 0.9544,1.061276 1.0016,0.03998 -20.3385,63.478837 18.2479,10.44861 -0.1108,2.38304 -44.8958,-12.87643 -141.9033,-5.66351 -1.8927,-2.463 0.15,-3.23411 2.1138,-2.30309 8.0133,0.31982 q 20.3674,0.81288 21.7252,-28.464424 l 3.2144,-40.458327 0.821,-17.702522 q -14.9104,-39.1353404 -12.7316,-86.115208 0.9079,-19.574949 17.6562,-48.920129 -0.2437,-16.3808 -3.568,-20.43572 l -1.057,1.15156 -1.0017,-0.04 q -11.3523,-0.45308 -60.0778,-31.72928 l -2.5042,-0.0999 0.1022,-2.21284 69.9771,13.02479 141.2354,5.63687 q 5.3421,0.21322 30.3477,-12.43136 z m -143.7452,98.96963 -1.571,33.873167 54.0901,2.158801 1.0026,-21.617551 q 0.5369,-11.574747 -8.0745,-17.034397 l -26.3772,-1.05274 q -18.8647,-0.75293 -19.07,3.67272 z m -5.9998,129.364845 -0.048,1.021322 q -1.571,33.873163 7.444,34.232963 l 22.8242,1.93412 15.3589,0.613 0.048,-1.02132 q -16.1159,-5.9297 -44.5057,-35.712138 l 0.048,-1.021322 -1.1687,-0.04663 z"
           style="-inkscape-font-specification:'Metal Macabre'"
           id="path4758"
           inkscape:connector-curvature="0" />
      </g>
      <g
         id="g5652">
        <path
           d="m 2629.2547,-72.44305 -0.1109,2.38303 -12.8932,3.91927 -0.055,1.19152 q 8.1803,0.32648 8.0698,2.70952 l -0.1579,3.40433 -2.4557,2.45997 -4.5074,-0.17991 q -25.3758,-1.01276 -26.6546,26.562385 l -9.0469,195.068605 q -1.5078,32.51143 17.0231,33.25102 l 4.4601,1.2012 6.8448,0.27317 2.2267,2.47632 -0.1657,3.57456 -2.432,1.94932 -76.2938,-3.04496 q -22.983,23.12773 -76.3239,51.6946 64.4199,-61.89001 74.4206,-86.38856 l 1.1686,0.0466 1.2801,1.24483 1.0019,0.0399 4.4681,-96.342788 -73.7897,-2.945029 -5.1076,110.130357 q -0.4895,10.55345 9.6469,11.9812 5.5092,0.21987 5.3986,2.6029 l -0.1659,3.57457 -2.2649,1.95598 -93.3222,-3.72459 -2.2425,-2.1359 0.1659,-3.57455 2.4476,-2.28975 5.5093,0.21987 q 23.8731,0.95281 25.1678,-26.96275 l 3.4917,-42.8347 5.2657,-113.5347078 q 3.0708,-66.2143822 -3.7738,-66.4875722 -10.0901,-6.03026 -15.9332,-6.26347 l -7.8465,-0.31315 -2.2187,-2.64654 0.1579,-3.40432 2.4476,-2.28977 91.9866,3.67129 5.78,1.59494 -0.048,1.02131 q -1.9457,5.89097 -8.1226,5.64443 -9.782,12.57003 -10.8951,36.570623 l -1.1762,25.36231756 75.1252,2.99833264 q -0.6781,-7.0188636 -2.0136,-7.0721676 l 1.3727,-7.9602266 0.6474,-13.957789 q 0.821,-17.70256 -3.962,-33.5824 l -11.5192,-0.45975 -2.0519,-2.63986 0.1579,-3.40434 q 0.1108,-2.38303 9.1255,-2.02324 l -2.0043,-3.66118 q 0.079,-1.70215 94.6959,-0.65439 z m -161.4991,92.292432 -1.6657,35.915771 73.7898,2.945026 1.6656,-35.915767 -73.7897,-2.94503 z"
           style="-inkscape-font-specification:'Metal Macabre'"
           id="path4760"
           inkscape:connector-curvature="0" />
      </g>
      <g
         id="g5655">
        <path
           d="m 2780.0981,-180.30064 22.2036,0.88619 q 40.4006,1.61244 77.8779,33.80395 5.1753,0.20654 39.1691,28.16627 l -1.3355,-0.0533 -35.8561,-9.44606 -1.3986,1.30844 -0.048,1.02131 q 28.082,36.4209 25.8953,83.570992 l -0.6789,14.638652 q -3.5998,77.618917 -79.5616,117.902325 -16.5738,3.94289 -22.9931,16.135511 -25.804,26.25526 -26.6249,43.95783 -2.4083,1.43867 -9.5833,37.13455 l -2.8382,-0.11324 q 2.329,-50.214 -31.8613,-95.575825 -82.4024,-37.22464 -79.4852,-136.187307 2.5105,-54.128978 35.291,-90.167168 l -12.9584,-1.88144 -27.4896,1.29031 0.1108,-2.38303 q 99.1096,-45.32818 132.1647,-44.00891 z m -46.4469,107.11621 -0.3709,8.00019 q -4.7367,102.130153 16.5988,146.978939 l 17.9116,3.272849 13.0218,0.519713 q 25.0418,0.999443 25.839,-16.192463 18.7786,-44.270971 22.789,-130.741168 3.5367,-76.25718 -26.6231,-96.73101 l -7.9502,-1.68155 -19.3655,-0.77291 q -16.8614,-0.67296 -31.5118,26.70958 -8.6256,23.70075 -10.3387,60.63783 z m -35.7595,42.570051 -0.3552,7.659755 q -1.8474,39.830761 19.7395,75.651383 l 0.071,-1.531959 q -18.657,-70.151138 -18.1202,-81.725883 l -1.3355,-0.0533 z m 160.2085,22.0830476 q -13.2378,43.8099754 -26.4736,69.5436574 l -0.063,1.361732 1.3355,0.05331 q 24.8,-33.457668 26.4026,-68.0117024 l 0.1338,-2.893695 -1.3356,-0.0533 z m -102.5076,107.7777904 -0.063,1.361741 q 7.7564,16.68063 13.4574,19.97774 l 2.6712,0.10661 q 15.6407,-12.67725 19.1598,-20.0402 l -13.0846,0.84202 -13.0219,-0.51971 -9.1188,-1.728199 z"
           style="-inkscape-font-specification:'Metal Macabre'"
           id="path4762"
           inkscape:connector-curvature="0" />
      </g>
      <g
         id="g5658">
        <path
           d="m 3220.813,-445.90897 -50.7046,43.84942 12.02,0.47974 2.2267,2.47632 -0.1108,2.38302 q -0.1032,2.21283 -18.9269,4.19005 l -7.5654,8.05412 0.9544,1.06128 -0.063,1.36174 -3.3941,1.05827 -2.2817,23.95393 -9.5522,205.96247 q -0.3237,6.9789 6.5211,7.25208 9.3489,0.37313 27.9946,-12.1842 l 1.0017,0.0399 -0.071,1.53197 q -21.152,30.53368 -23.7034,31.45504 l -45.0753,-1.79901 q -47.2453,-1.8856 -100.0501,-60.60972 -38.7329,-55.60453 -35.7094,-120.79761 1.3894,-29.95817 15.8151,-63.3183 l 0.3395,-7.31933 q 1.1605,-25.02188 -20.8763,-25.90139 l -4.8413,-0.19324 -2.2188,-2.64654 0.1108,-2.38302 2.4476,-2.28975 14.0234,0.55968 0.055,-1.19153 -25.6566,-9.38003 0.1108,-2.38303 116.2457,17.94098 -0.1108,2.38303 q -18.6088,4.54382 -40.4069,52.6165 -10.4373,26.69804 -11.0214,39.29408 l -1.3894,29.95818 q -3.1734,68.42719 23.1926,84.14524 12.2367,6.62755 28.0965,7.26053 13.5225,0.5397 33.4576,-7.36181 l 8.3601,-180.25972 q 0.7263,-15.65995 -11.8454,-25.88202 l 0.048,-1.02131 2.5041,0.0999 31.9012,-2.64905 q 0.1894,-4.08518 -4.2402,-9.54847 l 0.063,-1.36173 16.3607,0.65295 74.9635,-29.57972 1.0017,0.04 z m -161.6393,272.02754 -10.4624,-1.61128 q 29.6545,31.36769 48.1854,32.10728 l 3.0003,-14.20495 0.9553,-20.59623 -1.3355,-0.0533 q -17.9725,5.25131 -40.3431,4.35848 z"
           style="-inkscape-font-specification:'Metal Macabre'"
           id="path4764"
           inkscape:connector-curvature="0" />
      </g>
      <g
         id="g5661">
        <path
           d="m 3464.9215,-733.6477 -46.0471,40.79521 -4.0262,86.81063 -2.6145,2.28308 -2.3372,-0.0933 q -1.9877,-0.42038 -7.5164,-36.28223 -7.0412,-17.67528 -13.9277,-24.25982 l -28.6532,40.80727 -1.3356,-0.0533 0.663,-14.29818 q 1.2317,-26.55387 -27.4932,-34.69211 l -11.5912,-2.50902 q -13.3037,12.77054 -14.2273,32.68592 -0.9157,19.74516 28.4003,36.77467 27.5382,26.50835 66.3575,55.00174 25.4718,27.79012 24.2403,54.34395 l -0.5525,11.91521 q -1.9026,41.02226 -47.0969,63.43405 -14.5627,3.85264 -24.9133,3.43954 l -16.0266,-0.63966 -1.2724,-1.41504 -1.0017,-0.04 q -10.9325,19.34538 -51.0147,43.32547 l -33.4938,18.95652 14.7577,-15.27047 -14.4182,7.95114 -2.3372,-0.0933 q 44.9924,-32.48123 59.6845,-53.55241 l 0.048,-1.02131 -2.5042,-0.0999 q -12.8548,-0.51306 -27.388,-4.50374 -0.1579,3.40434 -2.6621,3.30441 l -2.3371,-0.0933 q -2.0034,-0.0799 -3.1824,-7.11881 -46.6702,-17.89267 -67.7599,-64.43696 -21.6502,-34.4589 -21.508,-37.5228 65.4329,71.33591 91.4867,79.36754 l 2.8577,-61.61853 2.4397,-2.11953 2.3373,0.0933 q 2.5042,0.0999 7.7622,34.58672 9.9852,26.3194 21.8318,30.54391 27.4475,-7.60167 54.3379,-42.85178 1.3103,-28.25599 -34.529,-59.70001 -27.3465,-23.43113 -54.2202,-35.41774 -13.2136,-3.59693 -33.1319,-17.69338 l -14.9146,-2.98271 q -19.6994,-0.78625 -43.3919,16.00351 l -1.5025,-0.06 0.063,-1.36174 q 29.7859,-29.1659 38.2537,-49.4623 58.0048,-60.6113 104.0816,-58.77231 l 5.7878,1.42472 16.479,-1.90028 4.5074,0.17991 q 9.5161,0.37978 28.7722,7.11693 l -5.4089,-9.59513 0.048,-1.02131 16.5275,0.65963 73.6122,-29.29259 1.0019,0.0399 z m -216.5402,74.57724 q 23.1626,16.27233 29.3396,16.51886 2.4825,-17.46571 14.561,-32.67257 l 0.048,-1.02133 q -21.8698,-0.87285 -43.948,17.17503 z m 137.4819,173.12002 6.5683,6.23078 0.1186,-2.55327 -2.6759,-14.43147 q -2.3372,-0.0933 -4.011,10.75396 z"
           style="-inkscape-font-specification:'Metal Macabre'"
           id="path4766"
           inkscape:connector-curvature="0" />
      </g>
      <g
         id="g5664">
        <path
           d="m 3632.0811,-1058.2651 q -31.5713,38.815 -32.8345,66.04972 l -0.4183,9.02155 -3.6717,3.43464 -1.5147,11.02429 -2.0033,-0.08 q -3.4039,-52.8305 -19.7645,-53.4834 0.095,-2.0426 -10.9079,-2.8227 l -35.2253,-1.406 q -25.9879,23.0078 -30.7987,43.79127 l 1.8929,2.46304 70.7846,2.825 1.1212,1.0679 1.0017,0.04 q -15.6993,28.36404 -25.8194,51.83465 l 1.5024,0.06 q 14.6911,0.5863 21.7443,-18.06121 1.4574,-16.99506 4.1283,-16.88836 l 3.0051,0.1199 2.3937,2.483 -4.0577,87.49139 -2.6147,2.2831 -3.005,-0.12 q -2.0033,-0.08 -4.6984,-24.91454 -6.1659,-14.91174 -26.7,-15.73144 l -49.5827,-1.9789 -0.095,2.0427 q -1.5395,33.19221 35.7698,87.03444 25.5112,26.93909 34.0256,27.2789 22.2035,0.88618 45.3531,-47.47363 l 5.5092,0.21987 0.9542,1.06129 1.0017,0.0403 -20.3385,63.47875 18.248,10.44863 -0.1108,2.38304 -44.8959,-12.87644 -141.9032,-5.66351 -1.8927,-2.463 0.1499,-3.23412 2.1138,-2.3031 8.0134,0.31983 q 20.3672,0.81289 21.7251,-28.46441 l 3.2145,-40.45831 0.8209,-17.70252 q -14.9103,-39.13529 -12.7315,-86.11502 0.9079,-19.57512 17.6562,-48.92029 -0.2438,-16.3808 -3.5681,-20.4357 l -1.0569,1.1516 -1.0017,-0.04 q -11.3524,-0.4532 -60.0778,-31.7293 l -2.5042,-0.1004 0.1021,-2.2127 69.9771,13.0246 141.2355,5.6369 q 5.3422,0.2133 30.3476,-12.4313 z m -143.7453,98.96979 -1.5709,33.87297 54.09,2.1589 1.0026,-21.61751 q 0.5368,-11.57476 -8.0744,-17.03436 l -26.3773,-1.05289 q -18.8646,-0.7528 -19.07,3.67289 z m -5.9997,129.3645 -0.048,1.02135 q -1.5709,33.87317 7.4441,34.23296 l 22.8241,1.93414 15.359,0.61298 0.048,-1.0213 q -16.1158,-5.92971 -44.5058,-35.71217 l 0.048,-1.02134 -1.1686,-0.0466 z"
           style="-inkscape-font-specification:'Metal Macabre'"
           id="path4768"
           inkscape:connector-curvature="0" />
      </g>
    </g>
  </g>
  <g
     inkscape:groupmode="layer"
     id="layer2"
     inkscape:label="Layer 2">
    <text
       transform="matrix(0.99948877,0,0,1.0005115,0,2490.9449)"
       sodipodi:linespacing="125%"
       id="text4281"
       y="-346.51611"
       x="2467.7908"
       style="color:#000000;font-size:509.12393188px;line-height:125%;letter-spacing:0px;word-spacing:0px;text-anchor:middle;solid-opacity:1;fill:#000000;stroke:#ffffff;stroke-width:1.00275588;stroke-miterlimit:0"
       xml:space="preserve"><tspan
         id="tspan4283"
         style="font-size:354.33071899px;font-family:'Metal Macabre';-inkscape-font-specification:'Metal Macabre'"
         y="-346.51611"
         x="2467.7908"
         sodipodi:role="line">Rd</tspan></text>
  </g>
  <g
     inkscape:groupmode="layer"
     id="layer3"
     inkscape:label="Layer 3">
    <g
       style="color:#000000;font-size:509.12393188px;letter-spacing:0px;word-spacing:0px;text-anchor:middle;solid-opacity:1;fill:#000000;stroke:#ffffff;stroke-width:1.00275588;stroke-miterlimit:0"
       id="text4277">
      <path
         d="M2182.7221934 1311.62440024C2215.85465833 1335.41751042 2235.36788016 1345.96036094 2232.60653777 1351.63680164C2238.70173188 1361.3950887 2238.56741137 1384.57077619 2239.38641556 1420.7149291C2240.59520137 1421.06484066 2241.42282989 1426.57430259 2242.56646327 1437.16604729C2242.56646327 1437.16604729 2241.37570995 1437.09612016 2241.37570995 1437.09612016C2241.37570995 1437.09612016 2232.55324944 1422.02376055 2232.55324944 1422.02376055C2219.74282726 1421.09870762 2190.30720791 1432.15788415 2140.67777026 1456.433501C2140.67777026 1456.433501 2140.07423375 1458.2637099 2140.07423375 1458.2637099C2163.67019021 1469.53316686 2180.42082053 1484.14117975 2191.09964354 1502.70765349C2204.15102271 1531.69764509 2213.3430566 1563.24935182 2218.26761692 1598.16063019C2218.26761692 1598.16063019 2218.30101036 1604.39020151 2218.30101036 1604.39020151C2218.56165011 1629.43829352 2207.77536858 1659.61060113 2191.71787182 1696.57703123C2192.43310096 1700.38998609 2211.52821804 1710.99794809 2246.94234936 1728.13311341C2246.94234936 1728.13311341 2298.95833304 1756.32455735 2298.95833304 1756.32455735C2298.95833304 1756.32455735 2307.69655473 1763.89781515 2307.69655473 1763.89781515C2307.69655473 1763.89781515 2306.89701846 1765.46194361 2306.89701846 1765.46194361C2241.81602727 1738.5690861 2197.91520393 1720.47709132 2186.23060825 1709.98532918C2154.81574941 1765.82871363 2144.83548424 1807.87954711 2135.04394091 1832.0166098C2136.44752491 1776.36677199 2153.57222218 1732.8899681 2167.95175155 1696.01598915C2127.02157006 1661.15993834 2086.00026915 1617.36119005 2059.79951617 1561.91861105C2059.79951617 1561.91861105 2045.22487517 1515.74034023 2045.22487517 1515.74034023C2045.22487517 1515.74034023 2035.57881267 1520.37486528 2035.57881267 1520.37486528C2035.57881267 1520.37486528 2034.29312556 1532.93498239 2034.29312556 1532.93498239C2034.29312556 1532.93498239 2029.8180948 1601.62290362 2029.8180948 1601.62290362C2029.8180948 1601.62290362 2031.02140135 1601.61960021 2031.02140135 1601.61960021C2041.6500298 1601.59049644 2048.20935484 1588.20345612 2054.86138851 1561.79561614C2054.86138851 1561.79561614 2057.40525902 1561.85930766 2057.40525902 1561.85930766C2057.40525902 1561.85930766 2067.31182227 1691.50542086 2067.31182227 1691.50542086C2067.31182227 1691.50542086 2064.84313414 1691.67042311 2064.84313414 1691.67042311C2053.26879739 1665.49143677 2047.08736807 1652.28506726 2042.42840505 1652.47263083C2042.42840505 1652.47263083 2034.8554946 1650.83633953 2034.8554946 1650.83633953C2034.8554946 1650.83633953 2048.40777728 1718.12252766 2048.40777728 1718.12252766C2048.40777728 1718.12252766 2109.12001112 1765.59766168 2109.12001112 1765.59766168C2109.12001112 1765.59766168 2106.98656763 1765.85875085 2106.98656763 1765.85875085C2068.23171155 1744.19198977 2042.91249792 1733.24660732 2031.60824004 1734.60522459C2031.60824004 1734.60522459 2024.74161847 1735.44345847 2024.74161847 1735.44345847C2007.45822197 1737.58624873 1989.05005548 1745.66342522 1971.69789351 1761.50853657C1971.69789351 1761.50853657 1969.80101769 1757.5196953 1969.80101769 1757.5196953C1979.49933783 1735.39959899 1986.53679535 1721.36365767 1987.49124047 1713.26529606C1984.86284002 1698.04688597 1982.51518463 1684.34825462 1979.85902343 1672.00792671C1979.85902343 1672.00792671 1976.37281163 1653.49743485 1976.37281163 1653.49743485C1976.37281163 1653.49743485 1947.0570775 1655.10253297 1947.0570775 1655.10253297C1947.0570775 1655.10253297 1949.2386707 1688.07290087 1949.2386707 1688.07290087C1949.2386707 1688.07290087 1946.89524011 1688.29629212 1946.89524011 1688.29629212C1946.89524011 1688.29629212 1934.89539872 1600.07210782 1934.89539872 1600.07210782C1934.89539872 1600.07210782 1906.47428887 1647.64068813 1906.47428887 1647.64068813C1881.53452035 1683.76533245 1873.88561932 1723.49658224 1883.33126992 1762.40915576C1880.72037294 1763.04460495 1881.92542578 1793.94688763 1915.05696715 1861.66936955C1915.05696715 1861.66936955 1978.56426394 1967.87162032 1978.56426394 1967.87162032C1978.56426394 1967.87162032 1990.59424773 1987.75690613 1990.59424773 1987.75690613C1990.59424773 1987.75690613 1987.35610493 1986.35768987 1987.35610493 1986.35768987C1856.84791106 1827.35309791 1863.14594063 1751.84877602 1867.27290991 1733.37490889C1863.25880675 1722.89838967 1864.69617692 1667.71591593 1916.47384476 1590.32853332C1931.07876307 1569.6030969 1952.03532088 1548.56438563 1979.05441431 1527.76153099C1979.05441431 1527.76153099 2018.3306194 1416.69915998 2018.3306194 1416.69915998C2037.44088473 1415.4897019 2050.22629629 1407.86663123 2058.26058329 1394.05192926C2067.32055197 1378.47360012 2067.2902777 1369.49147928 2056.61242186 1366.77713168C2056.61242186 1366.77713168 2040.82055667 1369.05735188 2040.82055667 1369.05735188C2040.82055667 1369.05735188 2042.0400622 1367.23885512 2042.0400622 1367.23885512C2042.0400622 1367.23885512 1984.83689023 1378.52583021 1984.83689023 1378.52583021C1984.83689023 1378.52583021 1987.33100357 1374.69708398 1987.33100357 1374.69708398C2080.1272793 1317.524162 2146.42244604 1301.77467941 2182.7221934 1311.62440024C2182.7221934 1311.62440024 2182.7221934 1311.62440024 2182.7221934 1311.62440024M2071.0343713 1417.83288759C2067.51380682 1424.87999604 2060.93512585 1454.43500731 2068.84298261 1503.02667801C2070.60137128 1536.61521225 2082.92369773 1570.251494 2104.88751812 1603.08459246C2111.59115064 1610.02670097 2120.07328828 1622.83206481 2131.6447757 1641.20157049C2146.02082466 1660.72329211 2159.8257237 1675.01320772 2171.73035039 1684.41928412C2181.2848078 1661.6323719 2186.84121858 1643.87208905 2186.02115946 1630.47459C2182.59620667 1574.5203297 2147.21694844 1528.1057858 2087.38287704 1479.7420786C2087.38287704 1479.7420786 2075.69412505 1475.28778961 2075.69412505 1475.28778961C2075.69412505 1475.28778961 2076.24933923 1473.59859102 2076.24933923 1473.59859102C2085.71341727 1461.11858007 2120.4408826 1442.49401405 2174.91222192 1418.64537464C2184.01327872 1404.93496606 2189.80571654 1395.86289221 2191.83803263 1391.31973579C2192.76717388 1369.45587544 2190.74726239 1357.5255837 2181.7744461 1355.93339495C2181.7744461 1355.93339495 2170.77960058 1352.07949892 2170.77960058 1352.07949892C2144.35651048 1346.97661625 2115.12880034 1359.94623224 2088.45668651 1393.79175347C2088.45668651 1393.79175347 2071.0343713 1417.83288759 2071.0343713 1417.83288759C2071.0343713 1417.83288759 2071.0343713 1417.83288759 2071.0343713 1417.83288759M1941.07618096 1594.24524197C1941.07618096 1594.24524197 1948.4749426 1603.73686797 1948.4749426 1603.73686797C1948.4749426 1603.73686797 1971.93682892 1603.60939846 1971.93682892 1603.60939846C1971.93682892 1603.60939846 1973.4910582 1564.78251471 1973.4910582 1564.78251471C1958.51868673 1574.58933408 1947.70059206 1584.50290413 1941.07618096 1594.24524197C1941.07618096 1594.24524197 1941.07618096 1594.24524197 1941.07618096 1594.24524197"
         style="-inkscape-font-specification:'Metal Macabre'"
         id="path4319" />
      <path
         d="M2270.97488662 1402.68894492C2270.97488662 1402.68894492 2351.02707112 1406.15927368 2351.02707112 1406.15927368C2351.02707112 1406.15927368 2350.9191015 1407.29762209 2350.9191015 1407.29762209C2350.9191015 1407.29762209 2326.61481845 1429.36642397 2326.61481845 1429.36642397C2326.61481845 1429.36642397 2324.1474529 1434.45530971 2324.1474529 1434.45530971C2324.1474529 1434.45530971 2338.80528683 1434.8097492 2338.80528683 1434.8097492C2338.80528683 1434.8097492 2340.51823943 1437.50911817 2340.51823943 1437.50911817C2340.51823943 1437.50911817 2340.30705426 1439.78774231 2340.30705426 1439.78774231C2340.30705426 1439.78774231 2338.07466467 1442.40718089 2338.07466467 1442.40718089C2338.07466467 1442.40718089 2333.03392009 1442.30176437 2333.03392009 1442.30176437C2324.80954322 1442.12204866 2320.20987717 1445.8123326 2319.3382747 1453.42958264C2319.3382747 1453.42958264 2315.83204172 1476.06858661 2315.83204172 1476.06858661C2315.83204172 1476.06858661 2312.10402651 1672.62806941 2312.10402651 1672.62806941C2318.15571976 1675.86120009 2323.44195287 1677.45049618 2328.00995399 1677.40477082C2328.00995399 1677.40477082 2332.67510066 1677.35978485 2332.67510066 1677.35978485C2332.67510066 1677.35978485 2334.99583719 1680.18821577 2334.99583719 1680.18821577C2334.99583719 1680.18821577 2335.1063409 1682.46689618 2335.1063409 1682.46689618C2335.1063409 1682.46689618 2333.06650695 1685.14721143 2333.06650695 1685.14721143C2333.06650695 1685.14721143 2312.93454836 1685.38920022 2312.93454836 1685.38920022C2312.93454836 1685.38920022 2314.72972651 1694.13311497 2314.72972651 1694.13311497C2314.72972651 1694.13311497 2314.93551122 1696.79914119 2314.93551122 1696.79914119C2330.44032383 1706.726894 2338.76532625 1711.68391092 2340.45625936 1711.66300253C2340.45625936 1711.66300253 2340.5985512 1713.94074313 2340.5985512 1713.94074313C2340.5985512 1713.94074313 2262.60580452 1715.69286405 2262.60580452 1715.69286405C2262.60580452 1715.69286405 2262.25011571 1713.38071187 2262.25011571 1713.38071187C2270.98661275 1713.10245492 2275.77345437 1703.96006777 2277.73982322 1685.98607057C2277.73982322 1685.98607057 2254.85596848 1686.49640794 2254.85596848 1686.49640794C2254.85596848 1686.49640794 2252.50485975 1683.84460845 2252.50485975 1683.84460845C2252.50485975 1683.84460845 2252.23560479 1681.5287762 2252.23560479 1681.5287762C2252.23560479 1681.5287762 2253.95039418 1678.58846502 2253.95039418 1678.58846502C2253.95039418 1678.58846502 2259.63604438 1678.46539912 2259.63604438 1678.46539912C2272.36807377 1678.19599483 2277.86072479 1669.72162287 2276.82388747 1652.98076253C2276.82388747 1652.98076253 2281.01817292 1495.6039103 2281.01817292 1495.6039103C2284.81760153 1462.63334142 2286.35464498 1446.08529433 2282.87578213 1445.94956795C2279.65923519 1442.34498738 2275.68440794 1440.427704 2270.82057987 1440.20452838C2270.82057987 1440.20452838 2266.44305598 1439.99979135 2266.44305598 1439.99979135C2266.44305598 1439.99979135 2265.17699395 1437.20878939 2265.17699395 1437.20878939C2265.17699395 1437.20878939 2265.69157082 1434.89301434 2265.69157082 1434.89301434C2265.69157082 1434.89301434 2268.13345458 1432.28478365 2268.13345458 1432.28478365C2268.13345458 1432.28478365 2286.06319292 1433.12348208 2286.06319292 1433.12348208C2285.13297599 1428.82672849 2279.23682116 1419.2160053 2270.65903064 1403.8478893C2270.65903064 1403.8478893 2270.97488662 1402.68894492 2270.97488662 1402.68894492C2270.97488662 1402.68894492 2270.97488662 1402.68894492 2270.97488662 1402.68894492"
         style="-inkscape-font-specification:'Metal Macabre'"
         id="path4321" />
      <path
         d="M2486.45514605 1388.38715643C2486.45514605 1388.38715643 2495.3962437 1398.18100938 2495.3962437 1398.18100938C2495.3962437 1398.18100938 2548.73236362 1394.2044945 2548.73236362 1394.2044945C2548.73236362 1394.2044945 2551.88625706 1397.35822284 2551.88625706 1397.35822284C2551.88625706 1397.35822284 2552.86417047 1400.10358291 2552.86417047 1400.10358291C2553.60409829 1402.19524153 2550.71861892 1405.09597511 2543.97155278 1408.68419291C2537.61300045 1409.1766317 2539.70376293 1445.22206827 2527.9337576 1514.90486024C2530.97696037 1542.52764834 2507.9953718 1620.12226042 2452.47127485 1743.92339475C2436.7767984 1777.37630175 2429.713291 1795.75973435 2429.40465568 1799.17324103C2429.40465568 1799.17324103 2427.71620979 1799.13850092 2427.71620979 1799.13850092C2427.71620979 1799.13850092 2439.27951906 1708.75168912 2439.27951906 1708.75168912C2423.15365285 1631.64234604 2400.25087429 1551.17735328 2386.15296915 1466.60338205C2386.15296915 1466.60338205 2373.78414537 1424.32369282 2373.78414537 1424.32369282C2358.78069098 1436.95445773 2349.5127183 1443.1819294 2347.4767765 1443.14853575C2347.4767765 1443.14853575 2370.08391418 1418.41622494 2370.08391418 1418.41622494C2367.86331529 1415.36121411 2361.60103855 1411.95704431 2351.61684404 1408.07278548C2351.61684404 1408.07278548 2352.00696636 1403.89934953 2352.00696636 1403.89934953C2352.00696636 1403.89934953 2354.26261457 1400.71655214 2354.26261457 1400.71655214C2354.26261457 1400.71655214 2428.0563729 1400.77519242 2428.0563729 1400.77519242C2428.0563729 1400.77519242 2430.04456119 1403.96501734 2430.04456119 1403.96501734C2430.04456119 1403.96501734 2430.27442914 1406.61996199 2430.27442914 1406.61996199C2430.27442914 1406.61996199 2413.77374617 1415.77731019 2413.77374617 1415.77731019C2425.31312353 1477.80793428 2437.80694803 1522.02080552 2449.54196448 1548.41506611C2449.54196448 1548.41506611 2477.52467089 1628.45237246 2477.52467089 1628.45237246C2479.42129025 1628.46147632 2494.19343354 1594.58467866 2508.46164893 1525.48583106C2508.46164893 1525.48583106 2506.19947397 1501.90102521 2506.19947397 1501.90102521C2497.16230971 1458.78946302 2485.34644482 1437.54722393 2474.45319672 1437.88936101C2474.45319672 1437.88936101 2466.08362001 1436.60867142 2466.08362001 1436.60867142C2466.08362001 1436.60867142 2465.29510407 1436.63104661 2465.29510407 1436.63104661C2458.98713231 1436.80905339 2451.27480933 1439.49041053 2441.74553645 1444.60053587C2441.74553645 1444.60053587 2441.61853228 1443.08198875 2441.61853228 1443.08198875C2457.40454048 1417.83494176 2471.55292012 1399.62500532 2486.45514605 1388.38715643C2486.45514605 1388.38715643 2486.45514605 1388.38715643 2486.45514605 1388.38715643M2503.07130409 1409.82569826C2503.07130409 1409.82569826 2503.43574448 1411.3646426 2503.43574448 1411.3646426C2512.62254764 1428.39690194 2518.13820477 1441.20043984 2519.83009939 1449.68466862C2522.10206162 1447.89965272 2522.22005611 1439.39077008 2519.39338703 1424.14997475C2514.11941903 1414.265717 2508.65846754 1409.51422094 2503.07130409 1409.82569826C2503.07130409 1409.82569826 2503.07130409 1409.82569826 2503.07130409 1409.82569826"
         style="-inkscape-font-specification:'Metal Macabre'"
         id="path4323" />
      <path
         d="M2708.04098651 1363.34743934C2716.87206727 1401.4014014 2721.62833841 1430.5538201 2730.85422044 1453.57566997C2730.85422044 1453.57566997 2735.25674608 1465.01464683 2735.25674608 1465.01464683C2735.25674608 1465.01464683 2733.93888815 1469.85499318 2733.93888815 1469.85499318C2733.93888815 1469.85499318 2737.76738929 1483.92798841 2737.76738929 1483.92798841C2737.76738929 1483.92798841 2736.05164536 1484.08247738 2736.05164536 1484.08247738C2718.8255808 1440.11759659 2700.22644215 1419.05672529 2691.61728571 1420.27391528C2690.81063491 1418.57954834 2687.44138726 1418.01463336 2681.53829306 1418.53246209C2681.53829306 1418.53246209 2653.86653017 1422.10459605 2653.86653017 1422.10459605C2649.29911925 1443.04963098 2647.1678047 1461.48947127 2649.65813439 1478.2976497C2649.65813439 1478.2976497 2652.14352356 1481.02846347 2652.14352356 1481.02846347C2652.14352356 1481.02846347 2712.20653682 1476.35180642 2712.20653682 1476.35180642C2712.20653682 1476.35180642 2713.60950239 1477.53293208 2713.60950239 1477.53293208C2713.60950239 1477.53293208 2714.46056427 1477.45726794 2714.46056427 1477.45726794C2714.07823003 1502.18457289 2711.6999938 1524.20295623 2709.07488921 1543.88165568C2709.07488921 1543.88165568 2710.41265702 1543.83429839 2710.41265702 1543.83429839C2719.13266673 1543.52468609 2724.46899334 1535.5172565 2724.80803214 1519.65273829C2722.24292464 1505.52042633 2721.1231935 1498.3900701 2722.66522823 1498.27772706C2722.66522823 1498.27772706 2725.26735827 1498.08704075 2725.26735827 1498.08704075C2725.26735827 1498.08704075 2728.23099367 1500.90631727 2728.23099367 1500.90631727C2728.23099367 1500.90631727 2740.77804986 1610.31126536 2740.77804986 1610.31126536C2740.77804986 1610.31126536 2738.41222365 1613.26655491 2738.41222365 1613.26655491C2738.41222365 1613.26655491 2735.70727311 1613.23734333 2735.70727311 1613.23734333C2734.50503328 1613.22443564 2733.58332871 1602.94284832 2730.43899259 1582.5390742C2725.83321748 1570.46668573 2716.9721777 1564.65011296 2704.69315515 1564.90640049C2704.69315515 1564.90640049 2660.21930549 1565.74660717 2660.21930549 1565.74660717C2660.21930549 1565.74660717 2660.39308297 1568.17825952 2660.39308297 1568.17825952C2662.20184251 1594.521122 2674.91237681 1627.98844931 2690.45562998 1671.37449303C2702.28547727 1693.04405686 2708.84754579 1704.60145651 2713.73012438 1704.97608882C2726.46326477 1705.95308197 2746.64142169 1686.68317645 2764.61909401 1645.30845189C2764.61909401 1645.30845189 2769.54124464 1645.49502328 2769.54124464 1645.49502328C2769.54124464 1645.49502328 2770.25821263 1646.83845871 2770.25821263 1646.83845871C2770.25821263 1646.83845871 2771.15274381 1646.87388459 2771.15274381 1646.87388459C2771.15274381 1646.87388459 2735.59167174 1727.5905313 2735.59167174 1727.5905313C2735.59167174 1727.5905313 2746.52624092 1741.77233596 2746.52624092 1741.77233596C2746.52624092 1741.77233596 2745.27031422 1744.83205302 2745.27031422 1744.83205302C2745.27031422 1744.83205302 2712.61926286 1726.60371308 2712.61926286 1726.60371308C2712.61926286 1726.60371308 2593.06117027 1717.8844557 2593.06117027 1717.8844557C2593.06117027 1717.8844557 2592.00192294 1715.03270193 2592.00192294 1715.03270193C2592.00192294 1715.03270193 2592.83166429 1711.2818275 2592.83166429 1711.2818275C2592.83166429 1711.2818275 2595.13111779 1708.59916688 2595.13111779 1708.59916688C2595.13111779 1708.59916688 2601.95235966 1708.9318496 2601.95235966 1708.9318496C2613.51054229 1709.50661941 2622.4186003 1698.38356222 2626.17723597 1675.47663036C2626.17723597 1675.47663036 2632.78442052 1627.94814203 2632.78442052 1627.94814203C2632.78442052 1627.94814203 2633.6497748 1607.16049154 2633.6497748 1607.16049154C2624.21440159 1577.00219765 2617.10099357 1543.96400532 2610.4214842 1507.433279C2607.63835602 1492.21214697 2608.05117957 1472.81388118 2608.96562841 1448.73789525C2604.38419771 1435.99418863 2600.26326966 1428.17928781 2597.33269465 1425.28673092C2597.33269465 1425.28673092 2597.04885343 1426.75246523 2597.04885343 1426.75246523C2597.04885343 1426.75246523 2596.26366772 1426.82208001 2596.26366772 1426.82208001C2590.3307054 1427.34687256 2569.766367 1417.2886645 2537.87403898 1396.96510242C2537.87403898 1396.96510242 2536.04008155 1397.11639055 2536.04008155 1397.11639055C2536.04008155 1397.11639055 2535.20206997 1394.58382728 2535.20206997 1394.58382728C2535.20206997 1394.58382728 2591.63652959 1401.39252049 2591.63652959 1401.39252049C2591.63652959 1401.39252049 2697.19478397 1385.5892136 2697.19478397 1385.5892136C2699.85660228 1385.06843019 2704.1902131 1377.98509983 2708.04098651 1363.34743934C2708.04098651 1363.34743934 2708.04098651 1363.34743934 2708.04098651 1363.34743934M2651.8324219 1506.77913065C2651.8324219 1506.77913065 2658.43420785 1547.10396714 2658.43420785 1547.10396714C2658.43420785 1547.10396714 2706.62753255 1545.64317889 2706.62753255 1545.64317889C2706.62753255 1545.64317889 2702.16169949 1519.16910825 2702.16169949 1519.16910825C2700.24573358 1509.7190422 2695.96933236 1503.05979488 2689.82904064 1499.23638847C2689.82904064 1499.23638847 2667.01168847 1500.61394295 2667.01168847 1500.61394295C2656.13258028 1501.23573296 2651.09415254 1503.26675059 2651.8324219 1506.77913065C2651.8324219 1506.77913065 2651.8324219 1506.77913065 2651.8324219 1506.77913065M2656.86779093 1660.78354356C2656.86779093 1660.78354356 2656.69003702 1661.99937575 2656.69003702 1661.99937575C2652.72205543 1688.88260007 2651.44495044 1702.46968053 2656.60695542 1702.77813609C2656.60695542 1702.77813609 2675.925807 1705.24543335 2675.925807 1705.24543335C2675.925807 1705.24543335 2689.10249185 1706.15045777 2689.10249185 1706.15045777C2689.10249185 1706.15045777 2689.44324565 1704.90457523 2689.44324565 1704.90457523C2681.24203332 1699.95796739 2671.89667964 1685.34621182 2657.72441839 1662.03487855C2657.72441839 1662.03487855 2657.90286853 1660.81837226 2657.90286853 1660.81837226C2657.90286853 1660.81837226 2656.86779093 1660.78354356 2656.86779093 1660.78354356C2656.86779093 1660.78354356 2656.86779093 1660.78354356 2656.86779093 1660.78354356"
         style="-inkscape-font-specification:'Metal Macabre'"
         id="path4325" />
      <path
         d="M2723.45643096 1370.65350917C2723.45643096 1370.65350917 2778.96605035 1355.0827632 2778.96605035 1355.0827632C2809.09513353 1345.35357255 2841.19755731 1344.02501427 2875.48317658 1355.84341758C2884.85290263 1359.49302217 2915.91004801 1385.01090782 2953.15164725 1437.13957381C2953.15164725 1437.13957381 2954.93561652 1441.33505518 2954.93561652 1441.33505518C2954.93561652 1441.33505518 2937.72506716 1426.78037409 2937.72506716 1426.78037409C2937.72506716 1426.78037409 2936.88411784 1427.01967824 2936.88411784 1427.01967824C2932.11837835 1428.37289632 2926.65429269 1434.19260239 2919.88576819 1443.7756309C2919.88576819 1443.7756309 2922.25058847 1449.34877987 2922.25058847 1449.34877987C2928.88285632 1465.27204765 2932.2217348 1482.48072393 2931.76568978 1500.35017461C2940.85488708 1501.62216188 2961.02679032 1524.67489356 2977.99032805 1573.97713359C2977.99032805 1573.97713359 2983.7348422 1637.55901954 2983.7348422 1637.55901954C2980.9862369 1663.39672469 2968.39360412 1695.03797568 2942.57583492 1729.47114848C2944.09536625 1741.2199189 2950.19069292 1751.99408329 2961.17833074 1762.63497572C2961.17833074 1762.63497572 2957.5095378 1770.86842862 2957.5095378 1770.86842862C2957.5095378 1770.86842862 2953.97625925 1773.66424753 2953.97625925 1773.66424753C2953.97625925 1773.66424753 2914.29927611 1762.55886305 2914.29927611 1762.55886305C2914.29927611 1762.55886305 2868.09452401 1804.06664438 2868.09452401 1804.06664438C2866.58335135 1803.60022621 2841.37471462 1820.30401492 2789.40597588 1850.39050427C2789.40597588 1850.39050427 2788.67572827 1850.12983275 2788.67572827 1850.12983275C2788.67572827 1850.12983275 2808.58947799 1835.73275321 2808.58947799 1835.73275321C2808.58947799 1835.73275321 2807.46043171 1835.35477811 2807.46043171 1835.35477811C2793.51942828 1842.95206888 2785.84304842 1846.40458577 2784.53944832 1845.95982308C2865.0754716 1791.20761233 2901.90154346 1751.05473532 2907.87338242 1735.8752329C2907.87338242 1735.8752329 2871.15136341 1563.68298443 2871.15136341 1563.68298443C2871.15136341 1563.68298443 2857.96268298 1564.17278307 2857.96268298 1564.17278307C2857.96268298 1564.17278307 2859.98969295 1573.8307921 2859.98969295 1573.8307921C2859.98969295 1573.8307921 2856.54632255 1657.41478462 2856.54632255 1657.41478462C2856.54632255 1657.41478462 2856.02464244 1665.05884659 2856.02464244 1665.05884659C2852.40273691 1677.30011913 2847.35519088 1698.13479364 2836.09165769 1727.63332543C2838.79943342 1732.35986928 2841.71586265 1735.04107961 2845.02192293 1735.57732564C2845.02192293 1735.57732564 2851.68132091 1736.67410827 2851.68132091 1736.67410827C2851.68132091 1736.67410827 2852.26315951 1740.39857802 2852.26315951 1740.39857802C2852.26315951 1740.39857802 2850.09712285 1745.48546127 2850.09712285 1745.48546127C2850.09712285 1745.48546127 2846.86245575 1748.03173075 2846.86245575 1748.03173075C2846.86245575 1748.03173075 2835.64636242 1746.0333347 2835.64636242 1746.0333347C2835.64636242 1746.0333347 2836.48653631 1787.48105052 2836.48653631 1787.48105052C2836.48653631 1787.48105052 2835.67979096 1787.28146411 2835.67979096 1787.28146411C2829.13684288 1759.22046548 2821.01264569 1746.58716042 2817.19136053 1745.96051915C2817.19136053 1745.96051915 2808.41918439 1743.06833462 2808.41918439 1743.06833462C2799.92563009 1741.74830674 2785.0528278 1744.55838256 2764.05579688 1751.14025216C2764.05579688 1751.14025216 2764.64220997 1749.8044344 2764.64220997 1749.8044344C2764.64220997 1749.8044344 2778.86476009 1737.34872515 2778.86476009 1737.34872515C2771.94818443 1736.42108229 2768.84601022 1735.10030015 2769.53779081 1733.32222722C2769.53779081 1733.32222722 2771.32241335 1728.65476606 2771.32241335 1728.65476606C2771.32241335 1728.65476606 2774.31934237 1725.75963552 2774.31934237 1725.75963552C2774.31934237 1725.75963552 2781.26206897 1726.59186701 2781.26206897 1726.59186701C2792.50856651 1726.08709303 2801.11334364 1718.58058066 2805.62293723 1704.01579221C2805.62293723 1704.01579221 2786.77255168 1442.53242332 2786.77255168 1442.53242332C2785.73978267 1440.25661612 2782.93017709 1439.00323996 2778.39244788 1438.76088963C2774.63992517 1439.36418221 2767.59583353 1445.62062507 2756.00499311 1456.65158229C2760.96451725 1430.11288427 2762.6682382 1411.01636089 2766.12482964 1400.71829061C2754.8518445 1385.7347416 2745.50459444 1379.09127917 2739.39204988 1380.52315585C2739.39204988 1380.52315585 2730.97685483 1382.45323053 2730.97685483 1382.45323053C2730.97685483 1382.45323053 2727.6844739 1380.15128424 2727.6844739 1380.15128424C2727.6844739 1380.15128424 2723.87560612 1374.15024204 2723.87560612 1374.15024204C2723.87560612 1374.15024204 2723.45643096 1370.65350917 2723.45643096 1370.65350917C2723.45643096 1370.65350917 2723.45643096 1370.65350917 2723.45643096 1370.65350917M2833.63549635 1470.14820382C2833.63549635 1470.14820382 2855.5551794 1545.26751734 2855.5551794 1545.26751734C2873.84433392 1544.23268269 2886.44704881 1536.88256219 2891.99614257 1522.73278299C2891.99614257 1522.73278299 2891.61139138 1521.00044357 2891.61139138 1521.00044357C2881.93520694 1514.67277277 2873.55900155 1510.98167063 2866.6942198 1509.70199285C2866.6942198 1509.70199285 2866.31570912 1508.25503316 2866.31570912 1508.25503316C2873.51889008 1484.87829793 2880.25567032 1467.25613121 2889.70756084 1456.14186246C2889.70756084 1456.14186246 2887.48804191 1450.82345436 2887.48804191 1450.82345436C2873.8540654 1418.74415646 2854.11003231 1396.02366103 2834.27403872 1383.33716168C2818.60755743 1388.04838125 2816.121045 1402.87599455 2822.28098307 1427.80498341C2825.75611588 1441.76009476 2829.54624583 1455.8224117 2833.63549635 1470.14820382C2833.63549635 1470.14820382 2833.63549635 1470.14820382 2833.63549635 1470.14820382M2901.85704028 1554.42631929C2901.85704028 1554.42631929 2939.76080154 1703.93401634 2939.76080154 1703.93401634C2939.76080154 1703.93401634 2941.51538499 1704.21158173 2941.51538499 1704.21158173C2950.78736812 1687.04991724 2955.8714326 1672.67308782 2957.83202891 1661.53884575C2965.3898061 1618.61816899 2950.27044549 1577.15615532 2916.22486794 1543.13498333C2916.22486794 1543.13498333 2901.85704028 1554.42631929 2901.85704028 1554.42631929C2901.85704028 1554.42631929 2901.85704028 1554.42631929 2901.85704028 1554.42631929"
         style="-inkscape-font-specification:'Metal Macabre'"
         id="path4327" />
    </g>
  </g>
</svg>
