<?xml version="1.0" encoding="UTF-8" standalone="no"?>
<!-- Created with Inkscape (http://www.inkscape.org/) -->

<svg
   xmlns:dc="http://purl.org/dc/elements/1.1/"
   xmlns:cc="http://creativecommons.org/ns#"
   xmlns:rdf="http://www.w3.org/1999/02/22-rdf-syntax-ns#"
   xmlns:svg="http://www.w3.org/2000/svg"
   xmlns="http://www.w3.org/2000/svg"
   xmlns:sodipodi="http://sodipodi.sourceforge.net/DTD/sodipodi-0.dtd"
   xmlns:inkscape="http://www.inkscape.org/namespaces/inkscape"
   sodipodi:docname="RRBTextOnlyStraight.svg"
   inkscape:version="0.91 r13725"
   version="1.1"
   id="svg4172"
   viewBox="0 0 5010.2362 3543.3071"
   height="1000mm"
   width="1414mm">
  <sodipodi:namedview
     showguides="true"
     inkscape:snap-page="false"
     showgrid="false"
     inkscape:current-layer="svg4172"
     inkscape:document-units="px"
     inkscape:cy="520"
     inkscape:cx="375"
     inkscape:zoom="0.35"
     inkscape:pageshadow="2"
     inkscape:pageopacity="0.0"
     borderopacity="1.0"
     bordercolor="#666666"
     pagecolor="#ffffff"
     id="base" />
  <defs
     id="defs4174" />
  <metadata
     id="metadata4177">
    <rdf:RDF>
      <cc:Work
         rdf:about="">
        <dc:format>image/svg+xml</dc:format>
        <dc:type
           rdf:resource="http://purl.org/dc/dcmitype/StillImage" />
        <dc:title></dc:title>
      </cc:Work>
    </rdf:RDF>
  </metadata>
  <g
     transform="translate(0,2490.9449)"
     id="layer1"
     inkscape:groupmode="layer"
     inkscape:label="Layer 1">
    <flowRoot
       style="fill:#000000;stroke:#ffffff;stroke-width:1.00275591;color:#000000;stroke-miterlimit:0;line-height:125%;letter-spacing:0px;word-spacing:0px"
       id="flowRoot4236"
       xml:space="preserve"><flowRegion
         id="flowRegion4238"><rect
           y="5.3605676"
           x="10.72105"
           height="3543.3071"
           width="5022.812"
           id="rect4240" /></flowRegion><flowPara
         id="flowPara4242" /></flowRoot>    <flowRoot
       transform="translate(0,-2490.9449)"
       style="color:#000000;line-height:125%;letter-spacing:0px;word-spacing:0px;fill:#000000;stroke:#ffffff;stroke-width:1.00275588;stroke-miterlimit:0;font-size:354.33070866px;text-anchor:middle;text-align:center"
       id="flowRoot4244"
       xml:space="preserve"><flowRegion
         id="flowRegion4246"><rect
           y="13.307129"
           x="0"
           height="3530"
           width="5020"
           id="rect4248" /></flowRegion><flowPara
         id="flowPara4250" /></flowRoot>    <text
       transform="scale(0.99948877,1.0005115)"
       sodipodi:linespacing="125%"
       id="text4285"
       y="96.397293"
       x="2467.7908"
       style="color:#000000;font-size:509.12393188px;line-height:125%;letter-spacing:0px;word-spacing:0px;text-anchor:middle;solid-opacity:1;fill:#000000;stroke:#ffffff;stroke-width:1.00275588;stroke-miterlimit:0"
       xml:space="preserve"><tspan
         id="tspan4287"
         style="font-size:354.33071899px;font-family:'Metal Macabre';-inkscape-font-specification:'Metal Macabre'"
         y="96.397293"
         x="2467.7908"
         sodipodi:role="line">Bakehouse</tspan></text>
  </g>
  <g
     inkscape:groupmode="layer"
     id="layer2"
     inkscape:label="Layer 2">
    <text
       transform="matrix(0.99948877,0,0,1.0005115,0,2490.9449)"
       sodipodi:linespacing="125%"
       id="text4281"
       y="-346.51611"
       x="2467.7908"
       style="color:#000000;font-size:509.12393188px;line-height:125%;letter-spacing:0px;word-spacing:0px;text-anchor:middle;solid-opacity:1;fill:#000000;stroke:#ffffff;stroke-width:1.00275588;stroke-miterlimit:0"
       xml:space="preserve"><tspan
         id="tspan4283"
         style="font-size:354.33071899px;font-family:'Metal Macabre';-inkscape-font-specification:'Metal Macabre'"
         y="-346.51611"
         x="2467.7908"
         sodipodi:role="line">Rd</tspan></text>
  </g>
  <g
     inkscape:groupmode="layer"
     id="layer3"
     inkscape:label="Layer 3">
    <g
       transform="matrix(0.99948877,0,0,1.0005115,0,2490.9449)"
       style="color:#000000;font-size:509.12393188px;letter-spacing:0px;word-spacing:0px;text-anchor:middle;solid-opacity:1;fill:#000000;stroke:#ffffff;stroke-width:1.00275588;stroke-miterlimit:0"
       id="text4277">
      <path
         d="m 2040.6693,-1124.6939 q 106.468,15.0169 106.468,22.2723 23.4533,10.6299 45.5568,56.5241 2.5309,0.3375 9.7863,13.8358 l -1.5186,0 -16.5354,-12.3172 q -25.1406,0 -99.5501,34.4207 l 0,1.5186 q 48.7627,11.3048 73.2284,34.42066 31.8897,36.27672 40.1575,81.6648 l 0,5.39932 q 0,32.56468 -40.1575,78.79641 0,4.89313 58.2114,29.02137 l 58.0428,26.32171 9.6175,6.91789 -1.3498,1.34983 q -117.604,-38.4702 -134.1395,-52.4747 -77.1091,68.67267 -124.3532,92.46345 68.3352,-59.39258 106.468,-104.94939 -58.8864,-46.23172 -112.036,-111.86726 l -24.8032,-35.93926 -9.7863,4.04949 1.3499,9.78628 1.5185,53.82452 1.3499,0 q 17.8852,0 24.8031,-31.72103 l 2.8684,0 0,103.59955 -2.8684,0 q -8.6052,-31.72104 -16.5354,-31.72104 l -8.2677,-1.51856 -2.8684,52.64342 49.775,41.33859 -2.6997,0 q -52.8121,-30.37121 -73.2283,-30.37121 l -8.2677,0 q -31.2149,0 -73.3971,12.48594 l 0,-2.86839 q 33.9145,-20.24747 40.1575,-28.85264 4.2182,-16.70417 4.2182,-30.53994 l 0,-13.83577 -33.2396,0 -5.5681,23.62205 -2.6996,0 0,-63.6108 -35.9393,33.07087 q -50.7874,35.93926 -64.9606,71.87851 -4.7244,0 -29.0214,58.04275 l -26.153,58.04275 -6.9179,9.61754 -1.5185,-1.34983 q 41.1698,-127.72778 59.5613,-143.5883 0,-10.12374 84.1957,-92.63218 23.7908,-22.10348 62.261,-47.07536 l -1.5186,-82.84594 q 31.8898,-4.8931 31.8898,-20.7536 0,-17.8853 -22.1035,-17.8853 l -16.7042,4.0495 0,-1.3498 -56.5241,16.5354 0,-2.6996 q 92.1259,-74.747 183.7457,-74.747 z m -58.0427,91.2824 q 0,8.2677 34.5894,64.96062 17.5478,39.48256 53.8245,80.14623 11.1362,8.60518 27.6716,31.88977 21.0911,24.80315 38.8076,37.28909 23.4534,-28.34646 23.4534,-45.55681 0,-71.87852 -129.9213,-123.17211 l -15.1856,-2.69966 0,-1.34983 q 9.2801,-15.5231 93.982,-51.1249 6.9179,-17.7165 6.9179,-23.4533 -17.3791,-26.3217 -37.4578,-26.3217 l -17.8853,-1.3498 q -59.3926,0 -73.2283,41.3386 l -5.5681,19.4038 z m -95.3318,138.18897 8.2677,6.91788 26.3217,0 0,-29.02137 q -23.6221,11.47357 -34.5894,22.10349 z"
         style="-inkscape-font-specification:'Metal Macabre'"
         id="path4319" />
      <path
         d="m 2227.4483,-1063.1078 109.5051,0 0,1.0124 -29.0214,20.0787 -2.3622,4.5557 18.8976,0 2.531,2.3622 0,2.0247 -2.531,2.3622 -6.4117,0 q -15.6918,0 -15.6918,10.1238 l -1.3498,20.0787 0,174.12826 q 10.1237,4.38696 18.054,4.38696 l 5.3993,0 2.531,2.53093 0,2.02475 -2.531,2.3622 -23.4533,0 1.3498,7.76153 0,2.36221 q 25.9843,13.49831 29.0214,13.49831 l 0,2.02475 -93.6445,0 0,-2.02475 q 15.6917,0 22.2722,-23.62205 l -26.6592,0 -2.3622,-2.3622 0,-2.02475 2.3622,-2.53093 6.5804,0 q 22.1035,0 22.1035,-22.10349 l 0,-138.52644 q 0,-43.53209 -6.5804,-43.53209 -7.2554,-4.5557 -16.5354,-4.5557 l -5.5681,0 -2.3622,-2.3622 0,-2.0247 2.3622,-2.3622 23.1159,0 q -3.3746,-5.5681 -29.0214,-24.6344 l 0,-1.0124 z"
         style="-inkscape-font-specification:'Metal Macabre'"
         id="path4321" />
      <path
         d="m 2527.1464,-1076.9436 9.1114,8.9427 73.9033,0 2.6996,2.8684 0,2.3622 q 0,2.6996 -15.523,6.5804 -12.8234,0 -46.5692,90.94487 0,36.27671 -82.0023,202.30597 -23.4533,44.88189 -23.4533,49.43757 l -2.3622,0 6.5804,-80.4837 q -36.2767,-102.58717 -63.6108,-215.63551 l -16.8729,-37.6266 q -28.6839,17.0416 -32.5646,17.0416 l 27.334,-22.2722 q -4.7244,-4.0495 -25.8155,-8.9426 l 0,-3.712 2.6997,-2.8684 102.2497,0 2.3622,2.8684 0,2.3622 -23.1158,7.9302 q 17.5478,83.01464 36.2767,118.27898 l 31.0461,71.03488 q 3.2058,0 37.6265,-90.77616 l 0,-20.75366 q -7.5928,-57.03034 -28.5152,-57.03034 l -10.4611,-1.3499 -1.0124,0 q -12.1485,0 -31.0461,6.5805 l 0,-1.3499 q 34.0832,-33.2396 71.0348,-46.7379 z m 15.6918,19.4039 0,1.3498 q 10.2925,22.7784 10.2925,33.9145 4.8931,-2.1935 6.5804,-22.1035 -5.568,-13.1608 -16.8729,-13.1608 z"
         style="-inkscape-font-specification:'Metal Macabre'"
         id="path4323" />
      <path
         d="m 2835.7542,-1072.0504 q -30.0337,39.6513 -30.0337,66.6479 l 0,8.94262 -3.5433,3.54331 -1.0124,10.96737 -2.0248,0 q -5.9055,-52.1372 -22.4409,-52.1372 0,-2.0248 -11.1361,-2.3622 l -35.6018,0 q -25.1406,23.7907 -29.0214,44.5444 l 2.0248,2.3622 71.541,0 1.1811,1.01238 1.0124,0 q -14.5107,28.68391 -23.6221,52.30596 l 1.5186,0 q 14.8481,0 21.0911,-18.72891 0.6749,-16.87289 3.3746,-16.87289 l 3.0371,0 2.531,2.3622 0,86.72667 -2.531,2.3622 -3.0371,0 q -2.0248,0 -5.9055,-24.46569 -6.9179,-14.51069 -27.6716,-14.51069 l -50.1124,0 0,2.02475 q 0,32.90214 40.1574,84.70191 26.9967,25.6468 35.6018,25.6468 22.441,0 43.5321,-48.76266 l 5.5681,0 1.0123,1.01238 1.0124,0 -17.5478,63.6108 18.8976,9.61754 0,2.36221 -45.8942,-10.96738 -143.4196,0 -2.0248,-2.3622 0,-3.20585 2.0248,-2.36221 8.099,0 q 20.5849,0 20.5849,-29.02137 l 1.3498,-40.15748 0,-17.54781 q -16.8729,-38.13274 -16.8729,-84.70192 0,-19.40382 15.5231,-49.10014 -1.0124,-16.1979 -4.5557,-20.0787 l -1.0124,1.1811 -1.0123,0 q -11.4736,0 -62.0923,-29.0214 l -2.5309,0 0,-2.1935 71.2036,10.1238 142.7447,0 q 5.3993,0 30.0337,-13.4983 z m -140.3824,103.59952 0,33.57705 54.6681,0 0,-21.42857 q 0,-11.47357 -8.9426,-16.53543 l -26.6592,0 q -19.0663,0 -19.0663,4.38695 z m 0,128.23397 0,1.01238 q 0,33.57705 9.1113,33.57705 l 23.1159,1.01237 15.523,0 0,-1.01237 q -16.5354,-5.2306 -46.5691,-33.57705 l 0,-1.01238 -1.1811,0 z"
         style="-inkscape-font-specification:'Metal Macabre'"
         id="path4325" />
      <path
         d="m 2848.3905,-1064.7951 76.2655,0 q 62.0922,0 102.5871,19.2351 10.63,5.5681 34.252,56.018 l 0,2.53094 -11.4736,-10.4612 -1.0123,0 q -8.6052,0 -26.3217,6.91789 l 0,3.54331 q 0,15.1856 -8.9427,31.72103 14.5107,2.36221 37.6266,48.08774 l 7.9302,38.63893 q 0,23.45331 -21.766,58.04274 9.4488,9.95501 34.252,15.86052 l 0,4.89314 -2.3622,2.02474 -47.7503,0 -26.153,30.70867 q -2.8684,0 -51.6311,40.15748 l -1.0123,0 10.4612,-11.81103 -1.5186,0 q -14.1732,10.29247 -16.8729,10.29247 67.3229,-69.34759 67.3229,-84.19573 l -69.6851,-114.06075 -14.8481,0 1.3498,6.91789 1.0124,59.56131 1.0123,5.39932 q -2.0247,13.16086 -2.0247,44.71316 7.5928,4.38696 13.4983,4.38696 l 7.9303,0 2.3622,2.3622 0,3.54331 -2.3622,2.02474 -13.4983,0 23.7907,26.15299 -1.0123,0 q -36.6142,-24.12824 -43.5321,-24.12824 l -11.3048,-1.01237 q -15.3544,0 -46.5692,10.29246 l 0,-1.01237 10.2924,-10.29247 q -12.4859,0 -12.4859,-2.02474 l 0,-3.54331 2.1935,-2.3622 8.2677,0 q 18.8976,-2.02475 18.8976,-18.22273 l 0,-193.8695 q 0,-2.531 -7.5928,-3.5433 -6.9178,0 -34.5894,10.4612 26.9966,-28.3465 43.1946,-37.7953 -4.5557,-17.2104 -16.8729,-17.2104 l -11.3048,0 -2.1935,-2.0247 0,-4.5557 2.1935,-2.3622 z m 67.1541,80.82116 2.1935,53.82452 q 31.0461,0 45.5568,-13.66704 l 0,-1.1811 q -13.8358,-7.25535 -24.8032,-9.28009 l 0,-1.01238 q 22.441,-23.11586 45.5568,-31.72103 l 0,-3.54331 q 0,-32.05853 -19.4038,-48.08773 -30.3712,0 -41.0011,25.3093 -5.9055,14.17326 -8.099,29.35886 z m 52.6434,61.92351 57.0304,96.68167 2.0247,0 q 6.9179,-16.87289 6.9179,-27.33409 0,-40.32621 -48.0877,-76.26547 l -17.8853,6.91789 z"
         style="-inkscape-font-specification:'Metal Macabre'"
         id="path4327" />
    </g>
  </g>
</svg>
