<?xml version="1.0" encoding="UTF-8" standalone="no"?>
<!-- Created with Inkscape (http://www.inkscape.org/) -->

<svg
   xmlns:dc="http://purl.org/dc/elements/1.1/"
   xmlns:cc="http://creativecommons.org/ns#"
   xmlns:rdf="http://www.w3.org/1999/02/22-rdf-syntax-ns#"
   xmlns:svg="http://www.w3.org/2000/svg"
   xmlns="http://www.w3.org/2000/svg"
   xmlns:sodipodi="http://sodipodi.sourceforge.net/DTD/sodipodi-0.dtd"
   xmlns:inkscape="http://www.inkscape.org/namespaces/inkscape"
   sodipodi:docname="RRBTextOnlyStraight2.svg"
   width="1414mm"
   height="1000mm"
   viewBox="0 0 5010.2362 3543.3071"
   id="svg4172"
   version="1.1"
   inkscape:version="0.91 r13725">
  <sodipodi:namedview
     showguides="true"
     id="base"
     pagecolor="#ffffff"
     bordercolor="#666666"
     borderopacity="1.0"
     inkscape:pageopacity="0.0"
     inkscape:pageshadow="2"
     inkscape:zoom="0.35"
     inkscape:cx="375"
     inkscape:cy="520"
     inkscape:document-units="px"
     inkscape:current-layer="layer3"
     showgrid="false"
     inkscape:snap-page="false" />
  <defs
     id="defs4174" />
  <metadata
     id="metadata4177">
    <rdf:RDF>
      <cc:Work
         rdf:about="">
        <dc:format>image/svg+xml</dc:format>
        <dc:type
           rdf:resource="http://purl.org/dc/dcmitype/StillImage" />
        <dc:title></dc:title>
      </cc:Work>
    </rdf:RDF>
  </metadata>
  <g
     transform="translate(0,2490.9449)"
     id="layer1"
     inkscape:groupmode="layer"
     inkscape:label="Layer 1">
    <flowRoot
       style="fill:#000000;stroke:#ffffff;stroke-width:1.00275591;color:#000000;stroke-miterlimit:0;line-height:125%;letter-spacing:0px;word-spacing:0px"
       id="flowRoot4236"
       xml:space="preserve"><flowRegion
         id="flowRegion4238"><rect
           y="5.3605676"
           x="10.72105"
           height="3543.3071"
           width="5022.812"
           id="rect4240" /></flowRegion><flowPara
         id="flowPara4242" /></flowRoot>    <flowRoot
       transform="translate(0,-2490.9449)"
       style="color:#000000;line-height:125%;letter-spacing:0px;word-spacing:0px;fill:#000000;stroke:#ffffff;stroke-width:1.00275588;stroke-miterlimit:0;font-size:354.33070866px;text-anchor:middle;text-align:center"
       id="flowRoot4244"
       xml:space="preserve"><flowRegion
         id="flowRegion4246"><rect
           y="13.307129"
           x="0"
           height="3530"
           width="5020"
           id="rect4248" /></flowRegion><flowPara
         id="flowPara4250" /></flowRoot>    <g
       transform="matrix(0.99948877,0,0,1.0005115,-127.55905,0)"
       style="color:#000000;font-size:509.12393188px;letter-spacing:0px;word-spacing:0px;text-anchor:middle;solid-opacity:1;fill:#000000;stroke:#ffffff;stroke-width:1.00275588;stroke-miterlimit:0"
       id="text4285">
      <path
         d="m 1252.1174,-512.90489 1.3498,0 85.7143,37.28909 q 66.6479,-34.4207 169.91,-34.4207 l 6.9179,0 q 37.2891,0 63.6108,23.45332 5.5681,12.8234 47.0754,29.02137 l 15.1856,4.0495 0,2.86839 q -58.0428,7.25534 -84.3645,22.10349 l -29.0213,13.83577 38.6389,20.75365 q 36.9516,26.15299 48.4252,69.01015 l 5.568,24.97189 q 0,65.97302 -67.829,89.7638 -85.7143,24.4657 -164.3419,24.4657 -5.5681,30.37121 -6.9179,63.6108 -3.8808,5.56806 -6.9179,40.157475 l 0,22.103484 q 6.9179,52.1372244 20.5849,80.146215 8.4365,34.589411 19.4038,62.092222 l 5.5681,23.622034 -2.6997,0 q -51.2936,-114.3981666 -51.2936,-139.7075 l -2.6996,-20.753644 0,-29.021371 q 0,-72.553425 6.9179,-103.599545 l -71.8786,-3.71204 -1.3498,-1.34983 0,-1.34983 1.3498,-1.51856 4.2183,0 q 38.6389,0 48.2564,-15.18561 l 0,-23.45332 -23.4533,0 -5.568,17.88527 -2.6997,0 0,-74.5782 2.6997,0 q 0,12.8234 15.1856,15.1856 l 13.8357,0 0,-124.35324 q 0,-3.54331 18.054,-6.91789 6.9179,-7.25534 6.9179,-13.83577 0,-12.82339 -18.054,-15.1856 -35.2643,4.21822 -82.8459,38.63892 -30.7086,30.8774 -37.2891,51.12487 l -1.3498,0 -2.8684,-8.26771 0,-1.34984 q 0,-29.02138 92.6322,-102.24973 l -74.5782,-55.34308 z m 161.6423,142.40721 0,33.2396 1.3498,0 q 14.1733,-37.12037 18.054,-38.80766 l 5.3994,0 4.2182,2.8684 q 11.1361,-34.58944 26.3217,-34.58944 40.3262,-23.45332 70.3599,-47.07536 l 0,-1.34984 q -13.667,-26.32171 -39.9887,-26.32171 l -12.4859,0 q -50.45,0 -69.0102,37.45782 -4.2182,2.69966 -4.2182,74.57819 z m 4.2182,95.33186 q 19.5726,0 26.153,-17.88527 0,-4.21822 2.8684,-4.21822 l 1.3498,0 -0.3374,85.71431 -13.4983,-20.75366 -9.7863,-1.34983 -12.3172,0 0,16.53543 q 1.0123,11.13612 5.568,11.13612 107.8178,-7.93026 121.4848,-23.45333 23.9595,-10.79865 38.8077,-47.07538 l 0,-9.61755 q 0,-70.86617 -78.7964,-102.41848 -19.7413,0 -53.9933,51.2936 -22.1035,37.28911 -29.0213,60.74243 l 1.5185,1.34983 z"
         style="-inkscape-font-specification:'Metal Macabre'"
         id="path6525"
         inkscape:connector-curvature="0" />
      <path
         d="m 1692.1215,-408.67931 1.0124,0 74.5782,32.56468 6.9179,0 0,1.01238 -1.0124,1.34983 0,1.01237 26.3217,-1.01237 48.0878,0 q 3.0371,1.34983 23.1158,32.56468 l 0,1.01237 -1.3498,0 q -21.0911,-13.16085 -27.6716,-13.16085 -7.2553,0 -7.2553,8.26771 l 1.3498,227.10917 q 0,11.97976 19.0664,15.52307 l 0,2.3622 q -1.1811,4.893139 -4.8931,4.893139 l 0,1.012375 21.766,22.778398 -1.0124,0 q -28.3464,-23.790773 -54.3307,-23.790773 l -56.3554,0 -1.3499,-1.34983 -1.0124,0 q 0,-6.917889 13.1609,-6.917889 19.4038,-6.91788 19.4038,-18.39145 l 0,-63.61082 -89.2576,0 0,1.51856 q 19.0664,70.69743 33.9145,70.69743 l -1.3498,1.18111 0,2.3622 14.5107,13.160859 0,1.34983 -7.2553,0 -5.9056,1.012375 0,1.012373 q 33.5771,55.511793 33.5771,63.948243 -57.7053,-57.705275 -62.5984,-57.705275 l -8.2677,-3.88076 -68.3353,8.60517 0,-2.362201 28.5152,-9.61755 0,-1.012375 -58.7176,0 0,-1.34983 q 0,-8.267719 19.4038,-10.798649 20.4162,-16.53544 43.1946,-49.10013 -4.8931,-19.57256 -4.8931,-34.75817 l 0,-17.04162 q 0,-72.89091 66.9853,-132.95841 25.3094,-17.04162 29.0214,-17.04162 l 0,-1.34983 q -11.3048,0 -50.4499,-38.30147 -10.63,-7.25534 -10.63,-10.79865 z m 5.9056,182.56471 0,16.87289 q 2.6996,-1.01237 11.9797,-16.87289 l 1.1811,1.34983 32.396,-47.07538 0,-1.01237 -1.0124,0 q -23.7908,19.40383 -31.3836,45.72555 l -1.1811,0 0,-2.53094 q 15.1856,-52.47471 25.3093,-68.33523 l 1.0124,-1.34983 1.3498,0 25.3094,1.34983 q 27.6715,-36.95163 27.6715,-42.18223 l 0,-10.79865 q -30.5399,0 -51.9685,25.30934 -40.6636,46.90664 -40.6636,99.55008 z m 82.8458,-71.87854 0,1.01237 8.2678,0 0,-2.3622 1.5185,0 -1.5185,-9.78628 -8.2678,11.13611 z m -68.3352,96.00678 78.1215,0 0,-78.12151 -21.766,0 -56.3555,78.12151 z m -57.7052,87.4016 q 2.3622,11.13611 20.4161,11.13611 l 2.3623,0 0,-6.24297 q 0,-8.26772 -8.2678,-30.03375 l -1.3498,0 q -13.1608,16.19798 -13.1608,25.14061 z"
         style="-inkscape-font-specification:'Metal Macabre'"
         id="path6527"
         inkscape:connector-curvature="0" />
      <path
         d="m 1913.8208,-272.90142 93.6445,0 2.0247,2.36221 0,3.54331 -2.0247,2.3622 -4.8931,0 q -25.4781,0 -25.4781,26.65917 l -1.5186,44.54444 1.5186,1.01237 1.0124,0 q 19.91,0 59.3925,-51.46232 l 2.3623,-12.8234 q 0,-3.03712 -13.8358,-11.30484 l 0,-1.51856 1.0124,-1.01237 0,-1.34983 40.8324,-1.01238 59.3925,0 2.531,2.36221 0,3.54331 q 0,2.3622 -6.9179,2.3622 -21.4286,0 -83.0146,78.12149 39.82,16.53544 60.9111,52.47471 5.9055,9.78628 13.8358,47.750291 0,16.872892 -12.8234,44.206975 33.0708,35.2643434 57.3678,35.2643434 l 1.0124,1.012373 0,4.555681 -2.3622,2.3622048 -87.5703,0 Q 2048.129,24.567684 1996.6667,59.494562 l -1.0124,0 4.5557,-5.905517 -5.9056,2.02475 q 60.0675,-61.4173126 70.1913,-84.870631 l 0,-1.012373 q -53.3184,-64.960633 -88.9202,-103.768291 l 0,57.030382 q 0,64.285716 8.2678,64.285716 6.9178,5.9055114 18.7289,5.9055114 l 4.8931,0 2.0247,2.024747 0,7.9302588 -115.4105,0 0,-2.024747 q 7.5928,0 18.7289,-7.9302588 18.5602,0 18.5602,-30.3712044 l 1.0123,-34.926885 0,-175.14064 q 0,-15.35433 -11.3048,-17.37908 l -9.4488,0 q -2.3622,0 -2.3622,-4.89314 l -3.3746,0 0,-2.3622 7.9303,-1.01238 z m 131.946,51.46232 -29.0214,26.65918 6.9179,1.34983 23.1158,-28.00901 -1.0123,0 z m -70.1913,60.5737 0,18.56018 q 24.6345,-24.12824 24.6345,-26.99663 l -11.4736,0 q -7.2554,0 -13.1609,8.43645 z m 42.1823,0 -8.2678,10.29246 78.459,89.763798 0,-7.930259 q 0,-33.745779 -51.4623,-81.833539 -11.811,-10.29246 -18.7289,-10.29246 z"
         style="-inkscape-font-specification:'Metal Macabre'"
         id="path6529"
         inkscape:connector-curvature="0" />
      <path
         d="m 2374.1554,-186.22364 q -30.0337,39.6513 -30.0337,66.64792 l 0,8.94264 -3.5433,3.5433 -1.0124,10.967382 -2.0247,0 q -5.9055,-52.137232 -22.441,-52.137232 0,-2.02475 -11.1361,-2.36221 l -35.6018,0 q -25.1406,23.79078 -29.0214,44.54444 l 2.0248,2.3622 71.541,0 1.1811,1.01237 1.0124,0 q -14.5107,28.68392 -23.622,52.305968 l 1.5185,0 q 14.8482,0 21.0911,-18.728909 0.675,-16.872892 3.3746,-16.872892 l 3.0371,0 2.531,2.362205 0,86.7266618 -2.531,2.3622047 -3.0371,0 q -2.0247,0 -5.9055,-24.4656925 -6.9179,-14.510687 -27.6715,-14.510687 l -50.1125,0 0,2.024747 q 0,32.9021386 40.1575,84.701915 26.9966,25.646795 35.6018,25.646795 22.4409,0 43.532,-48.762656 l 5.5681,0 1.0124,1.012373 1.0123,0 -17.5478,63.610801 18.8977,9.617546 0,2.36221 -45.8943,-10.967383 -143.4196,0 -2.0247,-2.362204 0,-3.20585 2.0247,-2.362205 8.099,0 q 20.5849,0 20.5849,-29.021373 l 1.3499,-40.157481 0,-17.5478072 q -16.8729,-38.1327348 -16.8729,-84.7019148 0,-19.403822 15.523,-49.100112 -1.0123,-16.19798 -4.5556,-20.07874 l -1.0124,1.1811 -1.0124,0 q -11.4736,0 -62.0922,-29.02137 l -2.531,0 0,-2.19348 71.2036,10.12374 142.7447,0 q 5.3993,0 30.0337,-13.49832 z m -140.3824,103.599556 0,33.577053 54.6682,0 0,-21.428572 q 0,-11.473566 -8.9427,-16.535433 l -26.6591,0 q -19.0664,0 -19.0664,4.386952 z m 0,128.233974 0,1.012374 q 0,33.577053 9.1113,33.577053 l 23.1159,1.012374 15.5231,0 0,-1.012374 q -16.5355,-5.230596 -46.5692,-33.577053 l 0,-1.012374 -1.1811,0 z"
         style="-inkscape-font-specification:'Metal Macabre'"
         id="path6531"
         inkscape:connector-curvature="0" />
      <path
         d="m 2640.8974,-180.65558 0,2.3622 -12.8234,4.38695 0,1.18111 q 8.2677,0 8.2677,2.3622 l 0,3.37458 -2.3622,2.53093 -4.5557,0 q -25.6468,0 -25.6468,27.33409 l 0,193.363332 q 0,32.227222 18.7289,32.227222 l 4.5557,1.012374 6.9179,0 2.3622,2.362204 0,3.543308 -2.3622,2.024747 -77.1091,0 q -22.1035,23.790773 -74.5782,54.161983 62.0923,-63.779532 71.0349,-88.413953 l 1.1811,0 1.3498,1.181102 1.0124,0 0,-95.500565 -74.5782,0 0,109.167607 q 0,10.461193 10.2925,11.473567 5.568,0 5.568,2.362204 l 0,3.543308 -2.1934,2.024747 -94.3195,0 -2.3622,-2.024747 0,-3.543308 2.3622,-2.362204 5.5681,0 q 24.1282,0 24.1282,-27.671542 l 1.5185,-42.519687 0,-112.542185 q 0,-65.635544 -6.9178,-65.635544 -10.4612,-5.56806 -16.3667,-5.56806 l -7.9303,0 -2.3622,-2.53093 0,-3.37458 2.3622,-2.3622 92.9696,0 5.9055,1.34983 0,1.01237 q -1.6872,5.90551 -7.9302,5.90551 -9.2801,12.8234 -9.2801,36.61418 l 0,25.1406 75.928,0 q -1.0124,-6.91788 -2.3622,-6.91788 l 1.0124,-7.93026 0,-13.83577 q 0,-17.54781 -5.5681,-33.07087 l -11.6423,0 -2.1935,-2.53093 0,-3.37458 q 0,-2.3622 9.1114,-2.3622 l -2.1935,-3.54331 q 0,-1.68729 95.5006,-4.38695 z m -158.6052,97.694038 0,35.601801 74.5782,0 0,-35.601801 -74.5782,0 z"
         style="-inkscape-font-specification:'Metal Macabre'"
         id="path6533"
         inkscape:connector-curvature="0" />
      <path
         d="m 2792.2842,-182.84906 22.441,0 q 40.8324,0 80.1462,30.37121 5.2306,0 40.8324,26.32171 l -1.3498,0 -36.6142,-7.93026 -1.3498,1.34983 0,1.01237 q 30.0337,34.926887 30.0337,81.664796 l 0,14.510686 q 0,76.940385 -74.7469,119.797529 -16.5354,4.555681 -22.441,16.872889 -24.8031,26.99663 -24.8031,44.54444 -2.3622,1.51856 -7.9303,37.12036 l -2.8684,0 q 0,-49.77503 -36.6141,-93.307092 -84.8707,-33.577054 -86.558,-131.608553 0,-53.655795 31.3836,-90.607425 l -13.1608,-1.34983 -27.6716,2.3622 0,-2.3622 q 97.8628,-48.76266 131.2711,-48.76266 z m -41.8448,107.817777 0,7.930259 q 0,101.237348 23.6221,144.769408 l 18.2227,2.530933 13.1609,0 q 25.3093,0 25.3093,-17.04162 16.8729,-44.544433 16.8729,-130.258721 0,-75.590556 -31.3836,-94.656926 l -8.099,-1.34983 -19.5725,0 q -17.0416,0 -30.54,27.67155 -7.5928,23.79077 -7.5928,60.404947 z m -34.0832,43.532059 0,7.592802 q 0,39.482565 23.4533,74.071993 l 0,-1.518561 q -22.1035,-68.672667 -22.1035,-80.146234 l -1.3498,0 z m 162.6547,15.52306 q -11.3049,43.869518 -23.4533,69.853771 l 0,1.349831 1.3498,0 q 23.4533,-34.08324 23.4533,-68.33521 l 0,-2.868392 -1.3498,0 z m -98.369,110.686168 0,1.349831 q 8.6052,16.197975 14.5107,19.235095 l 2.6997,0 q 15.1856,-13.16085 18.3914,-20.584926 l -13.1608,1.349831 -13.1609,0 -9.2801,-1.349831 z"
         style="-inkscape-font-specification:'Metal Macabre'"
         id="path6535"
         inkscape:connector-curvature="0" />
      <path
         d="m 3182.8885,-321.32661 -49.1001,45.38807 12.1485,0 2.3622,2.36221 0,2.3622 q 0,2.19348 -18.8977,4.89314 l -7.2553,8.26772 1.0124,1.01237 0,1.34983 -3.3746,1.18111 -1.1811,23.79077 0,204.162017 q 0,6.917886 6.9179,6.917886 9.4488,0 27.6715,-13.160856 l 1.0124,0 0,1.518559 q -19.91,31.04612117 -22.4409,32.05849417 l -45.5569,0 q -47.7502,0 -103.7682,-56.01799817 -41.6761,-53.487062 -41.6761,-118.110262 0,-29.69629 12.9921,-63.27335 l 0,-7.25534 q 0,-24.80315 -22.2722,-24.80315 l -4.8931,0 -2.3622,-2.53094 0,-2.3622 2.3622,-2.36221 14.1732,0 0,-1.1811 -26.3217,-8.26771 0,-2.36221 118.1103,13.16086 0,2.3622 q -18.5602,5.2306 -38.3015,53.6558 -9.2801,26.8279 -9.2801,39.31384 l 0,29.6963 q 0,67.829032 27.3341,82.339719 12.6547,6.074241 28.6839,6.074241 13.667,0 33.4083,-8.605175 l 0,-178.683945 q 0,-15.52306 -13.1608,-25.14061 l 0,-1.01237 2.5309,0 32.0585,-3.88077 q 0,-4.04949 -4.7244,-9.28009 l 0,-1.34983 16.5354,0 74.2407,-32.22722 1.0124,0 z m -150.3374,275.534341 -10.63,-1.181103 q 31.3836,29.865018 50.1125,29.865018 l 2.3622,-14.17323 0,-20.416197 -1.3498,0 q -17.8853,5.905512 -40.4949,5.905512 z"
         style="-inkscape-font-specification:'Metal Macabre'"
         id="path6537"
         inkscape:connector-curvature="0" />
      <path
         d="m 3433.3802,-410.02914 -44.5445,42.18223 0,86.05175 -2.5309,2.36221 -2.3622,0 q -2.0248,-0.33746 -9.2801,-35.60181 -7.9303,-17.21035 -15.1856,-23.45332 l -26.9966,41.50731 -1.3499,0 0,-14.17322 q 0,-26.32171 -29.3588,-33.2396 l -11.811,-2.02475 q -12.8234,13.16086 -12.8234,32.90214 0,19.57255 30.3712,35.26435 29.0214,25.14061 69.5163,51.79979 26.9966,26.49045 26.9966,52.81217 l 0,11.81102 q 0,40.66369 -44.5444,64.623193 -14.5107,4.386952 -24.9719,4.386952 l -16.198,0 -1.3498,-1.349831 -1.0124,0 q -10.1237,19.572547 -49.4375,44.881882 l -32.9022,20.078734 14.1733,-15.691787 -14.1733,8.436447 -2.3622,0 q 43.8695,-33.914498 57.7053,-55.343071 l 0,-1.012374 -2.5309,0 q -12.9922,0 -27.8403,-3.374579 0,3.374579 -2.5309,3.374579 l -2.3622,0 q -2.0248,0 -3.5433,-6.917885 -47.9191,-15.86052 -71.3724,-61.07988 -23.4533,-33.23961 -23.4533,-36.27673 69.3476,67.99777 96.0068,74.91566 l 0,-61.07988 2.3622,-2.19348 2.3622,0 q 2.5309,0 9.4488,33.91452 11.3048,25.6468 23.4533,29.35884 27.3341,-8.60518 52.8122,-44.54445 0,-28.009 -37.6266,-57.7053 -28.6839,-22.10349 -56.3554,-32.90215 -13.4984,-3.03712 -34.252,-16.19798 l -15.1856,-2.3622 q -19.91,0 -43.0259,17.54781 l -1.5186,0 0,-1.34984 q 28.684,-30.03375 36.2768,-50.44995 55.6805,-62.26097 102.2497,-62.26097 l 5.9055,1.1811 16.5354,-2.53093 4.5557,0 q 9.6176,0 29.3588,5.90551 l -5.9055,-9.28009 0,-1.01237 16.7042,0 72.8909,-31.88977 1.0124,0 z m -214.9607,82.33971 q 24.1283,15.1856 30.3712,15.1856 1.6873,-17.37907 13.1609,-32.90213 l 0,-1.01238 q -22.1035,0 -43.5321,18.72891 z m 146.7942,165.86056 6.9179,5.90552 0,-2.53094 -3.3746,-14.17323 q -2.3622,0 -3.5433,10.79865 z"
         style="-inkscape-font-specification:'Metal Macabre'"
         id="path6539"
         inkscape:connector-curvature="0" />
      <path
         d="m 3634.3824,-473.08487 q -30.0337,39.6513 -30.0337,66.64792 l 0,8.94264 -3.5433,3.5433 -1.0124,10.96739 -2.0247,0 q -5.9056,-52.13724 -22.441,-52.13724 0,-2.02475 -11.1361,-2.36221 l -35.6018,0 q -25.1406,23.79078 -29.0214,44.54444 l 2.0248,2.3622 71.541,0 1.1811,1.01237 1.0124,0 q -14.5107,28.68393 -23.622,52.30598 l 1.5185,0 q 14.8482,0 21.0911,-18.72891 0.675,-16.8729 3.3746,-16.8729 l 3.0371,0 2.531,2.36221 0,86.72668 -2.531,2.36221 -3.0371,0 q -2.0247,0 -5.9055,-24.4657 -6.9179,-14.51069 -27.6715,-14.51069 l -50.1125,0 0,2.02475 q 0,32.90215 40.1575,84.70194 26.9966,25.6468 35.6018,25.6468 22.4409,0 43.532,-48.76267 l 5.5681,0 1.0123,1.01237 1.0124,0 -17.5478,63.61082 18.8977,9.61755 0,2.36221 -45.8943,-10.96739 -143.4196,0 -2.0247,-2.3622 0,-3.20585 2.0247,-2.36221 8.099,0 q 20.5849,0 20.5849,-29.02138 l 1.3499,-40.15749 0,-17.54781 q -16.8729,-38.13275 -16.8729,-84.70194 0,-19.40383 15.523,-49.10012 -1.0123,-16.19798 -4.5557,-20.07874 l -1.0123,1.1811 -1.0124,0 q -11.4736,0 -62.0922,-29.02137 l -2.531,0 0,-2.19348 71.2036,10.12374 142.7447,0 q 5.3993,0 30.0337,-13.49832 z M 3494,-369.48531 l 0,33.57706 54.6681,0 0,-21.42857 q 0,-11.47357 -8.9426,-16.53544 l -26.6592,0 q -19.0663,0 -19.0663,4.38695 z m 0,128.23401 0,1.01238 q 0,33.57706 9.1113,33.57706 l 23.1159,1.01238 15.5231,0 0,-1.01238 q -16.5355,-5.2306 -46.5692,-33.57706 l 0,-1.01238 -1.1811,0 z"
         style="-inkscape-font-specification:'Metal Macabre'"
         id="path6541"
         inkscape:connector-curvature="0" />
    </g>
  </g>
  <g
     inkscape:groupmode="layer"
     id="layer2"
     inkscape:label="Layer 2">
    <g
       transform="matrix(0.99948877,0,0,1.0005115,0,2490.9449)"
       style="color:#000000;font-size:509.12393188px;letter-spacing:0px;word-spacing:0px;text-anchor:middle;solid-opacity:1;fill:#000000;stroke:#ffffff;stroke-width:1.00275588;stroke-miterlimit:0"
       id="text4281">
      <path
         d="m 2348.2865,-681.78047 q 106.468,15.01688 106.468,22.27222 23.4533,10.62992 45.5568,56.52419 2.5309,0.33746 9.7863,13.83577 l -1.5186,0 -16.5354,-12.31721 q -25.1406,0 -99.5501,34.4207 l 0,1.51856 q 48.7627,11.30483 73.2284,34.4207 31.8897,36.27671 40.1574,81.66479 l 0,5.39932 q 0,32.56468 -40.1574,78.79641 0,4.89314 58.2114,29.02137 l 58.0428,26.32171 9.6175,6.91789 -1.3498,1.34983 q -117.604,-38.47019 -134.1395,-52.47469 -77.1091,68.67266 -124.3532,92.46344 68.3352,-59.39258 106.468,-104.94938 -58.8864,-46.23173 -112.036,-111.86727 l -24.8032,-35.93926 -9.7863,4.04949 1.3499,9.78628 1.5185,53.82452 1.3498,0 q 17.8853,0 24.8032,-31.72103 l 2.8684,0 0,103.59955 -2.8684,0 q -8.6052,-31.72104 -16.5354,-31.72104 l -8.2678,-1.51856 -2.8683,52.64342 49.775,41.33859 -2.6997,0 q -52.8121,-30.37121 -73.2283,-30.37121 l -8.2677,0 q -31.2149,0 -73.3971,12.48594 l 0,-2.86839 q 33.9145,-20.24747 40.1575,-28.85264 4.2182,-16.70416 4.2182,-30.53994 l 0,-13.83577 -33.2396,0 -5.5681,23.62205 -2.6996,0 0,-63.6108 -35.9393,33.07087 q -50.7874,35.93926 -64.9606,71.87851 -4.7244,0 -29.0214,58.04275 l -26.153,58.04275 -6.9179,9.61755 -1.5185,-1.34984 q 41.1698,-127.72778 59.5613,-143.5883 0,-10.12374 84.1957,-92.63217 23.7908,-22.10349 62.261,-47.07537 l -1.5186,-82.8459 q 31.8898,-4.89314 31.8898,-20.75365 0,-17.88527 -22.1035,-17.88527 l -16.7042,4.04949 0,-1.34983 -56.5241,16.53544 0,-2.69967 q 92.1259,-74.74691 183.7457,-74.74691 z m -58.0427,91.28235 q 0,8.26771 34.5894,64.96063 17.5478,39.48257 53.8245,80.14623 11.1362,8.60518 27.6716,31.88977 21.0911,24.80315 38.8076,37.28909 23.4534,-28.34646 23.4534,-45.55681 0,-71.87852 -129.9213,-123.17211 l -15.1856,-2.69966 0,-1.34983 q 9.2801,-15.52306 93.982,-51.12486 6.9179,-17.71654 6.9179,-23.45332 -17.3791,-26.32171 -37.4578,-26.32171 l -17.8853,-1.34983 q -59.3926,0 -73.2284,41.33858 l -5.568,19.40383 z m -95.3318,138.18898 8.2677,6.91788 26.3217,0 0,-29.02137 q -23.6221,11.47357 -34.5894,22.10349 z"
         style="-inkscape-font-specification:'Metal Macabre'"
         id="path6520" />
      <path
         d="m 2475.1667,-642.97281 1.5186,0 56.3554,24.12823 60.5737,0 18.3915,1.01237 q 7.5928,-3.37457 18.3914,-3.37457 l 16.198,0 q 47.919,0 120.6412,35.6018 l 6.9179,2.3622 0,2.36221 -12.8234,0 q -20.4162,0 -20.4162,4.55568 8.9426,40.15748 8.9426,53.99325 0,41.67604 -32.0585,97.69404 -34.5894,35.93926 -65.6355,51.79978 -9.1114,11.81102 -51.6311,19.40382 0,3.03712 -105.6243,6.91789 l 0,-2.36221 q 24.297,-8.26771 24.297,-11.47356 0,-1.34984 18.2227,-5.90552 6.9179,-6.91788 6.9179,-33.07086 l 0,-176.99663 q -3.5433,-6.91789 -7.9303,-7.93026 l -1.3498,1.01237 q 0,-5.90551 -42.5197,-36.61417 l 2.3622,0 9.4488,4.55568 -29.1901,-27.67154 z m 181.7211,42.51968 q 37.6265,39.31384 37.6265,104.61193 l 0,17.37908 -2.0247,26.15298 0,1.01237 1.0123,0 q 11.4736,-28.68391 11.4736,-65.29809 0,-50.11249 -32.2272,-76.94038 -6.0743,-4.55568 -15.8605,-6.91789 z m -67.9978,51.79978 0,55.00562 -1.0124,119.46007 1.0124,3.54331 11.6423,0 q 44.3757,0 61.9235,-79.13386 l 2.3622,-38.13273 q 0,-81.49607 -44.8819,-109.16761 l -4.5556,-1.01237 q -26.4905,8.60517 -26.4905,49.43757 z"
         style="-inkscape-font-specification:'Metal Macabre'"
         id="path6522" />
    </g>
  </g>
  <g
     inkscape:groupmode="layer"
     id="layer3"
     inkscape:label="Layer 3">
    <g
       transform="matrix(0.99948877,0,0,1.0005115,-31.889763,2490.9449)"
       style="color:#000000;font-size:509.12393188px;letter-spacing:0px;word-spacing:0px;text-anchor:middle;solid-opacity:1;fill:#000000;stroke:#ffffff;stroke-width:1.00275588;stroke-miterlimit:0"
       id="text4277">
      <path
         d="m 2040.6693,-1124.6939 q 106.468,15.0169 106.468,22.2723 23.4533,10.6299 45.5568,56.5241 2.5309,0.3375 9.7863,13.8358 l -1.5186,0 -16.5354,-12.3172 q -25.1406,0 -99.5501,34.4207 l 0,1.5186 q 48.7627,11.30479 73.2284,34.42067 31.8897,36.27667 40.1575,81.66479 l 0,5.39932 q 0,32.56468 -40.1575,78.79641 0,4.89313 58.2114,29.02137 l 58.0428,26.32171 9.6175,6.91789 -1.3498,1.34983 q -117.604,-38.4702 -134.1395,-52.4747 -77.1091,68.67267 -124.3532,92.46345 68.3352,-59.39258 106.468,-104.94939 -58.8864,-46.23172 -112.036,-111.86726 l -24.8032,-35.93924 -9.7863,4.0495 1.3499,9.78629 1.5185,53.82448 1.3499,0 q 17.8852,0 24.8031,-31.72103 l 2.8684,0 0,103.59955 -2.8684,0 q -8.6052,-31.72104 -16.5354,-31.72104 l -8.2677,-1.51856 -2.8684,52.64342 49.775,41.33859 -2.6997,0 q -52.8121,-30.37121 -73.2283,-30.37121 l -8.2677,0 q -31.2149,0 -73.3971,12.48594 l 0,-2.86839 q 33.9145,-20.24747 40.1575,-28.85264 4.2182,-16.70417 4.2182,-30.53994 l 0,-13.83577 -33.2396,0 -5.5681,23.62205 -2.6996,0 0,-63.6108 -35.9393,33.07087 q -50.7874,35.93926 -64.9606,71.87851 -4.7244,0 -29.0214,58.04275 l -26.153,58.04275 -6.9179,9.61754 -1.5185,-1.34983 q 41.1698,-127.72778 59.5613,-143.5883 0,-10.12374 84.1957,-92.63218 23.7908,-22.10348 62.261,-47.07536 l -1.5186,-82.84594 q 31.8898,-4.8931 31.8898,-20.7536 0,-17.8853 -22.1035,-17.8853 l -16.7042,4.0495 0,-1.3498 -56.5241,16.5354 0,-2.6996 q 92.1259,-74.747 183.7457,-74.747 z m -58.0427,91.2824 q 0,8.2677 34.5894,64.96067 17.5478,39.48251 53.8245,80.14618 11.1362,8.60518 27.6716,31.88977 21.0911,24.80315 38.8076,37.28909 23.4534,-28.34646 23.4534,-45.55681 0,-71.87856 -129.9213,-123.17212 l -15.1856,-2.69969 0,-1.3498 q 9.2801,-15.52309 93.982,-51.12489 6.9179,-17.7165 6.9179,-23.4533 -17.3791,-26.3217 -37.4578,-26.3217 l -17.8853,-1.3498 q -59.3926,0 -73.2283,41.3386 l -5.5681,19.4038 z m -95.3318,138.18897 8.2677,6.91788 26.3217,0 0,-29.02137 q -23.6221,11.47357 -34.5894,22.10349 z"
         style="-inkscape-font-specification:'Metal Macabre'"
         id="path6509"
         inkscape:connector-curvature="0" />
      <path
         d="m 2227.4483,-1063.1078 109.5051,0 0,1.0124 -29.0214,20.0787 -2.3622,4.5557 18.8976,0 2.531,2.3622 0,2.0247 -2.531,2.3622 -6.4117,0 q -15.6918,0 -15.6918,10.1238 l -1.3498,20.0787 0,174.12826 q 10.1237,4.38696 18.054,4.38696 l 5.3993,0 2.531,2.53093 0,2.02475 -2.531,2.3622 -23.4533,0 1.3498,7.76153 0,2.36221 q 25.9843,13.49831 29.0214,13.49831 l 0,2.02475 -93.6445,0 0,-2.02475 q 15.6917,0 22.2722,-23.62205 l -26.6592,0 -2.3622,-2.3622 0,-2.02475 2.3622,-2.53093 6.5804,0 q 22.1035,0 22.1035,-22.10349 l 0,-138.52644 q 0,-43.53209 -6.5804,-43.53209 -7.2554,-4.5557 -16.5354,-4.5557 l -5.5681,0 -2.3622,-2.3622 0,-2.0247 2.3622,-2.3622 23.1159,0 q -3.3746,-5.5681 -29.0214,-24.6344 l 0,-1.0124 z"
         style="-inkscape-font-specification:'Metal Macabre'"
         id="path6511"
         inkscape:connector-curvature="0" />
      <path
         d="m 2527.1464,-1076.9436 9.1114,8.9427 73.9033,0 2.6996,2.8684 0,2.3622 q 0,2.6996 -15.523,6.5804 -12.8234,0 -46.5692,90.94487 0,36.27671 -82.0023,202.30597 -23.4533,44.88189 -23.4533,49.43757 l -2.3622,0 6.5804,-80.4837 q -36.2767,-102.58717 -63.6108,-215.63551 l -16.8729,-37.6266 q -28.6839,17.0416 -32.5646,17.0416 l 27.334,-22.2722 q -4.7244,-4.0495 -25.8155,-8.9426 l 0,-3.712 2.6997,-2.8684 102.2497,0 2.3622,2.8684 0,2.3622 -23.1158,7.9302 q 17.5478,83.01464 36.2767,118.27898 l 31.0461,71.03488 q 3.2058,0 37.6265,-90.77616 l 0,-20.75366 q -7.5928,-57.03034 -28.5152,-57.03034 l -10.4611,-1.3499 -1.0124,0 q -12.1485,0 -31.0461,6.5805 l 0,-1.3499 q 34.0832,-33.2396 71.0348,-46.7379 z m 15.6918,19.4039 0,1.3498 q 10.2925,22.7784 10.2925,33.9145 4.8931,-2.1935 6.5804,-22.1035 -5.568,-13.1608 -16.8729,-13.1608 z"
         style="-inkscape-font-specification:'Metal Macabre'"
         id="path6513"
         inkscape:connector-curvature="0" />
      <path
         d="m 2835.7542,-1072.0504 q -30.0337,39.6513 -30.0337,66.6479 l 0,8.94262 -3.5433,3.54331 -1.0124,10.96737 -2.0248,0 q -5.9055,-52.1372 -22.4409,-52.1372 0,-2.0248 -11.1361,-2.3622 l -35.6018,0 q -25.1406,23.7907 -29.0214,44.5444 l 2.0248,2.3622 71.541,0 1.1811,1.01238 1.0124,0 q -14.5107,28.68391 -23.6221,52.30596 l 1.5186,0 q 14.8481,0 21.0911,-18.72891 0.6749,-16.87289 3.3746,-16.87289 l 3.0371,0 2.531,2.3622 0,86.72667 -2.531,2.3622 -3.0371,0 q -2.0248,0 -5.9055,-24.46569 -6.9179,-14.51069 -27.6716,-14.51069 l -50.1124,0 0,2.02475 q 0,32.90214 40.1574,84.70191 26.9967,25.6468 35.6018,25.6468 22.441,0 43.5321,-48.76266 l 5.5681,0 1.0123,1.01238 1.0124,0 -17.5478,63.6108 18.8976,9.61754 0,2.36221 -45.8942,-10.96738 -143.4196,0 -2.0248,-2.3622 0,-3.20585 2.0248,-2.36221 8.099,0 q 20.5849,0 20.5849,-29.02137 l 1.3498,-40.15748 0,-17.54781 q -16.8729,-38.13274 -16.8729,-84.70192 0,-19.40382 15.5231,-49.10014 -1.0124,-16.1979 -4.5557,-20.0787 l -1.0124,1.1811 -1.0123,0 q -11.4736,0 -62.0923,-29.0214 l -2.5309,0 0,-2.1935 71.2036,10.1238 142.7447,0 q 5.3993,0 30.0337,-13.4983 z m -140.3824,103.59952 0,33.57705 54.6681,0 0,-21.42857 q 0,-11.47357 -8.9426,-16.53543 l -26.6592,0 q -19.0663,0 -19.0663,4.38695 z m 0,128.23397 0,1.01238 q 0,33.57705 9.1113,33.57705 l 23.1159,1.01237 15.523,0 0,-1.01237 q -16.5354,-5.2306 -46.5691,-33.57705 l 0,-1.01238 -1.1811,0 z"
         style="-inkscape-font-specification:'Metal Macabre'"
         id="path6515"
         inkscape:connector-curvature="0" />
      <path
         d="m 2848.3905,-1064.7951 76.2655,0 q 62.0922,0 102.5871,19.2351 10.63,5.5681 34.252,56.01799 l 0,2.53099 -11.4736,-10.46119 -1.0123,0 q -8.6052,0 -26.3217,6.9178 l 0,3.54339 q 0,15.18559 -8.9427,31.72097 14.5107,2.3622 37.6266,48.08776 l 7.9302,38.63893 q 0,23.45331 -21.766,58.04274 9.4488,9.95501 34.252,15.86052 l 0,4.89314 -2.3622,2.02474 -47.7503,0 -26.153,30.70867 q -2.8684,0 -51.6311,40.15748 l -1.0123,0 10.4612,-11.81103 -1.5186,0 q -14.1732,10.29247 -16.8729,10.29247 67.3229,-69.34759 67.3229,-84.19573 l -69.6851,-114.06075 -14.8481,0 1.3498,6.91789 1.0124,59.56131 1.0123,5.39932 q -2.0247,13.16086 -2.0247,44.71316 7.5928,4.38696 13.4983,4.38696 l 7.9303,0 2.3622,2.3622 0,3.54331 -2.3622,2.02474 -13.4983,0 23.7907,26.15299 -1.0123,0 q -36.6142,-24.12824 -43.5321,-24.12824 l -11.3048,-1.01237 q -15.3544,0 -46.5692,10.29246 l 0,-1.01237 10.2924,-10.29247 q -12.4859,0 -12.4859,-2.02474 l 0,-3.54331 2.1935,-2.3622 8.2677,0 q 18.8976,-2.02475 18.8976,-18.22273 l 0,-193.8695 q 0,-2.531 -7.5928,-3.5433 -6.9178,0 -34.5894,10.4612 26.9966,-28.3465 43.1946,-37.7953 -4.5557,-17.2104 -16.8729,-17.2104 l -11.3048,0 -2.1935,-2.0247 0,-4.5557 2.1935,-2.3622 z m 67.1541,80.82118 2.1935,53.8245 q 31.0461,0 45.5568,-13.66704 l 0,-1.1811 q -13.8358,-7.25539 -24.8032,-9.28009 l 0,-1.0124 q 22.441,-23.11588 45.5568,-31.72097 l 0,-3.54339 q 0,-32.05849 -19.4038,-48.08769 -30.3712,0 -41.0011,25.3093 -5.9055,14.17329 -8.099,29.35888 z m 52.6434,61.92349 57.0304,96.68167 2.0247,0 q 6.9179,-16.87289 6.9179,-27.33409 0,-40.32621 -48.0877,-76.26547 l -17.8853,6.91789 z"
         style="-inkscape-font-specification:'Metal Macabre'"
         id="path6517"
         inkscape:connector-curvature="0" />
    </g>
  </g>
</svg>
